<?xml version="1.0" encoding="utf-8" standalone="no"?>
<!DOCTYPE svg PUBLIC "-//W3C//DTD SVG 1.1//EN"
  "http://www.w3.org/Graphics/SVG/1.1/DTD/svg11.dtd">
<!-- Created with matplotlib (https://matplotlib.org/) -->
<svg height="617.711562pt" version="1.1" viewBox="0 0 1191.074219 617.711562" width="1191.074219pt" xmlns="http://www.w3.org/2000/svg" xmlns:xlink="http://www.w3.org/1999/xlink">
 <defs>
  <style type="text/css">
*{stroke-linecap:butt;stroke-linejoin:round;}
  </style>
 </defs>
 <g id="figure_1">
  <g id="patch_1">
   <path d="M 0 617.711562 
L 1191.074219 617.711562 
L 1191.074219 0 
L 0 0 
z
" style="fill:#ffffff;"/>
  </g>
  <g id="axes_1">
   <g id="patch_2">
    <path d="M 64.374219 570.477187 
L 1180.374219 570.477187 
L 1180.374219 26.877187 
L 64.374219 26.877187 
z
" style="fill:#ffffff;"/>
   </g>
   <g id="matplotlib.axis_1">
    <g id="xtick_1">
     <g id="line2d_1">
      <defs>
       <path d="M 0 0 
L 0 3.5 
" id="m72bf7b42f2" style="stroke:#000000;stroke-width:0.8;"/>
      </defs>
      <g>
       <use style="stroke:#000000;stroke-width:0.8;" x="166.316526" xlink:href="#m72bf7b42f2" y="570.477187"/>
      </g>
     </g>
     <g id="text_1">
      <!-- 35000 -->
      <defs>
       <path d="M 40.578125 39.3125 
Q 47.65625 37.796875 51.625 33 
Q 55.609375 28.21875 55.609375 21.1875 
Q 55.609375 10.40625 48.1875 4.484375 
Q 40.765625 -1.421875 27.09375 -1.421875 
Q 22.515625 -1.421875 17.65625 -0.515625 
Q 12.796875 0.390625 7.625 2.203125 
L 7.625 11.71875 
Q 11.71875 9.328125 16.59375 8.109375 
Q 21.484375 6.890625 26.8125 6.890625 
Q 36.078125 6.890625 40.9375 10.546875 
Q 45.796875 14.203125 45.796875 21.1875 
Q 45.796875 27.640625 41.28125 31.265625 
Q 36.765625 34.90625 28.71875 34.90625 
L 20.21875 34.90625 
L 20.21875 43.015625 
L 29.109375 43.015625 
Q 36.375 43.015625 40.234375 45.921875 
Q 44.09375 48.828125 44.09375 54.296875 
Q 44.09375 59.90625 40.109375 62.90625 
Q 36.140625 65.921875 28.71875 65.921875 
Q 24.65625 65.921875 20.015625 65.03125 
Q 15.375 64.15625 9.8125 62.3125 
L 9.8125 71.09375 
Q 15.4375 72.65625 20.34375 73.4375 
Q 25.25 74.21875 29.59375 74.21875 
Q 40.828125 74.21875 47.359375 69.109375 
Q 53.90625 64.015625 53.90625 55.328125 
Q 53.90625 49.265625 50.4375 45.09375 
Q 46.96875 40.921875 40.578125 39.3125 
z
" id="DejaVuSans-51"/>
       <path d="M 10.796875 72.90625 
L 49.515625 72.90625 
L 49.515625 64.59375 
L 19.828125 64.59375 
L 19.828125 46.734375 
Q 21.96875 47.46875 24.109375 47.828125 
Q 26.265625 48.1875 28.421875 48.1875 
Q 40.625 48.1875 47.75 41.5 
Q 54.890625 34.8125 54.890625 23.390625 
Q 54.890625 11.625 47.5625 5.09375 
Q 40.234375 -1.421875 26.90625 -1.421875 
Q 22.3125 -1.421875 17.546875 -0.640625 
Q 12.796875 0.140625 7.71875 1.703125 
L 7.71875 11.625 
Q 12.109375 9.234375 16.796875 8.0625 
Q 21.484375 6.890625 26.703125 6.890625 
Q 35.15625 6.890625 40.078125 11.328125 
Q 45.015625 15.765625 45.015625 23.390625 
Q 45.015625 31 40.078125 35.4375 
Q 35.15625 39.890625 26.703125 39.890625 
Q 22.75 39.890625 18.8125 39.015625 
Q 14.890625 38.140625 10.796875 36.28125 
z
" id="DejaVuSans-53"/>
       <path d="M 31.78125 66.40625 
Q 24.171875 66.40625 20.328125 58.90625 
Q 16.5 51.421875 16.5 36.375 
Q 16.5 21.390625 20.328125 13.890625 
Q 24.171875 6.390625 31.78125 6.390625 
Q 39.453125 6.390625 43.28125 13.890625 
Q 47.125 21.390625 47.125 36.375 
Q 47.125 51.421875 43.28125 58.90625 
Q 39.453125 66.40625 31.78125 66.40625 
z
M 31.78125 74.21875 
Q 44.046875 74.21875 50.515625 64.515625 
Q 56.984375 54.828125 56.984375 36.375 
Q 56.984375 17.96875 50.515625 8.265625 
Q 44.046875 -1.421875 31.78125 -1.421875 
Q 19.53125 -1.421875 13.0625 8.265625 
Q 6.59375 17.96875 6.59375 36.375 
Q 6.59375 54.828125 13.0625 64.515625 
Q 19.53125 74.21875 31.78125 74.21875 
z
" id="DejaVuSans-48"/>
      </defs>
      <g transform="translate(142.457151 588.874844)scale(0.15 -0.15)">
       <use xlink:href="#DejaVuSans-51"/>
       <use x="63.623047" xlink:href="#DejaVuSans-53"/>
       <use x="127.246094" xlink:href="#DejaVuSans-48"/>
       <use x="190.869141" xlink:href="#DejaVuSans-48"/>
       <use x="254.492188" xlink:href="#DejaVuSans-48"/>
      </g>
     </g>
    </g>
    <g id="xtick_2">
     <g id="line2d_2">
      <g>
       <use style="stroke:#000000;stroke-width:0.8;" x="300.451142" xlink:href="#m72bf7b42f2" y="570.477187"/>
      </g>
     </g>
     <g id="text_2">
      <!-- 35500 -->
      <g transform="translate(276.591767 588.874844)scale(0.15 -0.15)">
       <use xlink:href="#DejaVuSans-51"/>
       <use x="63.623047" xlink:href="#DejaVuSans-53"/>
       <use x="127.246094" xlink:href="#DejaVuSans-53"/>
       <use x="190.869141" xlink:href="#DejaVuSans-48"/>
       <use x="254.492188" xlink:href="#DejaVuSans-48"/>
      </g>
     </g>
    </g>
    <g id="xtick_3">
     <g id="line2d_3">
      <g>
       <use style="stroke:#000000;stroke-width:0.8;" x="434.585757" xlink:href="#m72bf7b42f2" y="570.477187"/>
      </g>
     </g>
     <g id="text_3">
      <!-- 36000 -->
      <defs>
       <path d="M 33.015625 40.375 
Q 26.375 40.375 22.484375 35.828125 
Q 18.609375 31.296875 18.609375 23.390625 
Q 18.609375 15.53125 22.484375 10.953125 
Q 26.375 6.390625 33.015625 6.390625 
Q 39.65625 6.390625 43.53125 10.953125 
Q 47.40625 15.53125 47.40625 23.390625 
Q 47.40625 31.296875 43.53125 35.828125 
Q 39.65625 40.375 33.015625 40.375 
z
M 52.59375 71.296875 
L 52.59375 62.3125 
Q 48.875 64.0625 45.09375 64.984375 
Q 41.3125 65.921875 37.59375 65.921875 
Q 27.828125 65.921875 22.671875 59.328125 
Q 17.53125 52.734375 16.796875 39.40625 
Q 19.671875 43.65625 24.015625 45.921875 
Q 28.375 48.1875 33.59375 48.1875 
Q 44.578125 48.1875 50.953125 41.515625 
Q 57.328125 34.859375 57.328125 23.390625 
Q 57.328125 12.15625 50.6875 5.359375 
Q 44.046875 -1.421875 33.015625 -1.421875 
Q 20.359375 -1.421875 13.671875 8.265625 
Q 6.984375 17.96875 6.984375 36.375 
Q 6.984375 53.65625 15.1875 63.9375 
Q 23.390625 74.21875 37.203125 74.21875 
Q 40.921875 74.21875 44.703125 73.484375 
Q 48.484375 72.75 52.59375 71.296875 
z
" id="DejaVuSans-54"/>
      </defs>
      <g transform="translate(410.726382 588.874844)scale(0.15 -0.15)">
       <use xlink:href="#DejaVuSans-51"/>
       <use x="63.623047" xlink:href="#DejaVuSans-54"/>
       <use x="127.246094" xlink:href="#DejaVuSans-48"/>
       <use x="190.869141" xlink:href="#DejaVuSans-48"/>
       <use x="254.492188" xlink:href="#DejaVuSans-48"/>
      </g>
     </g>
    </g>
    <g id="xtick_4">
     <g id="line2d_4">
      <g>
       <use style="stroke:#000000;stroke-width:0.8;" x="568.720373" xlink:href="#m72bf7b42f2" y="570.477187"/>
      </g>
     </g>
     <g id="text_4">
      <!-- 36500 -->
      <g transform="translate(544.860998 588.874844)scale(0.15 -0.15)">
       <use xlink:href="#DejaVuSans-51"/>
       <use x="63.623047" xlink:href="#DejaVuSans-54"/>
       <use x="127.246094" xlink:href="#DejaVuSans-53"/>
       <use x="190.869141" xlink:href="#DejaVuSans-48"/>
       <use x="254.492188" xlink:href="#DejaVuSans-48"/>
      </g>
     </g>
    </g>
    <g id="xtick_5">
     <g id="line2d_5">
      <g>
       <use style="stroke:#000000;stroke-width:0.8;" x="702.854988" xlink:href="#m72bf7b42f2" y="570.477187"/>
      </g>
     </g>
     <g id="text_5">
      <!-- 37000 -->
      <defs>
       <path d="M 8.203125 72.90625 
L 55.078125 72.90625 
L 55.078125 68.703125 
L 28.609375 0 
L 18.3125 0 
L 43.21875 64.59375 
L 8.203125 64.59375 
z
" id="DejaVuSans-55"/>
      </defs>
      <g transform="translate(678.995613 588.874844)scale(0.15 -0.15)">
       <use xlink:href="#DejaVuSans-51"/>
       <use x="63.623047" xlink:href="#DejaVuSans-55"/>
       <use x="127.246094" xlink:href="#DejaVuSans-48"/>
       <use x="190.869141" xlink:href="#DejaVuSans-48"/>
       <use x="254.492188" xlink:href="#DejaVuSans-48"/>
      </g>
     </g>
    </g>
    <g id="xtick_6">
     <g id="line2d_6">
      <g>
       <use style="stroke:#000000;stroke-width:0.8;" x="836.989603" xlink:href="#m72bf7b42f2" y="570.477187"/>
      </g>
     </g>
     <g id="text_6">
      <!-- 37500 -->
      <g transform="translate(813.130228 588.874844)scale(0.15 -0.15)">
       <use xlink:href="#DejaVuSans-51"/>
       <use x="63.623047" xlink:href="#DejaVuSans-55"/>
       <use x="127.246094" xlink:href="#DejaVuSans-53"/>
       <use x="190.869141" xlink:href="#DejaVuSans-48"/>
       <use x="254.492188" xlink:href="#DejaVuSans-48"/>
      </g>
     </g>
    </g>
    <g id="xtick_7">
     <g id="line2d_7">
      <g>
       <use style="stroke:#000000;stroke-width:0.8;" x="971.124219" xlink:href="#m72bf7b42f2" y="570.477187"/>
      </g>
     </g>
     <g id="text_7">
      <!-- 38000 -->
      <defs>
       <path d="M 31.78125 34.625 
Q 24.75 34.625 20.71875 30.859375 
Q 16.703125 27.09375 16.703125 20.515625 
Q 16.703125 13.921875 20.71875 10.15625 
Q 24.75 6.390625 31.78125 6.390625 
Q 38.8125 6.390625 42.859375 10.171875 
Q 46.921875 13.96875 46.921875 20.515625 
Q 46.921875 27.09375 42.890625 30.859375 
Q 38.875 34.625 31.78125 34.625 
z
M 21.921875 38.8125 
Q 15.578125 40.375 12.03125 44.71875 
Q 8.5 49.078125 8.5 55.328125 
Q 8.5 64.0625 14.71875 69.140625 
Q 20.953125 74.21875 31.78125 74.21875 
Q 42.671875 74.21875 48.875 69.140625 
Q 55.078125 64.0625 55.078125 55.328125 
Q 55.078125 49.078125 51.53125 44.71875 
Q 48 40.375 41.703125 38.8125 
Q 48.828125 37.15625 52.796875 32.3125 
Q 56.78125 27.484375 56.78125 20.515625 
Q 56.78125 9.90625 50.3125 4.234375 
Q 43.84375 -1.421875 31.78125 -1.421875 
Q 19.734375 -1.421875 13.25 4.234375 
Q 6.78125 9.90625 6.78125 20.515625 
Q 6.78125 27.484375 10.78125 32.3125 
Q 14.796875 37.15625 21.921875 38.8125 
z
M 18.3125 54.390625 
Q 18.3125 48.734375 21.84375 45.5625 
Q 25.390625 42.390625 31.78125 42.390625 
Q 38.140625 42.390625 41.71875 45.5625 
Q 45.3125 48.734375 45.3125 54.390625 
Q 45.3125 60.0625 41.71875 63.234375 
Q 38.140625 66.40625 31.78125 66.40625 
Q 25.390625 66.40625 21.84375 63.234375 
Q 18.3125 60.0625 18.3125 54.390625 
z
" id="DejaVuSans-56"/>
      </defs>
      <g transform="translate(947.264844 588.874844)scale(0.15 -0.15)">
       <use xlink:href="#DejaVuSans-51"/>
       <use x="63.623047" xlink:href="#DejaVuSans-56"/>
       <use x="127.246094" xlink:href="#DejaVuSans-48"/>
       <use x="190.869141" xlink:href="#DejaVuSans-48"/>
       <use x="254.492188" xlink:href="#DejaVuSans-48"/>
      </g>
     </g>
    </g>
    <g id="xtick_8">
     <g id="line2d_8">
      <g>
       <use style="stroke:#000000;stroke-width:0.8;" x="1105.258834" xlink:href="#m72bf7b42f2" y="570.477187"/>
      </g>
     </g>
     <g id="text_8">
      <!-- 38500 -->
      <g transform="translate(1081.399459 588.874844)scale(0.15 -0.15)">
       <use xlink:href="#DejaVuSans-51"/>
       <use x="63.623047" xlink:href="#DejaVuSans-56"/>
       <use x="127.246094" xlink:href="#DejaVuSans-53"/>
       <use x="190.869141" xlink:href="#DejaVuSans-48"/>
       <use x="254.492188" xlink:href="#DejaVuSans-48"/>
      </g>
     </g>
    </g>
    <g id="text_9">
     <!-- Time in ms -->
     <defs>
      <path d="M -0.296875 72.90625 
L 61.375 72.90625 
L 61.375 64.59375 
L 35.5 64.59375 
L 35.5 0 
L 25.59375 0 
L 25.59375 64.59375 
L -0.296875 64.59375 
z
" id="DejaVuSans-84"/>
      <path d="M 9.421875 54.6875 
L 18.40625 54.6875 
L 18.40625 0 
L 9.421875 0 
z
M 9.421875 75.984375 
L 18.40625 75.984375 
L 18.40625 64.59375 
L 9.421875 64.59375 
z
" id="DejaVuSans-105"/>
      <path d="M 52 44.1875 
Q 55.375 50.25 60.0625 53.125 
Q 64.75 56 71.09375 56 
Q 79.640625 56 84.28125 50.015625 
Q 88.921875 44.046875 88.921875 33.015625 
L 88.921875 0 
L 79.890625 0 
L 79.890625 32.71875 
Q 79.890625 40.578125 77.09375 44.375 
Q 74.3125 48.1875 68.609375 48.1875 
Q 61.625 48.1875 57.5625 43.546875 
Q 53.515625 38.921875 53.515625 30.90625 
L 53.515625 0 
L 44.484375 0 
L 44.484375 32.71875 
Q 44.484375 40.625 41.703125 44.40625 
Q 38.921875 48.1875 33.109375 48.1875 
Q 26.21875 48.1875 22.15625 43.53125 
Q 18.109375 38.875 18.109375 30.90625 
L 18.109375 0 
L 9.078125 0 
L 9.078125 54.6875 
L 18.109375 54.6875 
L 18.109375 46.1875 
Q 21.1875 51.21875 25.484375 53.609375 
Q 29.78125 56 35.6875 56 
Q 41.65625 56 45.828125 52.96875 
Q 50 49.953125 52 44.1875 
z
" id="DejaVuSans-109"/>
      <path d="M 56.203125 29.59375 
L 56.203125 25.203125 
L 14.890625 25.203125 
Q 15.484375 15.921875 20.484375 11.0625 
Q 25.484375 6.203125 34.421875 6.203125 
Q 39.59375 6.203125 44.453125 7.46875 
Q 49.3125 8.734375 54.109375 11.28125 
L 54.109375 2.78125 
Q 49.265625 0.734375 44.1875 -0.34375 
Q 39.109375 -1.421875 33.890625 -1.421875 
Q 20.796875 -1.421875 13.15625 6.1875 
Q 5.515625 13.8125 5.515625 26.8125 
Q 5.515625 40.234375 12.765625 48.109375 
Q 20.015625 56 32.328125 56 
Q 43.359375 56 49.78125 48.890625 
Q 56.203125 41.796875 56.203125 29.59375 
z
M 47.21875 32.234375 
Q 47.125 39.59375 43.09375 43.984375 
Q 39.0625 48.390625 32.421875 48.390625 
Q 24.90625 48.390625 20.390625 44.140625 
Q 15.875 39.890625 15.1875 32.171875 
z
" id="DejaVuSans-101"/>
      <path id="DejaVuSans-32"/>
      <path d="M 54.890625 33.015625 
L 54.890625 0 
L 45.90625 0 
L 45.90625 32.71875 
Q 45.90625 40.484375 42.875 44.328125 
Q 39.84375 48.1875 33.796875 48.1875 
Q 26.515625 48.1875 22.3125 43.546875 
Q 18.109375 38.921875 18.109375 30.90625 
L 18.109375 0 
L 9.078125 0 
L 9.078125 54.6875 
L 18.109375 54.6875 
L 18.109375 46.1875 
Q 21.34375 51.125 25.703125 53.5625 
Q 30.078125 56 35.796875 56 
Q 45.21875 56 50.046875 50.171875 
Q 54.890625 44.34375 54.890625 33.015625 
z
" id="DejaVuSans-110"/>
      <path d="M 44.28125 53.078125 
L 44.28125 44.578125 
Q 40.484375 46.53125 36.375 47.5 
Q 32.28125 48.484375 27.875 48.484375 
Q 21.1875 48.484375 17.84375 46.4375 
Q 14.5 44.390625 14.5 40.28125 
Q 14.5 37.15625 16.890625 35.375 
Q 19.28125 33.59375 26.515625 31.984375 
L 29.59375 31.296875 
Q 39.15625 29.25 43.1875 25.515625 
Q 47.21875 21.78125 47.21875 15.09375 
Q 47.21875 7.46875 41.1875 3.015625 
Q 35.15625 -1.421875 24.609375 -1.421875 
Q 20.21875 -1.421875 15.453125 -0.5625 
Q 10.6875 0.296875 5.421875 2 
L 5.421875 11.28125 
Q 10.40625 8.6875 15.234375 7.390625 
Q 20.0625 6.109375 24.8125 6.109375 
Q 31.15625 6.109375 34.5625 8.28125 
Q 37.984375 10.453125 37.984375 14.40625 
Q 37.984375 18.0625 35.515625 20.015625 
Q 33.0625 21.96875 24.703125 23.78125 
L 21.578125 24.515625 
Q 13.234375 26.265625 9.515625 29.90625 
Q 5.8125 33.546875 5.8125 39.890625 
Q 5.8125 47.609375 11.28125 51.796875 
Q 16.75 56 26.8125 56 
Q 31.78125 56 36.171875 55.265625 
Q 40.578125 54.546875 44.28125 53.078125 
z
" id="DejaVuSans-115"/>
     </defs>
     <g transform="translate(580.976562 607.392031)scale(0.15 -0.15)">
      <use xlink:href="#DejaVuSans-84"/>
      <use x="61.037109" xlink:href="#DejaVuSans-105"/>
      <use x="88.820312" xlink:href="#DejaVuSans-109"/>
      <use x="186.232422" xlink:href="#DejaVuSans-101"/>
      <use x="247.755859" xlink:href="#DejaVuSans-32"/>
      <use x="279.542969" xlink:href="#DejaVuSans-105"/>
      <use x="307.326172" xlink:href="#DejaVuSans-110"/>
      <use x="370.705078" xlink:href="#DejaVuSans-32"/>
      <use x="402.492188" xlink:href="#DejaVuSans-109"/>
      <use x="499.904297" xlink:href="#DejaVuSans-115"/>
     </g>
    </g>
   </g>
   <g id="matplotlib.axis_2">
    <g id="ytick_1">
     <g id="line2d_9">
      <defs>
       <path d="M 0 0 
L -3.5 0 
" id="m221155cc08" style="stroke:#000000;stroke-width:0.8;"/>
      </defs>
      <g>
       <use style="stroke:#000000;stroke-width:0.8;" x="64.374219" xlink:href="#m221155cc08" y="570.477187"/>
      </g>
     </g>
     <g id="text_10">
      <!-- −20 -->
      <defs>
       <path d="M 10.59375 35.5 
L 73.1875 35.5 
L 73.1875 27.203125 
L 10.59375 27.203125 
z
" id="DejaVuSans-8722"/>
       <path d="M 19.1875 8.296875 
L 53.609375 8.296875 
L 53.609375 0 
L 7.328125 0 
L 7.328125 8.296875 
Q 12.9375 14.109375 22.625 23.890625 
Q 32.328125 33.6875 34.8125 36.53125 
Q 39.546875 41.84375 41.421875 45.53125 
Q 43.3125 49.21875 43.3125 52.78125 
Q 43.3125 58.59375 39.234375 62.25 
Q 35.15625 65.921875 28.609375 65.921875 
Q 23.96875 65.921875 18.8125 64.3125 
Q 13.671875 62.703125 7.8125 59.421875 
L 7.8125 69.390625 
Q 13.765625 71.78125 18.9375 73 
Q 24.125 74.21875 28.421875 74.21875 
Q 39.75 74.21875 46.484375 68.546875 
Q 53.21875 62.890625 53.21875 53.421875 
Q 53.21875 48.921875 51.53125 44.890625 
Q 49.859375 40.875 45.40625 35.40625 
Q 44.1875 33.984375 37.640625 27.21875 
Q 31.109375 20.453125 19.1875 8.296875 
z
" id="DejaVuSans-50"/>
      </defs>
      <g transform="translate(25.717187 576.176016)scale(0.15 -0.15)">
       <use xlink:href="#DejaVuSans-8722"/>
       <use x="83.789062" xlink:href="#DejaVuSans-50"/>
       <use x="147.412109" xlink:href="#DejaVuSans-48"/>
      </g>
     </g>
    </g>
    <g id="ytick_2">
     <g id="line2d_10">
      <g>
       <use style="stroke:#000000;stroke-width:0.8;" x="64.374219" xlink:href="#m221155cc08" y="461.757187"/>
      </g>
     </g>
     <g id="text_11">
      <!-- −10 -->
      <defs>
       <path d="M 12.40625 8.296875 
L 28.515625 8.296875 
L 28.515625 63.921875 
L 10.984375 60.40625 
L 10.984375 69.390625 
L 28.421875 72.90625 
L 38.28125 72.90625 
L 38.28125 8.296875 
L 54.390625 8.296875 
L 54.390625 0 
L 12.40625 0 
z
" id="DejaVuSans-49"/>
      </defs>
      <g transform="translate(25.717187 467.456016)scale(0.15 -0.15)">
       <use xlink:href="#DejaVuSans-8722"/>
       <use x="83.789062" xlink:href="#DejaVuSans-49"/>
       <use x="147.412109" xlink:href="#DejaVuSans-48"/>
      </g>
     </g>
    </g>
    <g id="ytick_3">
     <g id="line2d_11">
      <g>
       <use style="stroke:#000000;stroke-width:0.8;" x="64.374219" xlink:href="#m221155cc08" y="353.037187"/>
      </g>
     </g>
     <g id="text_12">
      <!-- 0 -->
      <g transform="translate(47.830469 358.736016)scale(0.15 -0.15)">
       <use xlink:href="#DejaVuSans-48"/>
      </g>
     </g>
    </g>
    <g id="ytick_4">
     <g id="line2d_12">
      <g>
       <use style="stroke:#000000;stroke-width:0.8;" x="64.374219" xlink:href="#m221155cc08" y="244.317187"/>
      </g>
     </g>
     <g id="text_13">
      <!-- 10 -->
      <g transform="translate(38.286719 250.016016)scale(0.15 -0.15)">
       <use xlink:href="#DejaVuSans-49"/>
       <use x="63.623047" xlink:href="#DejaVuSans-48"/>
      </g>
     </g>
    </g>
    <g id="ytick_5">
     <g id="line2d_13">
      <g>
       <use style="stroke:#000000;stroke-width:0.8;" x="64.374219" xlink:href="#m221155cc08" y="135.597187"/>
      </g>
     </g>
     <g id="text_14">
      <!-- 20 -->
      <g transform="translate(38.286719 141.296016)scale(0.15 -0.15)">
       <use xlink:href="#DejaVuSans-50"/>
       <use x="63.623047" xlink:href="#DejaVuSans-48"/>
      </g>
     </g>
    </g>
    <g id="ytick_6">
     <g id="line2d_14">
      <g>
       <use style="stroke:#000000;stroke-width:0.8;" x="64.374219" xlink:href="#m221155cc08" y="26.877187"/>
      </g>
     </g>
     <g id="text_15">
      <!-- 30 -->
      <g transform="translate(38.286719 32.576016)scale(0.15 -0.15)">
       <use xlink:href="#DejaVuSans-51"/>
       <use x="63.623047" xlink:href="#DejaVuSans-48"/>
      </g>
     </g>
    </g>
    <g id="text_16">
     <!-- Vertical movement -->
     <defs>
      <path d="M 28.609375 0 
L 0.78125 72.90625 
L 11.078125 72.90625 
L 34.1875 11.53125 
L 57.328125 72.90625 
L 67.578125 72.90625 
L 39.796875 0 
z
" id="DejaVuSans-86"/>
      <path d="M 41.109375 46.296875 
Q 39.59375 47.171875 37.8125 47.578125 
Q 36.03125 48 33.890625 48 
Q 26.265625 48 22.1875 43.046875 
Q 18.109375 38.09375 18.109375 28.8125 
L 18.109375 0 
L 9.078125 0 
L 9.078125 54.6875 
L 18.109375 54.6875 
L 18.109375 46.1875 
Q 20.953125 51.171875 25.484375 53.578125 
Q 30.03125 56 36.53125 56 
Q 37.453125 56 38.578125 55.875 
Q 39.703125 55.765625 41.0625 55.515625 
z
" id="DejaVuSans-114"/>
      <path d="M 18.3125 70.21875 
L 18.3125 54.6875 
L 36.8125 54.6875 
L 36.8125 47.703125 
L 18.3125 47.703125 
L 18.3125 18.015625 
Q 18.3125 11.328125 20.140625 9.421875 
Q 21.96875 7.515625 27.59375 7.515625 
L 36.8125 7.515625 
L 36.8125 0 
L 27.59375 0 
Q 17.1875 0 13.234375 3.875 
Q 9.28125 7.765625 9.28125 18.015625 
L 9.28125 47.703125 
L 2.6875 47.703125 
L 2.6875 54.6875 
L 9.28125 54.6875 
L 9.28125 70.21875 
z
" id="DejaVuSans-116"/>
      <path d="M 48.78125 52.59375 
L 48.78125 44.1875 
Q 44.96875 46.296875 41.140625 47.34375 
Q 37.3125 48.390625 33.40625 48.390625 
Q 24.65625 48.390625 19.8125 42.84375 
Q 14.984375 37.3125 14.984375 27.296875 
Q 14.984375 17.28125 19.8125 11.734375 
Q 24.65625 6.203125 33.40625 6.203125 
Q 37.3125 6.203125 41.140625 7.25 
Q 44.96875 8.296875 48.78125 10.40625 
L 48.78125 2.09375 
Q 45.015625 0.34375 40.984375 -0.53125 
Q 36.96875 -1.421875 32.421875 -1.421875 
Q 20.0625 -1.421875 12.78125 6.34375 
Q 5.515625 14.109375 5.515625 27.296875 
Q 5.515625 40.671875 12.859375 48.328125 
Q 20.21875 56 33.015625 56 
Q 37.15625 56 41.109375 55.140625 
Q 45.0625 54.296875 48.78125 52.59375 
z
" id="DejaVuSans-99"/>
      <path d="M 34.28125 27.484375 
Q 23.390625 27.484375 19.1875 25 
Q 14.984375 22.515625 14.984375 16.5 
Q 14.984375 11.71875 18.140625 8.90625 
Q 21.296875 6.109375 26.703125 6.109375 
Q 34.1875 6.109375 38.703125 11.40625 
Q 43.21875 16.703125 43.21875 25.484375 
L 43.21875 27.484375 
z
M 52.203125 31.203125 
L 52.203125 0 
L 43.21875 0 
L 43.21875 8.296875 
Q 40.140625 3.328125 35.546875 0.953125 
Q 30.953125 -1.421875 24.3125 -1.421875 
Q 15.921875 -1.421875 10.953125 3.296875 
Q 6 8.015625 6 15.921875 
Q 6 25.140625 12.171875 29.828125 
Q 18.359375 34.515625 30.609375 34.515625 
L 43.21875 34.515625 
L 43.21875 35.40625 
Q 43.21875 41.609375 39.140625 45 
Q 35.0625 48.390625 27.6875 48.390625 
Q 23 48.390625 18.546875 47.265625 
Q 14.109375 46.140625 10.015625 43.890625 
L 10.015625 52.203125 
Q 14.9375 54.109375 19.578125 55.046875 
Q 24.21875 56 28.609375 56 
Q 40.484375 56 46.34375 49.84375 
Q 52.203125 43.703125 52.203125 31.203125 
z
" id="DejaVuSans-97"/>
      <path d="M 9.421875 75.984375 
L 18.40625 75.984375 
L 18.40625 0 
L 9.421875 0 
z
" id="DejaVuSans-108"/>
      <path d="M 30.609375 48.390625 
Q 23.390625 48.390625 19.1875 42.75 
Q 14.984375 37.109375 14.984375 27.296875 
Q 14.984375 17.484375 19.15625 11.84375 
Q 23.34375 6.203125 30.609375 6.203125 
Q 37.796875 6.203125 41.984375 11.859375 
Q 46.1875 17.53125 46.1875 27.296875 
Q 46.1875 37.015625 41.984375 42.703125 
Q 37.796875 48.390625 30.609375 48.390625 
z
M 30.609375 56 
Q 42.328125 56 49.015625 48.375 
Q 55.71875 40.765625 55.71875 27.296875 
Q 55.71875 13.875 49.015625 6.21875 
Q 42.328125 -1.421875 30.609375 -1.421875 
Q 18.84375 -1.421875 12.171875 6.21875 
Q 5.515625 13.875 5.515625 27.296875 
Q 5.515625 40.765625 12.171875 48.375 
Q 18.84375 56 30.609375 56 
z
" id="DejaVuSans-111"/>
      <path d="M 2.984375 54.6875 
L 12.5 54.6875 
L 29.59375 8.796875 
L 46.6875 54.6875 
L 56.203125 54.6875 
L 35.6875 0 
L 23.484375 0 
z
" id="DejaVuSans-118"/>
     </defs>
     <g transform="translate(18.597656 370.270547)rotate(-90)scale(0.15 -0.15)">
      <use xlink:href="#DejaVuSans-86"/>
      <use x="68.298828" xlink:href="#DejaVuSans-101"/>
      <use x="129.822266" xlink:href="#DejaVuSans-114"/>
      <use x="170.935547" xlink:href="#DejaVuSans-116"/>
      <use x="210.144531" xlink:href="#DejaVuSans-105"/>
      <use x="237.927734" xlink:href="#DejaVuSans-99"/>
      <use x="292.908203" xlink:href="#DejaVuSans-97"/>
      <use x="354.1875" xlink:href="#DejaVuSans-108"/>
      <use x="381.970703" xlink:href="#DejaVuSans-32"/>
      <use x="413.757812" xlink:href="#DejaVuSans-109"/>
      <use x="511.169922" xlink:href="#DejaVuSans-111"/>
      <use x="572.351562" xlink:href="#DejaVuSans-118"/>
      <use x="631.53125" xlink:href="#DejaVuSans-101"/>
      <use x="693.054688" xlink:href="#DejaVuSans-109"/>
      <use x="790.466797" xlink:href="#DejaVuSans-101"/>
      <use x="851.990234" xlink:href="#DejaVuSans-110"/>
      <use x="915.369141" xlink:href="#DejaVuSans-116"/>
     </g>
    </g>
   </g>
   <g id="line2d_15">
    <path clip-path="url(#p79f68c04dd)" d="M 64.374219 370.214946 
L 69.739603 369.074474 
L 75.104988 359.020049 
L 85.835757 349.184151 
L 91.201142 344.752724 
L 96.566526 341.840115 
L 101.931911 340.31586 
L 107.297296 337.07383 
L 112.66268 334.665683 
L 118.028065 333.391485 
L 123.39345 334.996191 
L 128.758834 337.97838 
L 134.124219 339.839667 
L 139.489603 343.466566 
L 144.854988 347.731652 
L 150.220373 348.766666 
L 155.585757 351.94129 
L 160.951142 353.198093 
L 166.316526 353.682984 
L 171.681911 355.662775 
L 177.047296 359.876762 
L 182.41268 371.484797 
L 187.778065 382.264385 
L 193.14345 387.457939 
L 198.508834 352.292455 
L 203.874219 339.342817 
L 209.239603 334.007927 
L 214.604988 342.473952 
L 219.970373 348.393756 
L 225.335757 358.840661 
L 230.701142 359.632143 
L 236.066526 357.478399 
L 241.431911 355.119175 
L 246.797296 353.924343 
L 252.16268 350.912799 
L 257.528065 349.791895 
L 262.89345 352.289194 
L 268.258834 354.494035 
L 273.624219 353.301377 
L 278.989603 347.869726 
L 284.354988 346.818404 
L 289.720373 347.697949 
L 295.085757 349.765803 
L 300.451142 351.221563 
L 305.816526 353.452498 
L 311.181911 353.367696 
L 316.547296 354.074376 
L 321.91268 354.412495 
L 327.278065 356.185718 
L 332.64345 357.642567 
L 338.008834 357.830652 
L 343.374219 359.251622 
L 348.739603 361.394494 
L 354.104988 362.981806 
L 359.470373 365.961821 
L 364.835757 370.96729 
L 370.201142 374.598538 
L 375.566526 370.089918 
L 380.931911 361.880472 
L 386.297296 350.986728 
L 391.66268 349.071082 
L 397.028065 347.921911 
L 402.39345 353.909122 
L 418.489603 358.646052 
L 423.854988 363.644997 
L 429.220373 356.715185 
L 434.585757 350.465959 
L 439.951142 343.741628 
L 445.316526 341.399799 
L 450.681911 339.812487 
L 461.41268 339.830969 
L 466.778065 338.567643 
L 477.508834 336.78246 
L 482.874219 335.524571 
L 488.239603 334.122082 
L 493.604988 337.14015 
L 498.970373 341.179097 
L 504.335757 343.276306 
L 509.701142 349.29722 
L 515.066526 355.961755 
L 520.431911 360.59214 
L 525.797296 361.830461 
L 531.16268 355.44751 
L 541.89345 350.12784 
L 547.258834 349.249383 
L 552.624219 373.119945 
L 557.989603 398.869191 
L 563.354988 401.097951 
L 568.720373 391.420783 
L 574.085757 350.992164 
L 579.451142 326.318161 
L 584.816526 321.314866 
L 590.181911 338.356726 
L 595.547296 352.060882 
L 600.91268 369.241903 
L 606.278065 367.478465 
L 611.64345 355.826943 
L 617.008834 347.53813 
L 622.374219 344.405907 
L 627.739603 342.388063 
L 633.104988 349.031943 
L 638.470373 354.229846 
L 643.835757 355.449684 
L 649.201142 353.965656 
L 654.566526 351.099797 
L 659.931911 349.376585 
L 665.297296 351.774948 
L 670.66268 353.337255 
L 676.028065 352.904549 
L 681.39345 350.365937 
L 686.758834 348.54379 
L 692.124219 350.892142 
L 697.489603 352.833881 
L 702.854988 354.081987 
L 708.220373 351.864099 
L 713.585757 350.413774 
L 718.951142 354.491861 
L 724.316526 354.192881 
L 729.681911 354.347263 
L 735.047296 359.033095 
L 740.41268 375.031243 
L 745.778065 380.294378 
L 751.14345 379.745343 
L 756.508834 376.602247 
L 761.874219 366.005308 
L 772.604988 338.838355 
L 777.970373 337.851179 
L 783.335757 347.841459 
L 788.701142 355.813896 
L 794.066526 362.316439 
L 799.431911 368.441723 
L 804.797296 364.608257 
L 810.16268 352.184823 
L 815.528065 343.70575 
L 820.89345 341.021454 
L 826.258834 339.252579 
L 831.624219 342.194542 
L 836.989603 344.511366 
L 842.354988 344.932112 
L 847.720373 344.504842 
L 853.085757 343.426339 
L 858.451142 342.182583 
L 863.816526 343.684006 
L 869.181911 345.664884 
L 874.547296 346.008439 
L 879.91268 344.424389 
L 885.278065 337.347804 
L 890.64345 337.622866 
L 896.008834 344.694015 
L 901.374219 347.737088 
L 906.739603 352.952386 
L 912.104988 353.631886 
L 917.470373 352.314199 
L 922.835757 350.352891 
L 928.201142 350.929107 
L 933.566526 350.084352 
L 938.931911 355.691043 
L 944.297296 376.61638 
L 949.66268 395.139007 
L 955.028065 401.228415 
L 960.39345 381.92083 
L 965.758834 352.563168 
L 971.124219 326.917207 
L 976.489603 318.439223 
L 981.854988 337.485879 
L 987.220373 364.345155 
L 992.585757 372.747036 
L 997.951142 366.154254 
L 1003.316526 353.129599 
L 1008.681911 344.692927 
L 1014.047296 343.393724 
L 1019.41268 347.660984 
L 1024.778065 354.383141 
L 1030.14345 357.808908 
L 1035.508834 356.185718 
L 1040.874219 356.185718 
L 1046.239603 349.71253 
L 1051.604988 350.098486 
L 1056.970373 351.09871 
L 1062.335757 350.842131 
L 1067.701142 351.992388 
L 1073.066526 352.331595 
L 1078.431911 351.716239 
L 1083.797296 351.372684 
L 1089.16268 351.268313 
L 1094.528065 352.545773 
L 1099.89345 354.138521 
L 1105.258834 355.096344 
L 1110.624219 355.200715 
L 1115.989603 355.920442 
L 1121.354988 359.40383 
L 1126.720373 364.577815 
L 1132.085757 366.757651 
L 1137.451142 369.834427 
L 1142.816526 364.675663 
L 1148.181911 360.354043 
L 1153.547296 356.349886 
L 1158.91268 356.206375 
L 1164.278065 363.267739 
L 1169.64345 362.209894 
L 1175.008834 358.63518 
L 1180.374219 351.816262 
L 1180.374219 351.816262 
" style="fill:none;stroke:#1f77b4;stroke-linecap:square;stroke-width:1.5;"/>
   </g>
   <g id="line2d_16">
    <path clip-path="url(#p79f68c04dd)" d="M 64.374219 335.569933 
L 69.739603 330.909803 
L 75.104988 332.522795 
L 80.470373 331.45061 
L 85.835757 328.006842 
L 91.201142 318.410588 
L 96.566526 309.980241 
L 101.931911 307.337163 
L 107.297296 311.571358 
L 112.66268 315.464423 
L 118.028065 321.622402 
L 123.39345 341.110612 
L 128.758834 359.23862 
L 139.489603 420.854078 
L 144.854988 447.303603 
L 150.220373 466.545749 
L 155.585757 483.191988 
L 160.951142 306.564545 
L 166.316526 329.029788 
L 171.681911 338.409057 
L 177.047296 340.095137 
L 182.41268 343.902415 
L 187.778065 337.898944 
L 193.14345 342.86279 
L 198.508834 351.975604 
L 203.874219 351.12795 
L 209.239603 352.265782 
L 214.604988 352.625098 
L 219.970373 342.537131 
L 225.335757 347.503165 
L 230.701142 350.426614 
L 236.066526 351.794012 
L 241.431911 354.362003 
L 246.797296 353.618375 
L 252.16268 354.575612 
L 257.528065 355.320204 
L 262.89345 356.206853 
L 268.258834 354.888477 
L 273.624219 354.750598 
L 278.989603 356.095591 
L 284.354988 354.717503 
L 289.720373 355.045225 
L 295.085757 354.084577 
L 300.451142 352.969544 
L 316.547296 350.639455 
L 321.91268 349.62427 
L 327.278065 345.641974 
L 332.64345 344.436302 
L 348.739603 332.575649 
L 354.104988 323.230741 
L 359.470373 318.922018 
L 364.835757 320.556401 
L 370.201142 304.699156 
L 375.566526 306.868322 
L 380.931911 312.755049 
L 386.297296 309.137563 
L 391.66268 254.41471 
L 397.028065 272.240941 
L 402.39345 311.816828 
L 407.758834 325.000197 
L 413.124219 331.237971 
L 418.489603 336.60384 
L 423.854988 337.733585 
L 429.220373 337.311391 
L 434.585757 333.748879 
L 439.951142 327.602948 
L 445.316526 327.301612 
L 450.681911 318.068443 
L 456.047296 305.845706 
L 461.41268 303.039817 
L 466.778065 306.488172 
L 472.14345 312.06826 
L 477.508834 319.868658 
L 482.874219 323.250492 
L 488.239603 345.977733 
L 493.604988 373.299831 
L 498.970373 415.853136 
L 504.335757 427.512084 
L 509.701142 429.575198 
L 515.066526 425.863505 
L 520.431911 417.536746 
L 525.797296 346.773192 
L 531.16268 307.861353 
L 536.528065 336.642291 
L 541.89345 335.321456 
L 547.258834 330.411266 
L 552.624219 329.522191 
L 557.989603 338.517748 
L 563.354988 351.796024 
L 568.720373 347.41492 
L 574.085757 346.75567 
L 579.451142 348.136256 
L 584.816526 348.966751 
L 590.181911 351.514171 
L 595.547296 352.183188 
L 600.91268 355.298783 
L 606.278065 355.223934 
L 611.64345 356.090054 
L 617.008834 355.189335 
L 622.374219 355.871531 
L 627.739603 356.274621 
L 633.104988 355.316047 
L 638.470373 355.548971 
L 643.835757 355.586246 
L 649.201142 355.787837 
L 654.566526 354.793451 
L 659.931911 352.239208 
L 665.297296 354.05145 
L 670.66268 354.07369 
L 676.028065 354.259201 
L 681.39345 356.289665 
L 686.758834 354.466537 
L 692.124219 354.660321 
L 697.489603 352.923623 
L 702.854988 351.917562 
L 708.220373 349.814415 
L 713.585757 345.713817 
L 718.951142 343.055631 
L 724.316526 333.825148 
L 729.681911 332.582046 
L 735.047296 325.115073 
L 740.41268 317.363671 
L 745.778065 316.940171 
L 751.14345 314.19725 
L 756.508834 315.181699 
L 761.874219 308.162649 
L 767.239603 280.596698 
L 772.604988 263.087859 
L 777.970373 273.158782 
L 783.335757 303.912523 
L 788.701142 311.722337 
L 794.066526 317.123851 
L 799.431911 321.320487 
L 804.797296 323.563119 
L 810.16268 326.296738 
L 815.528065 324.05071 
L 820.89345 323.064919 
L 826.258834 326.884608 
L 836.989603 315.961502 
L 842.354988 323.847232 
L 847.720373 330.539772 
L 853.085757 339.376776 
L 858.451142 345.344164 
L 863.816526 354.453483 
L 869.181911 359.016945 
L 874.547296 380.887512 
L 879.91268 402.235575 
L 885.278065 412.087724 
L 890.64345 414.874199 
L 896.008834 411.436872 
L 901.374219 398.807883 
L 906.739603 422.426895 
L 912.104988 404.209191 
L 917.470373 361.859521 
L 922.835757 321.988508 
L 928.201142 315.228938 
L 933.566526 321.027093 
L 938.931911 330.513665 
L 944.297296 340.413942 
L 949.66268 343.958051 
L 955.028065 354.03343 
L 960.39345 349.583315 
L 965.758834 342.713518 
L 971.124219 350.997837 
L 976.489603 352.141456 
L 981.854988 354.192615 
L 987.220373 354.417951 
L 992.585757 355.433758 
L 997.951142 354.647319 
L 1003.316526 355.325814 
L 1008.681911 354.778168 
L 1014.047296 351.137364 
L 1019.41268 353.596601 
L 1024.778065 354.184995 
L 1030.14345 355.08504 
L 1035.508834 356.20845 
L 1040.874219 356.2822 
L 1046.239603 356.05336 
L 1051.604988 355.517991 
L 1056.970373 355.616625 
L 1062.335757 355.070047 
L 1067.701142 354.22146 
L 1073.066526 354.20991 
L 1078.431911 353.388032 
L 1083.797296 352.856478 
L 1089.16268 351.961212 
L 1094.528065 349.37854 
L 1099.89345 349.106744 
L 1105.258834 346.439715 
L 1110.624219 342.998419 
L 1115.989603 339.206642 
L 1121.354988 335.143878 
L 1126.720373 331.588996 
L 1132.085757 330.742919 
L 1137.451142 323.808791 
L 1142.816526 314.157981 
L 1148.181911 313.839454 
L 1153.547296 320.540999 
L 1158.91268 312.434076 
L 1164.278065 277.568743 
L 1169.64345 298.408214 
L 1175.008834 310.358602 
L 1180.374219 317.609115 
L 1180.374219 317.609115 
" style="fill:none;stroke:#ff7f0e;stroke-linecap:square;stroke-width:1.5;"/>
   </g>
   <g id="line2d_17">
    <path clip-path="url(#p79f68c04dd)" d="M 64.374219 353.019644 
L 69.739603 353.596425 
L 75.104988 353.421418 
L 80.470373 352.340518 
L 85.835757 352.827934 
L 91.201142 351.957791 
L 96.566526 352.363587 
L 101.931911 352.645233 
L 112.66268 352.000581 
L 118.028065 352.148755 
L 123.39345 350.443027 
L 128.758834 344.728295 
L 134.124219 344.115028 
L 139.489603 343.098515 
L 144.854988 343.235621 
L 150.220373 333.772918 
L 155.585757 323.654375 
L 160.951142 328.064323 
L 166.316526 312.04209 
L 171.681911 298.448691 
L 177.047296 279.50319 
L 182.41268 239.796512 
L 187.778065 118.584965 
L 193.14345 223.018189 
L 198.508834 308.958627 
L 203.874219 317.97238 
L 209.239603 308.123662 
L 214.604988 304.363661 
L 219.970373 306.530765 
L 225.335757 310.176115 
L 230.701142 317.059375 
L 236.066526 328.666222 
L 241.431911 322.459236 
L 246.797296 281.877355 
L 252.16268 264.848046 
L 257.528065 310.047728 
L 262.89345 347.610861 
L 268.258834 334.544649 
L 273.624219 347.521932 
L 278.989603 367.365414 
L 284.354988 434.907471 
L 289.720373 505.70516 
L 295.085757 486.236441 
L 300.451142 517.48345 
L 305.816526 208.119516 
L 311.181911 391.424945 
L 316.547296 343.805874 
L 321.91268 298.122647 
L 327.278065 303.493772 
L 332.64345 330.471797 
L 338.008834 337.015084 
L 343.374219 339.12075 
L 348.739603 349.742853 
L 354.104988 350.382134 
L 359.470373 351.6732 
L 364.835757 352.315592 
L 370.201142 351.278529 
L 375.566526 355.706156 
L 380.931911 353.878703 
L 386.297296 355.146369 
L 391.66268 351.393037 
L 397.028065 350.74262 
L 402.39345 352.630614 
L 407.758834 352.851957 
L 413.124219 351.483076 
L 418.489603 351.84715 
L 423.854988 353.191489 
L 429.220373 353.221423 
L 434.585757 352.793583 
L 439.951142 352.740933 
L 445.316526 352.933234 
L 456.047296 352.274533 
L 461.41268 352.2919 
L 466.778065 352.763608 
L 472.14345 351.098504 
L 477.508834 350.268663 
L 482.874219 349.613818 
L 488.239603 347.73214 
L 493.604988 344.817369 
L 498.970373 344.207078 
L 504.335757 339.678914 
L 509.701142 328.320957 
L 515.066526 329.324633 
L 520.431911 313.528683 
L 525.797296 302.475295 
L 531.16268 292.502816 
L 536.528065 267.697956 
L 541.89345 243.561236 
L 547.258834 86.490625 
L 552.624219 167.148938 
L 557.989603 307.684977 
L 563.354988 330.195996 
L 568.720373 308.055337 
L 574.085757 296.744624 
L 579.451142 301.915141 
L 584.816526 313.411449 
L 590.181911 333.201928 
L 595.547296 344.984232 
L 600.91268 326.647219 
L 606.278065 322.108045 
L 611.64345 326.822588 
L 617.008834 296.718005 
L 622.374219 333.795391 
L 627.739603 372.690856 
L 633.104988 380.403703 
L 638.470373 378.639125 
L 643.835757 393.64875 
L 649.201142 380.531338 
L 654.566526 411.795741 
L 659.931911 494.101387 
L 665.297296 478.618833 
L 670.66268 525.629894 
L 676.028065 366.688434 
L 681.39345 361.259971 
L 686.758834 322.188234 
L 692.124219 294.461167 
L 697.489603 304.33283 
L 702.854988 342.576386 
L 708.220373 346.377567 
L 713.585757 338.612183 
L 718.951142 337.513304 
L 724.316526 350.657662 
L 729.681911 351.45954 
L 735.047296 350.127539 
L 740.41268 351.307934 
L 745.778065 350.994167 
L 751.14345 354.084131 
L 756.508834 352.5624 
L 761.874219 352.624154 
L 767.239603 353.612092 
L 772.604988 352.241997 
L 777.970373 353.135666 
L 783.335757 353.197762 
L 788.701142 352.997601 
L 794.066526 353.065815 
L 799.431911 353.70633 
L 810.16268 352.072548 
L 820.89345 353.462611 
L 826.258834 353.028893 
L 831.624219 353.64553 
L 836.989603 353.812232 
L 842.354988 353.824881 
L 847.720373 353.056981 
L 853.085757 352.496395 
L 858.451142 353.098578 
L 863.816526 351.213613 
L 869.181911 351.218631 
L 874.547296 349.772299 
L 879.91268 347.910569 
L 885.278065 335.053492 
L 890.64345 347.889111 
L 896.008834 342.721377 
L 901.374219 341.621404 
L 906.739603 337.536524 
L 912.104988 321.331103 
L 917.470373 311.009616 
L 922.835757 302.329588 
L 928.201142 301.046593 
L 933.566526 279.874357 
L 938.931911 76.609956 
L 944.297296 215.449429 
L 949.66268 293.600327 
L 955.028065 289.624312 
L 960.39345 269.185898 
L 965.758834 286.113026 
L 971.124219 306.952145 
L 976.489603 311.547489 
L 981.854988 318.748943 
L 987.220373 316.685151 
L 992.585757 314.345316 
L 997.951142 310.55682 
L 1003.316526 297.666722 
L 1008.681911 288.495646 
L 1014.047296 298.992138 
L 1019.41268 321.940918 
L 1024.778065 327.532764 
L 1030.14345 348.516142 
L 1035.508834 379.258624 
L 1040.874219 421.311333 
L 1046.239603 486.252912 
L 1051.604988 483.203327 
L 1056.970373 444.715991 
L 1062.335757 530.551877 
L 1067.701142 283.059356 
L 1073.066526 372.085625 
L 1078.431911 398.811326 
L 1083.797296 275.051777 
L 1089.16268 302.374893 
L 1094.528065 317.77755 
L 1099.89345 330.715982 
L 1105.258834 333.493319 
L 1110.624219 342.931398 
L 1115.989603 347.11879 
L 1121.354988 348.599296 
L 1126.720373 353.575637 
L 1132.085757 352.40222 
L 1137.451142 351.452437 
L 1142.816526 352.777989 
L 1148.181911 351.050592 
L 1153.547296 352.007777 
L 1158.91268 353.309709 
L 1164.278065 352.597787 
L 1169.64345 353.104437 
L 1175.008834 352.221686 
L 1180.374219 353.541753 
L 1180.374219 353.541753 
" style="fill:none;stroke:#2ca02c;stroke-linecap:square;stroke-width:1.5;"/>
   </g>
   <g id="line2d_18">
    <path clip-path="url(#p79f68c04dd)" d="M 64.374219 356.747792 
L 69.739603 357.852719 
L 75.104988 358.838861 
L 80.470373 358.483266 
L 85.835757 358.503569 
L 91.201142 358.223115 
L 96.566526 357.274544 
L 101.931911 357.182514 
L 107.297296 356.29751 
L 112.66268 356.063735 
L 118.028065 356.943426 
L 128.758834 356.621227 
L 134.124219 355.876829 
L 139.489603 355.551594 
L 144.854988 354.617064 
L 150.220373 355.124462 
L 160.951142 356.563353 
L 166.316526 357.702056 
L 171.681911 358.357649 
L 177.047296 359.172825 
L 182.41268 359.163527 
L 187.778065 357.941333 
L 193.14345 355.134329 
L 198.508834 349.86529 
L 203.874219 346.877262 
L 209.239603 346.155634 
L 214.604988 346.563602 
L 219.970373 347.107052 
L 225.335757 348.417291 
L 230.701142 348.844423 
L 236.066526 350.170601 
L 241.431911 351.880648 
L 246.797296 353.324852 
L 252.16268 353.392024 
L 257.528065 353.183297 
L 262.89345 352.672484 
L 273.624219 350.513293 
L 278.989603 350.184453 
L 284.354988 350.479897 
L 289.720373 351.195073 
L 295.085757 351.614615 
L 300.451142 352.32277 
L 305.816526 352.905689 
L 311.181911 353.046675 
L 316.547296 352.818593 
L 327.278065 352.079318 
L 332.64345 352.140608 
L 338.008834 351.660156 
L 348.739603 348.341579 
L 354.104988 345.849564 
L 359.470373 344.47443 
L 364.835757 344.423007 
L 370.201142 345.965123 
L 375.566526 350.537582 
L 380.931911 351.663761 
L 386.297296 353.445914 
L 391.66268 352.778176 
L 397.028065 353.141172 
L 402.39345 352.807398 
L 407.758834 353.783483 
L 413.124219 355.089358 
L 418.489603 355.848935 
L 423.854988 356.958796 
L 429.220373 357.586686 
L 434.585757 358.423683 
L 439.951142 358.092566 
L 450.681911 356.451209 
L 456.047296 355.904913 
L 461.41268 356.235271 
L 466.778065 356.238307 
L 472.14345 356.804528 
L 477.508834 356.847981 
L 482.874219 356.095044 
L 488.239603 355.79979 
L 493.604988 355.839448 
L 504.335757 355.613643 
L 509.701142 355.911933 
L 515.066526 356.449311 
L 520.431911 356.553675 
L 525.797296 356.821605 
L 531.16268 357.848165 
L 536.528065 359.228801 
L 541.89345 361.120252 
L 547.258834 362.283243 
L 552.624219 361.002795 
L 557.989603 358.469603 
L 563.354988 353.364131 
L 568.720373 349.058843 
L 574.085757 345.482204 
L 579.451142 342.653378 
L 584.816526 343.921492 
L 590.181911 348.033422 
L 595.547296 350.350866 
L 600.91268 353.526938 
L 606.278065 353.488039 
L 611.64345 350.261303 
L 617.008834 347.995472 
L 622.374219 346.922423 
L 627.739603 345.539129 
L 633.104988 345.36285 
L 643.835757 345.869867 
L 649.201142 346.3581 
L 654.566526 347.279347 
L 659.931911 348.95372 
L 665.297296 349.81121 
L 670.66268 350.347071 
L 676.028065 351.308735 
L 681.39345 352.122202 
L 686.758834 353.434908 
L 692.124219 353.744773 
L 697.489603 353.621055 
L 708.220373 354.02314 
L 713.585757 351.115757 
L 718.951142 348.73209 
L 724.316526 346.644436 
L 729.681911 345.011618 
L 735.047296 341.397978 
L 740.41268 341.827576 
L 745.778065 344.16058 
L 751.14345 348.053346 
L 756.508834 352.291841 
L 761.874219 353.053886 
L 767.239603 351.998104 
L 772.604988 351.923342 
L 783.335757 353.188989 
L 788.701142 354.324466 
L 794.066526 354.619341 
L 799.431911 355.192583 
L 804.797296 356.479672 
L 810.16268 355.833376 
L 815.528065 355.667153 
L 820.89345 355.194291 
L 826.258834 354.94211 
L 836.989603 355.478919 
L 842.354988 355.956525 
L 847.720373 356.592954 
L 858.451142 359.034306 
L 863.816526 360.153654 
L 869.181911 360.110201 
L 874.547296 359.386296 
L 879.91268 358.516851 
L 885.278065 357.532037 
L 890.64345 357.778715 
L 896.008834 358.259547 
L 901.374219 358.313057 
L 912.104988 358.08934 
L 917.470373 358.951384 
L 922.835757 360.276993 
L 928.201142 361.915882 
L 938.931911 362.82878 
L 944.297296 361.84131 
L 949.66268 359.322349 
L 955.028065 355.895235 
L 960.39345 350.73815 
L 965.758834 347.649743 
L 971.124219 347.692817 
L 976.489603 348.343477 
L 981.854988 349.355046 
L 987.220373 349.737017 
L 992.585757 349.967566 
L 997.951142 349.799635 
L 1003.316526 349.84252 
L 1008.681911 349.704 
L 1014.047296 349.341384 
L 1024.778065 349.133226 
L 1030.14345 349.19888 
L 1035.508834 348.974403 
L 1040.874219 349.026964 
L 1046.239603 350.034169 
L 1051.604988 350.667183 
L 1056.970373 351.859585 
L 1062.335757 352.864893 
L 1067.701142 354.662794 
L 1073.066526 355.354252 
L 1078.431911 355.325978 
L 1083.797296 354.848182 
L 1089.16268 353.742117 
L 1099.89345 351.195642 
L 1105.258834 350.264339 
L 1110.624219 350.058647 
L 1115.989603 349.537208 
L 1121.354988 348.06549 
L 1126.720373 345.289985 
L 1132.085757 343.994357 
L 1137.451142 346.136279 
L 1142.816526 349.560548 
L 1148.181911 353.304548 
L 1153.547296 355.213455 
L 1158.91268 354.9034 
L 1164.278065 352.436053 
L 1169.64345 352.485768 
L 1175.008834 352.961476 
L 1180.374219 354.687842 
L 1180.374219 354.687842 
" style="fill:none;stroke:#d62728;stroke-linecap:square;stroke-width:1.5;"/>
   </g>
   <g id="patch_3">
    <path d="M 64.374219 570.477187 
L 64.374219 26.877187 
" style="fill:none;stroke:#000000;stroke-linecap:square;stroke-linejoin:miter;stroke-width:0.8;"/>
   </g>
   <g id="patch_4">
    <path d="M 1180.374219 570.477187 
L 1180.374219 26.877187 
" style="fill:none;stroke:#000000;stroke-linecap:square;stroke-linejoin:miter;stroke-width:0.8;"/>
   </g>
   <g id="patch_5">
    <path d="M 64.374219 570.477187 
L 1180.374219 570.477187 
" style="fill:none;stroke:#000000;stroke-linecap:square;stroke-linejoin:miter;stroke-width:0.8;"/>
   </g>
   <g id="patch_6">
    <path d="M 64.374219 26.877187 
L 1180.374219 26.877187 
" style="fill:none;stroke:#000000;stroke-linecap:square;stroke-linejoin:miter;stroke-width:0.8;"/>
   </g>
   <g id="text_17">
    <!-- Extract of measured movement during the normal gait measurement -->
    <defs>
     <path d="M 9.8125 72.90625 
L 55.90625 72.90625 
L 55.90625 64.59375 
L 19.671875 64.59375 
L 19.671875 43.015625 
L 54.390625 43.015625 
L 54.390625 34.71875 
L 19.671875 34.71875 
L 19.671875 8.296875 
L 56.78125 8.296875 
L 56.78125 0 
L 9.8125 0 
z
" id="DejaVuSans-69"/>
     <path d="M 54.890625 54.6875 
L 35.109375 28.078125 
L 55.90625 0 
L 45.3125 0 
L 29.390625 21.484375 
L 13.484375 0 
L 2.875 0 
L 24.125 28.609375 
L 4.6875 54.6875 
L 15.28125 54.6875 
L 29.78125 35.203125 
L 44.28125 54.6875 
z
" id="DejaVuSans-120"/>
     <path d="M 37.109375 75.984375 
L 37.109375 68.5 
L 28.515625 68.5 
Q 23.6875 68.5 21.796875 66.546875 
Q 19.921875 64.59375 19.921875 59.515625 
L 19.921875 54.6875 
L 34.71875 54.6875 
L 34.71875 47.703125 
L 19.921875 47.703125 
L 19.921875 0 
L 10.890625 0 
L 10.890625 47.703125 
L 2.296875 47.703125 
L 2.296875 54.6875 
L 10.890625 54.6875 
L 10.890625 58.5 
Q 10.890625 67.625 15.140625 71.796875 
Q 19.390625 75.984375 28.609375 75.984375 
z
" id="DejaVuSans-102"/>
     <path d="M 8.5 21.578125 
L 8.5 54.6875 
L 17.484375 54.6875 
L 17.484375 21.921875 
Q 17.484375 14.15625 20.5 10.265625 
Q 23.53125 6.390625 29.59375 6.390625 
Q 36.859375 6.390625 41.078125 11.03125 
Q 45.3125 15.671875 45.3125 23.6875 
L 45.3125 54.6875 
L 54.296875 54.6875 
L 54.296875 0 
L 45.3125 0 
L 45.3125 8.40625 
Q 42.046875 3.421875 37.71875 1 
Q 33.40625 -1.421875 27.6875 -1.421875 
Q 18.265625 -1.421875 13.375 4.4375 
Q 8.5 10.296875 8.5 21.578125 
z
M 31.109375 56 
z
" id="DejaVuSans-117"/>
     <path d="M 45.40625 46.390625 
L 45.40625 75.984375 
L 54.390625 75.984375 
L 54.390625 0 
L 45.40625 0 
L 45.40625 8.203125 
Q 42.578125 3.328125 38.25 0.953125 
Q 33.9375 -1.421875 27.875 -1.421875 
Q 17.96875 -1.421875 11.734375 6.484375 
Q 5.515625 14.40625 5.515625 27.296875 
Q 5.515625 40.1875 11.734375 48.09375 
Q 17.96875 56 27.875 56 
Q 33.9375 56 38.25 53.625 
Q 42.578125 51.265625 45.40625 46.390625 
z
M 14.796875 27.296875 
Q 14.796875 17.390625 18.875 11.75 
Q 22.953125 6.109375 30.078125 6.109375 
Q 37.203125 6.109375 41.296875 11.75 
Q 45.40625 17.390625 45.40625 27.296875 
Q 45.40625 37.203125 41.296875 42.84375 
Q 37.203125 48.484375 30.078125 48.484375 
Q 22.953125 48.484375 18.875 42.84375 
Q 14.796875 37.203125 14.796875 27.296875 
z
" id="DejaVuSans-100"/>
     <path d="M 45.40625 27.984375 
Q 45.40625 37.75 41.375 43.109375 
Q 37.359375 48.484375 30.078125 48.484375 
Q 22.859375 48.484375 18.828125 43.109375 
Q 14.796875 37.75 14.796875 27.984375 
Q 14.796875 18.265625 18.828125 12.890625 
Q 22.859375 7.515625 30.078125 7.515625 
Q 37.359375 7.515625 41.375 12.890625 
Q 45.40625 18.265625 45.40625 27.984375 
z
M 54.390625 6.78125 
Q 54.390625 -7.171875 48.1875 -13.984375 
Q 42 -20.796875 29.203125 -20.796875 
Q 24.46875 -20.796875 20.265625 -20.09375 
Q 16.0625 -19.390625 12.109375 -17.921875 
L 12.109375 -9.1875 
Q 16.0625 -11.328125 19.921875 -12.34375 
Q 23.78125 -13.375 27.78125 -13.375 
Q 36.625 -13.375 41.015625 -8.765625 
Q 45.40625 -4.15625 45.40625 5.171875 
L 45.40625 9.625 
Q 42.625 4.78125 38.28125 2.390625 
Q 33.9375 0 27.875 0 
Q 17.828125 0 11.671875 7.65625 
Q 5.515625 15.328125 5.515625 27.984375 
Q 5.515625 40.671875 11.671875 48.328125 
Q 17.828125 56 27.875 56 
Q 33.9375 56 38.28125 53.609375 
Q 42.625 51.21875 45.40625 46.390625 
L 45.40625 54.6875 
L 54.390625 54.6875 
z
" id="DejaVuSans-103"/>
     <path d="M 54.890625 33.015625 
L 54.890625 0 
L 45.90625 0 
L 45.90625 32.71875 
Q 45.90625 40.484375 42.875 44.328125 
Q 39.84375 48.1875 33.796875 48.1875 
Q 26.515625 48.1875 22.3125 43.546875 
Q 18.109375 38.921875 18.109375 30.90625 
L 18.109375 0 
L 9.078125 0 
L 9.078125 75.984375 
L 18.109375 75.984375 
L 18.109375 46.1875 
Q 21.34375 51.125 25.703125 53.5625 
Q 30.078125 56 35.796875 56 
Q 45.21875 56 50.046875 50.171875 
Q 54.890625 44.34375 54.890625 33.015625 
z
" id="DejaVuSans-104"/>
    </defs>
    <g transform="translate(309.011094 20.877187)scale(0.18 -0.18)">
     <use xlink:href="#DejaVuSans-69"/>
     <use x="63.183594" xlink:href="#DejaVuSans-120"/>
     <use x="122.363281" xlink:href="#DejaVuSans-116"/>
     <use x="161.572266" xlink:href="#DejaVuSans-114"/>
     <use x="202.685547" xlink:href="#DejaVuSans-97"/>
     <use x="263.964844" xlink:href="#DejaVuSans-99"/>
     <use x="318.945312" xlink:href="#DejaVuSans-116"/>
     <use x="358.154297" xlink:href="#DejaVuSans-32"/>
     <use x="389.941406" xlink:href="#DejaVuSans-111"/>
     <use x="451.123047" xlink:href="#DejaVuSans-102"/>
     <use x="486.328125" xlink:href="#DejaVuSans-32"/>
     <use x="518.115234" xlink:href="#DejaVuSans-109"/>
     <use x="615.527344" xlink:href="#DejaVuSans-101"/>
     <use x="677.050781" xlink:href="#DejaVuSans-97"/>
     <use x="738.330078" xlink:href="#DejaVuSans-115"/>
     <use x="790.429688" xlink:href="#DejaVuSans-117"/>
     <use x="853.808594" xlink:href="#DejaVuSans-114"/>
     <use x="894.890625" xlink:href="#DejaVuSans-101"/>
     <use x="956.414062" xlink:href="#DejaVuSans-100"/>
     <use x="1019.890625" xlink:href="#DejaVuSans-32"/>
     <use x="1051.677734" xlink:href="#DejaVuSans-109"/>
     <use x="1149.089844" xlink:href="#DejaVuSans-111"/>
     <use x="1210.271484" xlink:href="#DejaVuSans-118"/>
     <use x="1269.451172" xlink:href="#DejaVuSans-101"/>
     <use x="1330.974609" xlink:href="#DejaVuSans-109"/>
     <use x="1428.386719" xlink:href="#DejaVuSans-101"/>
     <use x="1489.910156" xlink:href="#DejaVuSans-110"/>
     <use x="1553.289062" xlink:href="#DejaVuSans-116"/>
     <use x="1592.498047" xlink:href="#DejaVuSans-32"/>
     <use x="1624.285156" xlink:href="#DejaVuSans-100"/>
     <use x="1687.761719" xlink:href="#DejaVuSans-117"/>
     <use x="1751.140625" xlink:href="#DejaVuSans-114"/>
     <use x="1792.253906" xlink:href="#DejaVuSans-105"/>
     <use x="1820.037109" xlink:href="#DejaVuSans-110"/>
     <use x="1883.416016" xlink:href="#DejaVuSans-103"/>
     <use x="1946.892578" xlink:href="#DejaVuSans-32"/>
     <use x="1978.679688" xlink:href="#DejaVuSans-116"/>
     <use x="2017.888672" xlink:href="#DejaVuSans-104"/>
     <use x="2081.267578" xlink:href="#DejaVuSans-101"/>
     <use x="2142.791016" xlink:href="#DejaVuSans-32"/>
     <use x="2174.578125" xlink:href="#DejaVuSans-110"/>
     <use x="2237.957031" xlink:href="#DejaVuSans-111"/>
     <use x="2299.138672" xlink:href="#DejaVuSans-114"/>
     <use x="2340.236328" xlink:href="#DejaVuSans-109"/>
     <use x="2437.648438" xlink:href="#DejaVuSans-97"/>
     <use x="2498.927734" xlink:href="#DejaVuSans-108"/>
     <use x="2526.710938" xlink:href="#DejaVuSans-32"/>
     <use x="2558.498047" xlink:href="#DejaVuSans-103"/>
     <use x="2621.974609" xlink:href="#DejaVuSans-97"/>
     <use x="2683.253906" xlink:href="#DejaVuSans-105"/>
     <use x="2711.037109" xlink:href="#DejaVuSans-116"/>
     <use x="2750.246094" xlink:href="#DejaVuSans-32"/>
     <use x="2782.033203" xlink:href="#DejaVuSans-109"/>
     <use x="2879.445312" xlink:href="#DejaVuSans-101"/>
     <use x="2940.96875" xlink:href="#DejaVuSans-97"/>
     <use x="3002.248047" xlink:href="#DejaVuSans-115"/>
     <use x="3054.347656" xlink:href="#DejaVuSans-117"/>
     <use x="3117.726562" xlink:href="#DejaVuSans-114"/>
     <use x="3158.808594" xlink:href="#DejaVuSans-101"/>
     <use x="3220.332031" xlink:href="#DejaVuSans-109"/>
     <use x="3317.744141" xlink:href="#DejaVuSans-101"/>
     <use x="3379.267578" xlink:href="#DejaVuSans-110"/>
     <use x="3442.646484" xlink:href="#DejaVuSans-116"/>
    </g>
   </g>
   <g id="legend_1">
    <g id="patch_7">
     <path d="M 827.75 126.945937 
L 1169.874219 126.945937 
Q 1172.874219 126.945937 1172.874219 123.945937 
L 1172.874219 37.377187 
Q 1172.874219 34.377187 1169.874219 34.377187 
L 827.75 34.377187 
Q 824.75 34.377187 824.75 37.377187 
L 824.75 123.945937 
Q 824.75 126.945937 827.75 126.945937 
z
" style="fill:#ffffff;opacity:0.8;stroke:#cccccc;stroke-linejoin:miter;"/>
    </g>
    <g id="line2d_19">
     <path d="M 830.75 46.524844 
L 860.75 46.524844 
" style="fill:none;stroke:#1f77b4;stroke-linecap:square;stroke-width:1.5;"/>
    </g>
    <g id="line2d_20"/>
    <g id="text_18">
     <!-- Vertical Acceleration Hip in m/s² -->
     <defs>
      <path d="M 34.1875 63.1875 
L 20.796875 26.90625 
L 47.609375 26.90625 
z
M 28.609375 72.90625 
L 39.796875 72.90625 
L 67.578125 0 
L 57.328125 0 
L 50.6875 18.703125 
L 17.828125 18.703125 
L 11.1875 0 
L 0.78125 0 
z
" id="DejaVuSans-65"/>
      <path d="M 9.8125 72.90625 
L 19.671875 72.90625 
L 19.671875 43.015625 
L 55.515625 43.015625 
L 55.515625 72.90625 
L 65.375 72.90625 
L 65.375 0 
L 55.515625 0 
L 55.515625 34.71875 
L 19.671875 34.71875 
L 19.671875 0 
L 9.8125 0 
z
" id="DejaVuSans-72"/>
      <path d="M 18.109375 8.203125 
L 18.109375 -20.796875 
L 9.078125 -20.796875 
L 9.078125 54.6875 
L 18.109375 54.6875 
L 18.109375 46.390625 
Q 20.953125 51.265625 25.265625 53.625 
Q 29.59375 56 35.59375 56 
Q 45.5625 56 51.78125 48.09375 
Q 58.015625 40.1875 58.015625 27.296875 
Q 58.015625 14.40625 51.78125 6.484375 
Q 45.5625 -1.421875 35.59375 -1.421875 
Q 29.59375 -1.421875 25.265625 0.953125 
Q 20.953125 3.328125 18.109375 8.203125 
z
M 48.6875 27.296875 
Q 48.6875 37.203125 44.609375 42.84375 
Q 40.53125 48.484375 33.40625 48.484375 
Q 26.265625 48.484375 22.1875 42.84375 
Q 18.109375 37.203125 18.109375 27.296875 
Q 18.109375 17.390625 22.1875 11.75 
Q 26.265625 6.109375 33.40625 6.109375 
Q 40.53125 6.109375 44.609375 11.75 
Q 48.6875 17.390625 48.6875 27.296875 
z
" id="DejaVuSans-112"/>
      <path d="M 25.390625 72.90625 
L 33.6875 72.90625 
L 8.296875 -9.28125 
L 0 -9.28125 
z
" id="DejaVuSans-47"/>
      <path d="M 13.09375 38.1875 
L 33.796875 38.1875 
L 33.796875 32.625 
L 4.59375 32.625 
L 4.59375 37.984375 
Q 6.25 39.5 9.328125 42.234375 
Q 26.125 57.125 26.125 61.71875 
Q 26.125 64.9375 23.578125 66.90625 
Q 21.046875 68.890625 16.890625 68.890625 
Q 14.359375 68.890625 11.375 68.03125 
Q 8.40625 67.1875 4.890625 65.484375 
L 4.890625 71.484375 
Q 8.640625 72.859375 11.890625 73.53125 
Q 15.140625 74.21875 17.921875 74.21875 
Q 25 74.21875 29.25 71 
Q 33.5 67.78125 33.5 62.5 
Q 33.5 55.71875 17.328125 41.84375 
Q 14.59375 39.5 13.09375 38.1875 
z
" id="DejaVuSans-178"/>
     </defs>
     <g transform="translate(872.75 51.774844)scale(0.15 -0.15)">
      <use xlink:href="#DejaVuSans-86"/>
      <use x="68.298828" xlink:href="#DejaVuSans-101"/>
      <use x="129.822266" xlink:href="#DejaVuSans-114"/>
      <use x="170.935547" xlink:href="#DejaVuSans-116"/>
      <use x="210.144531" xlink:href="#DejaVuSans-105"/>
      <use x="237.927734" xlink:href="#DejaVuSans-99"/>
      <use x="292.908203" xlink:href="#DejaVuSans-97"/>
      <use x="354.1875" xlink:href="#DejaVuSans-108"/>
      <use x="381.970703" xlink:href="#DejaVuSans-32"/>
      <use x="413.757812" xlink:href="#DejaVuSans-65"/>
      <use x="482.150391" xlink:href="#DejaVuSans-99"/>
      <use x="537.130859" xlink:href="#DejaVuSans-99"/>
      <use x="592.111328" xlink:href="#DejaVuSans-101"/>
      <use x="653.634766" xlink:href="#DejaVuSans-108"/>
      <use x="681.417969" xlink:href="#DejaVuSans-101"/>
      <use x="742.941406" xlink:href="#DejaVuSans-114"/>
      <use x="784.054688" xlink:href="#DejaVuSans-97"/>
      <use x="845.333984" xlink:href="#DejaVuSans-116"/>
      <use x="884.542969" xlink:href="#DejaVuSans-105"/>
      <use x="912.326172" xlink:href="#DejaVuSans-111"/>
      <use x="973.507812" xlink:href="#DejaVuSans-110"/>
      <use x="1036.886719" xlink:href="#DejaVuSans-32"/>
      <use x="1068.673828" xlink:href="#DejaVuSans-72"/>
      <use x="1143.869141" xlink:href="#DejaVuSans-105"/>
      <use x="1171.652344" xlink:href="#DejaVuSans-112"/>
      <use x="1235.128906" xlink:href="#DejaVuSans-32"/>
      <use x="1266.916016" xlink:href="#DejaVuSans-105"/>
      <use x="1294.699219" xlink:href="#DejaVuSans-110"/>
      <use x="1358.078125" xlink:href="#DejaVuSans-32"/>
      <use x="1389.865234" xlink:href="#DejaVuSans-109"/>
      <use x="1487.277344" xlink:href="#DejaVuSans-47"/>
      <use x="1520.96875" xlink:href="#DejaVuSans-115"/>
      <use x="1573.068359" xlink:href="#DejaVuSans-178"/>
     </g>
    </g>
    <g id="line2d_21">
     <path d="M 830.75 68.542031 
L 860.75 68.542031 
" style="fill:none;stroke:#ff7f0e;stroke-linecap:square;stroke-width:1.5;"/>
    </g>
    <g id="line2d_22"/>
    <g id="text_19">
     <!-- Vertical Acceleration Left Foot in m/s² -->
     <defs>
      <path d="M 9.8125 72.90625 
L 19.671875 72.90625 
L 19.671875 8.296875 
L 55.171875 8.296875 
L 55.171875 0 
L 9.8125 0 
z
" id="DejaVuSans-76"/>
      <path d="M 9.8125 72.90625 
L 51.703125 72.90625 
L 51.703125 64.59375 
L 19.671875 64.59375 
L 19.671875 43.109375 
L 48.578125 43.109375 
L 48.578125 34.8125 
L 19.671875 34.8125 
L 19.671875 0 
L 9.8125 0 
z
" id="DejaVuSans-70"/>
     </defs>
     <g transform="translate(872.75 73.792031)scale(0.15 -0.15)">
      <use xlink:href="#DejaVuSans-86"/>
      <use x="68.298828" xlink:href="#DejaVuSans-101"/>
      <use x="129.822266" xlink:href="#DejaVuSans-114"/>
      <use x="170.935547" xlink:href="#DejaVuSans-116"/>
      <use x="210.144531" xlink:href="#DejaVuSans-105"/>
      <use x="237.927734" xlink:href="#DejaVuSans-99"/>
      <use x="292.908203" xlink:href="#DejaVuSans-97"/>
      <use x="354.1875" xlink:href="#DejaVuSans-108"/>
      <use x="381.970703" xlink:href="#DejaVuSans-32"/>
      <use x="413.757812" xlink:href="#DejaVuSans-65"/>
      <use x="482.150391" xlink:href="#DejaVuSans-99"/>
      <use x="537.130859" xlink:href="#DejaVuSans-99"/>
      <use x="592.111328" xlink:href="#DejaVuSans-101"/>
      <use x="653.634766" xlink:href="#DejaVuSans-108"/>
      <use x="681.417969" xlink:href="#DejaVuSans-101"/>
      <use x="742.941406" xlink:href="#DejaVuSans-114"/>
      <use x="784.054688" xlink:href="#DejaVuSans-97"/>
      <use x="845.333984" xlink:href="#DejaVuSans-116"/>
      <use x="884.542969" xlink:href="#DejaVuSans-105"/>
      <use x="912.326172" xlink:href="#DejaVuSans-111"/>
      <use x="973.507812" xlink:href="#DejaVuSans-110"/>
      <use x="1036.886719" xlink:href="#DejaVuSans-32"/>
      <use x="1068.673828" xlink:href="#DejaVuSans-76"/>
      <use x="1124.371094" xlink:href="#DejaVuSans-101"/>
      <use x="1185.894531" xlink:href="#DejaVuSans-102"/>
      <use x="1221.083984" xlink:href="#DejaVuSans-116"/>
      <use x="1260.292969" xlink:href="#DejaVuSans-32"/>
      <use x="1292.080078" xlink:href="#DejaVuSans-70"/>
      <use x="1349.552734" xlink:href="#DejaVuSans-111"/>
      <use x="1410.734375" xlink:href="#DejaVuSans-111"/>
      <use x="1471.916016" xlink:href="#DejaVuSans-116"/>
      <use x="1511.125" xlink:href="#DejaVuSans-32"/>
      <use x="1542.912109" xlink:href="#DejaVuSans-105"/>
      <use x="1570.695312" xlink:href="#DejaVuSans-110"/>
      <use x="1634.074219" xlink:href="#DejaVuSans-32"/>
      <use x="1665.861328" xlink:href="#DejaVuSans-109"/>
      <use x="1763.273438" xlink:href="#DejaVuSans-47"/>
      <use x="1796.964844" xlink:href="#DejaVuSans-115"/>
      <use x="1849.064453" xlink:href="#DejaVuSans-178"/>
     </g>
    </g>
    <g id="line2d_23">
     <path d="M 830.75 90.559219 
L 860.75 90.559219 
" style="fill:none;stroke:#2ca02c;stroke-linecap:square;stroke-width:1.5;"/>
    </g>
    <g id="line2d_24"/>
    <g id="text_20">
     <!-- Vertical Acceleration Right Foot in m/s² -->
     <defs>
      <path d="M 44.390625 34.1875 
Q 47.5625 33.109375 50.5625 29.59375 
Q 53.5625 26.078125 56.59375 19.921875 
L 66.609375 0 
L 56 0 
L 46.6875 18.703125 
Q 43.0625 26.03125 39.671875 28.421875 
Q 36.28125 30.8125 30.421875 30.8125 
L 19.671875 30.8125 
L 19.671875 0 
L 9.8125 0 
L 9.8125 72.90625 
L 32.078125 72.90625 
Q 44.578125 72.90625 50.734375 67.671875 
Q 56.890625 62.453125 56.890625 51.90625 
Q 56.890625 45.015625 53.6875 40.46875 
Q 50.484375 35.9375 44.390625 34.1875 
z
M 19.671875 64.796875 
L 19.671875 38.921875 
L 32.078125 38.921875 
Q 39.203125 38.921875 42.84375 42.21875 
Q 46.484375 45.515625 46.484375 51.90625 
Q 46.484375 58.296875 42.84375 61.546875 
Q 39.203125 64.796875 32.078125 64.796875 
z
" id="DejaVuSans-82"/>
     </defs>
     <g transform="translate(872.75 95.809219)scale(0.15 -0.15)">
      <use xlink:href="#DejaVuSans-86"/>
      <use x="68.298828" xlink:href="#DejaVuSans-101"/>
      <use x="129.822266" xlink:href="#DejaVuSans-114"/>
      <use x="170.935547" xlink:href="#DejaVuSans-116"/>
      <use x="210.144531" xlink:href="#DejaVuSans-105"/>
      <use x="237.927734" xlink:href="#DejaVuSans-99"/>
      <use x="292.908203" xlink:href="#DejaVuSans-97"/>
      <use x="354.1875" xlink:href="#DejaVuSans-108"/>
      <use x="381.970703" xlink:href="#DejaVuSans-32"/>
      <use x="413.757812" xlink:href="#DejaVuSans-65"/>
      <use x="482.150391" xlink:href="#DejaVuSans-99"/>
      <use x="537.130859" xlink:href="#DejaVuSans-99"/>
      <use x="592.111328" xlink:href="#DejaVuSans-101"/>
      <use x="653.634766" xlink:href="#DejaVuSans-108"/>
      <use x="681.417969" xlink:href="#DejaVuSans-101"/>
      <use x="742.941406" xlink:href="#DejaVuSans-114"/>
      <use x="784.054688" xlink:href="#DejaVuSans-97"/>
      <use x="845.333984" xlink:href="#DejaVuSans-116"/>
      <use x="884.542969" xlink:href="#DejaVuSans-105"/>
      <use x="912.326172" xlink:href="#DejaVuSans-111"/>
      <use x="973.507812" xlink:href="#DejaVuSans-110"/>
      <use x="1036.886719" xlink:href="#DejaVuSans-32"/>
      <use x="1068.673828" xlink:href="#DejaVuSans-82"/>
      <use x="1138.15625" xlink:href="#DejaVuSans-105"/>
      <use x="1165.939453" xlink:href="#DejaVuSans-103"/>
      <use x="1229.416016" xlink:href="#DejaVuSans-104"/>
      <use x="1292.794922" xlink:href="#DejaVuSans-116"/>
      <use x="1332.003906" xlink:href="#DejaVuSans-32"/>
      <use x="1363.791016" xlink:href="#DejaVuSans-70"/>
      <use x="1421.263672" xlink:href="#DejaVuSans-111"/>
      <use x="1482.445312" xlink:href="#DejaVuSans-111"/>
      <use x="1543.626953" xlink:href="#DejaVuSans-116"/>
      <use x="1582.835938" xlink:href="#DejaVuSans-32"/>
      <use x="1614.623047" xlink:href="#DejaVuSans-105"/>
      <use x="1642.40625" xlink:href="#DejaVuSans-110"/>
      <use x="1705.785156" xlink:href="#DejaVuSans-32"/>
      <use x="1737.572266" xlink:href="#DejaVuSans-109"/>
      <use x="1834.984375" xlink:href="#DejaVuSans-47"/>
      <use x="1868.675781" xlink:href="#DejaVuSans-115"/>
      <use x="1920.775391" xlink:href="#DejaVuSans-178"/>
     </g>
    </g>
    <g id="line2d_25">
     <path d="M 830.75 112.576406 
L 860.75 112.576406 
" style="fill:none;stroke:#d62728;stroke-linecap:square;stroke-width:1.5;"/>
    </g>
    <g id="line2d_26"/>
    <g id="text_21">
     <!-- Vertical Rotation Hip in rad/s -->
     <g transform="translate(872.75 117.826406)scale(0.15 -0.15)">
      <use xlink:href="#DejaVuSans-86"/>
      <use x="68.298828" xlink:href="#DejaVuSans-101"/>
      <use x="129.822266" xlink:href="#DejaVuSans-114"/>
      <use x="170.935547" xlink:href="#DejaVuSans-116"/>
      <use x="210.144531" xlink:href="#DejaVuSans-105"/>
      <use x="237.927734" xlink:href="#DejaVuSans-99"/>
      <use x="292.908203" xlink:href="#DejaVuSans-97"/>
      <use x="354.1875" xlink:href="#DejaVuSans-108"/>
      <use x="381.970703" xlink:href="#DejaVuSans-32"/>
      <use x="413.757812" xlink:href="#DejaVuSans-82"/>
      <use x="483.177734" xlink:href="#DejaVuSans-111"/>
      <use x="544.359375" xlink:href="#DejaVuSans-116"/>
      <use x="583.568359" xlink:href="#DejaVuSans-97"/>
      <use x="644.847656" xlink:href="#DejaVuSans-116"/>
      <use x="684.056641" xlink:href="#DejaVuSans-105"/>
      <use x="711.839844" xlink:href="#DejaVuSans-111"/>
      <use x="773.021484" xlink:href="#DejaVuSans-110"/>
      <use x="836.400391" xlink:href="#DejaVuSans-32"/>
      <use x="868.1875" xlink:href="#DejaVuSans-72"/>
      <use x="943.382812" xlink:href="#DejaVuSans-105"/>
      <use x="971.166016" xlink:href="#DejaVuSans-112"/>
      <use x="1034.642578" xlink:href="#DejaVuSans-32"/>
      <use x="1066.429688" xlink:href="#DejaVuSans-105"/>
      <use x="1094.212891" xlink:href="#DejaVuSans-110"/>
      <use x="1157.591797" xlink:href="#DejaVuSans-32"/>
      <use x="1189.378906" xlink:href="#DejaVuSans-114"/>
      <use x="1230.492188" xlink:href="#DejaVuSans-97"/>
      <use x="1291.771484" xlink:href="#DejaVuSans-100"/>
      <use x="1355.248047" xlink:href="#DejaVuSans-47"/>
      <use x="1388.939453" xlink:href="#DejaVuSans-115"/>
     </g>
    </g>
   </g>
  </g>
 </g>
 <defs>
  <clipPath id="p79f68c04dd">
   <rect height="543.6" width="1116" x="64.374219" y="26.877187"/>
  </clipPath>
 </defs>
</svg>
