<?xml version="1.0" encoding="utf-8" standalone="no"?>
<!DOCTYPE svg PUBLIC "-//W3C//DTD SVG 1.1//EN"
  "http://www.w3.org/Graphics/SVG/1.1/DTD/svg11.dtd">
<!-- Created with matplotlib (https://matplotlib.org/) -->
<svg height="617.711562pt" version="1.1" viewBox="0 0 1191.074219 617.711562" width="1191.074219pt" xmlns="http://www.w3.org/2000/svg" xmlns:xlink="http://www.w3.org/1999/xlink">
 <defs>
  <style type="text/css">
*{stroke-linecap:butt;stroke-linejoin:round;}
  </style>
 </defs>
 <g id="figure_1">
  <g id="patch_1">
   <path d="M 0 617.711562 
L 1191.074219 617.711562 
L 1191.074219 0 
L 0 0 
z
" style="fill:#ffffff;"/>
  </g>
  <g id="axes_1">
   <g id="patch_2">
    <path d="M 64.374219 570.477187 
L 1180.374219 570.477187 
L 1180.374219 26.877187 
L 64.374219 26.877187 
z
" style="fill:#ffffff;"/>
   </g>
   <g id="matplotlib.axis_1">
    <g id="xtick_1">
     <g id="line2d_1">
      <defs>
       <path d="M 0 0 
L 0 3.5 
" id="md270bb116f" style="stroke:#000000;stroke-width:0.8;"/>
      </defs>
      <g>
       <use style="stroke:#000000;stroke-width:0.8;" x="257.603901" xlink:href="#md270bb116f" y="570.477187"/>
      </g>
     </g>
     <g id="text_1">
      <!-- 69000 -->
      <defs>
       <path d="M 33.015625 40.375 
Q 26.375 40.375 22.484375 35.828125 
Q 18.609375 31.296875 18.609375 23.390625 
Q 18.609375 15.53125 22.484375 10.953125 
Q 26.375 6.390625 33.015625 6.390625 
Q 39.65625 6.390625 43.53125 10.953125 
Q 47.40625 15.53125 47.40625 23.390625 
Q 47.40625 31.296875 43.53125 35.828125 
Q 39.65625 40.375 33.015625 40.375 
z
M 52.59375 71.296875 
L 52.59375 62.3125 
Q 48.875 64.0625 45.09375 64.984375 
Q 41.3125 65.921875 37.59375 65.921875 
Q 27.828125 65.921875 22.671875 59.328125 
Q 17.53125 52.734375 16.796875 39.40625 
Q 19.671875 43.65625 24.015625 45.921875 
Q 28.375 48.1875 33.59375 48.1875 
Q 44.578125 48.1875 50.953125 41.515625 
Q 57.328125 34.859375 57.328125 23.390625 
Q 57.328125 12.15625 50.6875 5.359375 
Q 44.046875 -1.421875 33.015625 -1.421875 
Q 20.359375 -1.421875 13.671875 8.265625 
Q 6.984375 17.96875 6.984375 36.375 
Q 6.984375 53.65625 15.1875 63.9375 
Q 23.390625 74.21875 37.203125 74.21875 
Q 40.921875 74.21875 44.703125 73.484375 
Q 48.484375 72.75 52.59375 71.296875 
z
" id="DejaVuSans-54"/>
       <path d="M 10.984375 1.515625 
L 10.984375 10.5 
Q 14.703125 8.734375 18.5 7.8125 
Q 22.3125 6.890625 25.984375 6.890625 
Q 35.75 6.890625 40.890625 13.453125 
Q 46.046875 20.015625 46.78125 33.40625 
Q 43.953125 29.203125 39.59375 26.953125 
Q 35.25 24.703125 29.984375 24.703125 
Q 19.046875 24.703125 12.671875 31.3125 
Q 6.296875 37.9375 6.296875 49.421875 
Q 6.296875 60.640625 12.9375 67.421875 
Q 19.578125 74.21875 30.609375 74.21875 
Q 43.265625 74.21875 49.921875 64.515625 
Q 56.59375 54.828125 56.59375 36.375 
Q 56.59375 19.140625 48.40625 8.859375 
Q 40.234375 -1.421875 26.421875 -1.421875 
Q 22.703125 -1.421875 18.890625 -0.6875 
Q 15.09375 0.046875 10.984375 1.515625 
z
M 30.609375 32.421875 
Q 37.25 32.421875 41.125 36.953125 
Q 45.015625 41.5 45.015625 49.421875 
Q 45.015625 57.28125 41.125 61.84375 
Q 37.25 66.40625 30.609375 66.40625 
Q 23.96875 66.40625 20.09375 61.84375 
Q 16.21875 57.28125 16.21875 49.421875 
Q 16.21875 41.5 20.09375 36.953125 
Q 23.96875 32.421875 30.609375 32.421875 
z
" id="DejaVuSans-57"/>
       <path d="M 31.78125 66.40625 
Q 24.171875 66.40625 20.328125 58.90625 
Q 16.5 51.421875 16.5 36.375 
Q 16.5 21.390625 20.328125 13.890625 
Q 24.171875 6.390625 31.78125 6.390625 
Q 39.453125 6.390625 43.28125 13.890625 
Q 47.125 21.390625 47.125 36.375 
Q 47.125 51.421875 43.28125 58.90625 
Q 39.453125 66.40625 31.78125 66.40625 
z
M 31.78125 74.21875 
Q 44.046875 74.21875 50.515625 64.515625 
Q 56.984375 54.828125 56.984375 36.375 
Q 56.984375 17.96875 50.515625 8.265625 
Q 44.046875 -1.421875 31.78125 -1.421875 
Q 19.53125 -1.421875 13.0625 8.265625 
Q 6.59375 17.96875 6.59375 36.375 
Q 6.59375 54.828125 13.0625 64.515625 
Q 19.53125 74.21875 31.78125 74.21875 
z
" id="DejaVuSans-48"/>
      </defs>
      <g transform="translate(233.744526 588.874844)scale(0.15 -0.15)">
       <use xlink:href="#DejaVuSans-54"/>
       <use x="63.623047" xlink:href="#DejaVuSans-57"/>
       <use x="127.246094" xlink:href="#DejaVuSans-48"/>
       <use x="190.869141" xlink:href="#DejaVuSans-48"/>
       <use x="254.492188" xlink:href="#DejaVuSans-48"/>
      </g>
     </g>
    </g>
    <g id="xtick_2">
     <g id="line2d_2">
      <g>
       <use style="stroke:#000000;stroke-width:0.8;" x="454.777046" xlink:href="#md270bb116f" y="570.477187"/>
      </g>
     </g>
     <g id="text_2">
      <!-- 70000 -->
      <defs>
       <path d="M 8.203125 72.90625 
L 55.078125 72.90625 
L 55.078125 68.703125 
L 28.609375 0 
L 18.3125 0 
L 43.21875 64.59375 
L 8.203125 64.59375 
z
" id="DejaVuSans-55"/>
      </defs>
      <g transform="translate(430.917671 588.874844)scale(0.15 -0.15)">
       <use xlink:href="#DejaVuSans-55"/>
       <use x="63.623047" xlink:href="#DejaVuSans-48"/>
       <use x="127.246094" xlink:href="#DejaVuSans-48"/>
       <use x="190.869141" xlink:href="#DejaVuSans-48"/>
       <use x="254.492188" xlink:href="#DejaVuSans-48"/>
      </g>
     </g>
    </g>
    <g id="xtick_3">
     <g id="line2d_3">
      <g>
       <use style="stroke:#000000;stroke-width:0.8;" x="651.95019" xlink:href="#md270bb116f" y="570.477187"/>
      </g>
     </g>
     <g id="text_3">
      <!-- 71000 -->
      <defs>
       <path d="M 12.40625 8.296875 
L 28.515625 8.296875 
L 28.515625 63.921875 
L 10.984375 60.40625 
L 10.984375 69.390625 
L 28.421875 72.90625 
L 38.28125 72.90625 
L 38.28125 8.296875 
L 54.390625 8.296875 
L 54.390625 0 
L 12.40625 0 
z
" id="DejaVuSans-49"/>
      </defs>
      <g transform="translate(628.090815 588.874844)scale(0.15 -0.15)">
       <use xlink:href="#DejaVuSans-55"/>
       <use x="63.623047" xlink:href="#DejaVuSans-49"/>
       <use x="127.246094" xlink:href="#DejaVuSans-48"/>
       <use x="190.869141" xlink:href="#DejaVuSans-48"/>
       <use x="254.492188" xlink:href="#DejaVuSans-48"/>
      </g>
     </g>
    </g>
    <g id="xtick_4">
     <g id="line2d_4">
      <g>
       <use style="stroke:#000000;stroke-width:0.8;" x="849.123335" xlink:href="#md270bb116f" y="570.477187"/>
      </g>
     </g>
     <g id="text_4">
      <!-- 72000 -->
      <defs>
       <path d="M 19.1875 8.296875 
L 53.609375 8.296875 
L 53.609375 0 
L 7.328125 0 
L 7.328125 8.296875 
Q 12.9375 14.109375 22.625 23.890625 
Q 32.328125 33.6875 34.8125 36.53125 
Q 39.546875 41.84375 41.421875 45.53125 
Q 43.3125 49.21875 43.3125 52.78125 
Q 43.3125 58.59375 39.234375 62.25 
Q 35.15625 65.921875 28.609375 65.921875 
Q 23.96875 65.921875 18.8125 64.3125 
Q 13.671875 62.703125 7.8125 59.421875 
L 7.8125 69.390625 
Q 13.765625 71.78125 18.9375 73 
Q 24.125 74.21875 28.421875 74.21875 
Q 39.75 74.21875 46.484375 68.546875 
Q 53.21875 62.890625 53.21875 53.421875 
Q 53.21875 48.921875 51.53125 44.890625 
Q 49.859375 40.875 45.40625 35.40625 
Q 44.1875 33.984375 37.640625 27.21875 
Q 31.109375 20.453125 19.1875 8.296875 
z
" id="DejaVuSans-50"/>
      </defs>
      <g transform="translate(825.26396 588.874844)scale(0.15 -0.15)">
       <use xlink:href="#DejaVuSans-55"/>
       <use x="63.623047" xlink:href="#DejaVuSans-50"/>
       <use x="127.246094" xlink:href="#DejaVuSans-48"/>
       <use x="190.869141" xlink:href="#DejaVuSans-48"/>
       <use x="254.492188" xlink:href="#DejaVuSans-48"/>
      </g>
     </g>
    </g>
    <g id="xtick_5">
     <g id="line2d_5">
      <g>
       <use style="stroke:#000000;stroke-width:0.8;" x="1046.29648" xlink:href="#md270bb116f" y="570.477187"/>
      </g>
     </g>
     <g id="text_5">
      <!-- 73000 -->
      <defs>
       <path d="M 40.578125 39.3125 
Q 47.65625 37.796875 51.625 33 
Q 55.609375 28.21875 55.609375 21.1875 
Q 55.609375 10.40625 48.1875 4.484375 
Q 40.765625 -1.421875 27.09375 -1.421875 
Q 22.515625 -1.421875 17.65625 -0.515625 
Q 12.796875 0.390625 7.625 2.203125 
L 7.625 11.71875 
Q 11.71875 9.328125 16.59375 8.109375 
Q 21.484375 6.890625 26.8125 6.890625 
Q 36.078125 6.890625 40.9375 10.546875 
Q 45.796875 14.203125 45.796875 21.1875 
Q 45.796875 27.640625 41.28125 31.265625 
Q 36.765625 34.90625 28.71875 34.90625 
L 20.21875 34.90625 
L 20.21875 43.015625 
L 29.109375 43.015625 
Q 36.375 43.015625 40.234375 45.921875 
Q 44.09375 48.828125 44.09375 54.296875 
Q 44.09375 59.90625 40.109375 62.90625 
Q 36.140625 65.921875 28.71875 65.921875 
Q 24.65625 65.921875 20.015625 65.03125 
Q 15.375 64.15625 9.8125 62.3125 
L 9.8125 71.09375 
Q 15.4375 72.65625 20.34375 73.4375 
Q 25.25 74.21875 29.59375 74.21875 
Q 40.828125 74.21875 47.359375 69.109375 
Q 53.90625 64.015625 53.90625 55.328125 
Q 53.90625 49.265625 50.4375 45.09375 
Q 46.96875 40.921875 40.578125 39.3125 
z
" id="DejaVuSans-51"/>
      </defs>
      <g transform="translate(1022.437105 588.874844)scale(0.15 -0.15)">
       <use xlink:href="#DejaVuSans-55"/>
       <use x="63.623047" xlink:href="#DejaVuSans-51"/>
       <use x="127.246094" xlink:href="#DejaVuSans-48"/>
       <use x="190.869141" xlink:href="#DejaVuSans-48"/>
       <use x="254.492188" xlink:href="#DejaVuSans-48"/>
      </g>
     </g>
    </g>
    <g id="text_6">
     <!-- Time in ms -->
     <defs>
      <path d="M -0.296875 72.90625 
L 61.375 72.90625 
L 61.375 64.59375 
L 35.5 64.59375 
L 35.5 0 
L 25.59375 0 
L 25.59375 64.59375 
L -0.296875 64.59375 
z
" id="DejaVuSans-84"/>
      <path d="M 9.421875 54.6875 
L 18.40625 54.6875 
L 18.40625 0 
L 9.421875 0 
z
M 9.421875 75.984375 
L 18.40625 75.984375 
L 18.40625 64.59375 
L 9.421875 64.59375 
z
" id="DejaVuSans-105"/>
      <path d="M 52 44.1875 
Q 55.375 50.25 60.0625 53.125 
Q 64.75 56 71.09375 56 
Q 79.640625 56 84.28125 50.015625 
Q 88.921875 44.046875 88.921875 33.015625 
L 88.921875 0 
L 79.890625 0 
L 79.890625 32.71875 
Q 79.890625 40.578125 77.09375 44.375 
Q 74.3125 48.1875 68.609375 48.1875 
Q 61.625 48.1875 57.5625 43.546875 
Q 53.515625 38.921875 53.515625 30.90625 
L 53.515625 0 
L 44.484375 0 
L 44.484375 32.71875 
Q 44.484375 40.625 41.703125 44.40625 
Q 38.921875 48.1875 33.109375 48.1875 
Q 26.21875 48.1875 22.15625 43.53125 
Q 18.109375 38.875 18.109375 30.90625 
L 18.109375 0 
L 9.078125 0 
L 9.078125 54.6875 
L 18.109375 54.6875 
L 18.109375 46.1875 
Q 21.1875 51.21875 25.484375 53.609375 
Q 29.78125 56 35.6875 56 
Q 41.65625 56 45.828125 52.96875 
Q 50 49.953125 52 44.1875 
z
" id="DejaVuSans-109"/>
      <path d="M 56.203125 29.59375 
L 56.203125 25.203125 
L 14.890625 25.203125 
Q 15.484375 15.921875 20.484375 11.0625 
Q 25.484375 6.203125 34.421875 6.203125 
Q 39.59375 6.203125 44.453125 7.46875 
Q 49.3125 8.734375 54.109375 11.28125 
L 54.109375 2.78125 
Q 49.265625 0.734375 44.1875 -0.34375 
Q 39.109375 -1.421875 33.890625 -1.421875 
Q 20.796875 -1.421875 13.15625 6.1875 
Q 5.515625 13.8125 5.515625 26.8125 
Q 5.515625 40.234375 12.765625 48.109375 
Q 20.015625 56 32.328125 56 
Q 43.359375 56 49.78125 48.890625 
Q 56.203125 41.796875 56.203125 29.59375 
z
M 47.21875 32.234375 
Q 47.125 39.59375 43.09375 43.984375 
Q 39.0625 48.390625 32.421875 48.390625 
Q 24.90625 48.390625 20.390625 44.140625 
Q 15.875 39.890625 15.1875 32.171875 
z
" id="DejaVuSans-101"/>
      <path id="DejaVuSans-32"/>
      <path d="M 54.890625 33.015625 
L 54.890625 0 
L 45.90625 0 
L 45.90625 32.71875 
Q 45.90625 40.484375 42.875 44.328125 
Q 39.84375 48.1875 33.796875 48.1875 
Q 26.515625 48.1875 22.3125 43.546875 
Q 18.109375 38.921875 18.109375 30.90625 
L 18.109375 0 
L 9.078125 0 
L 9.078125 54.6875 
L 18.109375 54.6875 
L 18.109375 46.1875 
Q 21.34375 51.125 25.703125 53.5625 
Q 30.078125 56 35.796875 56 
Q 45.21875 56 50.046875 50.171875 
Q 54.890625 44.34375 54.890625 33.015625 
z
" id="DejaVuSans-110"/>
      <path d="M 44.28125 53.078125 
L 44.28125 44.578125 
Q 40.484375 46.53125 36.375 47.5 
Q 32.28125 48.484375 27.875 48.484375 
Q 21.1875 48.484375 17.84375 46.4375 
Q 14.5 44.390625 14.5 40.28125 
Q 14.5 37.15625 16.890625 35.375 
Q 19.28125 33.59375 26.515625 31.984375 
L 29.59375 31.296875 
Q 39.15625 29.25 43.1875 25.515625 
Q 47.21875 21.78125 47.21875 15.09375 
Q 47.21875 7.46875 41.1875 3.015625 
Q 35.15625 -1.421875 24.609375 -1.421875 
Q 20.21875 -1.421875 15.453125 -0.5625 
Q 10.6875 0.296875 5.421875 2 
L 5.421875 11.28125 
Q 10.40625 8.6875 15.234375 7.390625 
Q 20.0625 6.109375 24.8125 6.109375 
Q 31.15625 6.109375 34.5625 8.28125 
Q 37.984375 10.453125 37.984375 14.40625 
Q 37.984375 18.0625 35.515625 20.015625 
Q 33.0625 21.96875 24.703125 23.78125 
L 21.578125 24.515625 
Q 13.234375 26.265625 9.515625 29.90625 
Q 5.8125 33.546875 5.8125 39.890625 
Q 5.8125 47.609375 11.28125 51.796875 
Q 16.75 56 26.8125 56 
Q 31.78125 56 36.171875 55.265625 
Q 40.578125 54.546875 44.28125 53.078125 
z
" id="DejaVuSans-115"/>
     </defs>
     <g transform="translate(580.976562 607.392031)scale(0.15 -0.15)">
      <use xlink:href="#DejaVuSans-84"/>
      <use x="61.037109" xlink:href="#DejaVuSans-105"/>
      <use x="88.820312" xlink:href="#DejaVuSans-109"/>
      <use x="186.232422" xlink:href="#DejaVuSans-101"/>
      <use x="247.755859" xlink:href="#DejaVuSans-32"/>
      <use x="279.542969" xlink:href="#DejaVuSans-105"/>
      <use x="307.326172" xlink:href="#DejaVuSans-110"/>
      <use x="370.705078" xlink:href="#DejaVuSans-32"/>
      <use x="402.492188" xlink:href="#DejaVuSans-109"/>
      <use x="499.904297" xlink:href="#DejaVuSans-115"/>
     </g>
    </g>
   </g>
   <g id="matplotlib.axis_2">
    <g id="ytick_1">
     <g id="line2d_6">
      <defs>
       <path d="M 0 0 
L -3.5 0 
" id="me47ff5640c" style="stroke:#000000;stroke-width:0.8;"/>
      </defs>
      <g>
       <use style="stroke:#000000;stroke-width:0.8;" x="64.374219" xlink:href="#me47ff5640c" y="570.477187"/>
      </g>
     </g>
     <g id="text_7">
      <!-- −20 -->
      <defs>
       <path d="M 10.59375 35.5 
L 73.1875 35.5 
L 73.1875 27.203125 
L 10.59375 27.203125 
z
" id="DejaVuSans-8722"/>
      </defs>
      <g transform="translate(25.717187 576.176016)scale(0.15 -0.15)">
       <use xlink:href="#DejaVuSans-8722"/>
       <use x="83.789062" xlink:href="#DejaVuSans-50"/>
       <use x="147.412109" xlink:href="#DejaVuSans-48"/>
      </g>
     </g>
    </g>
    <g id="ytick_2">
     <g id="line2d_7">
      <g>
       <use style="stroke:#000000;stroke-width:0.8;" x="64.374219" xlink:href="#me47ff5640c" y="461.757187"/>
      </g>
     </g>
     <g id="text_8">
      <!-- −10 -->
      <g transform="translate(25.717187 467.456016)scale(0.15 -0.15)">
       <use xlink:href="#DejaVuSans-8722"/>
       <use x="83.789062" xlink:href="#DejaVuSans-49"/>
       <use x="147.412109" xlink:href="#DejaVuSans-48"/>
      </g>
     </g>
    </g>
    <g id="ytick_3">
     <g id="line2d_8">
      <g>
       <use style="stroke:#000000;stroke-width:0.8;" x="64.374219" xlink:href="#me47ff5640c" y="353.037187"/>
      </g>
     </g>
     <g id="text_9">
      <!-- 0 -->
      <g transform="translate(47.830469 358.736016)scale(0.15 -0.15)">
       <use xlink:href="#DejaVuSans-48"/>
      </g>
     </g>
    </g>
    <g id="ytick_4">
     <g id="line2d_9">
      <g>
       <use style="stroke:#000000;stroke-width:0.8;" x="64.374219" xlink:href="#me47ff5640c" y="244.317187"/>
      </g>
     </g>
     <g id="text_10">
      <!-- 10 -->
      <g transform="translate(38.286719 250.016016)scale(0.15 -0.15)">
       <use xlink:href="#DejaVuSans-49"/>
       <use x="63.623047" xlink:href="#DejaVuSans-48"/>
      </g>
     </g>
    </g>
    <g id="ytick_5">
     <g id="line2d_10">
      <g>
       <use style="stroke:#000000;stroke-width:0.8;" x="64.374219" xlink:href="#me47ff5640c" y="135.597187"/>
      </g>
     </g>
     <g id="text_11">
      <!-- 20 -->
      <g transform="translate(38.286719 141.296016)scale(0.15 -0.15)">
       <use xlink:href="#DejaVuSans-50"/>
       <use x="63.623047" xlink:href="#DejaVuSans-48"/>
      </g>
     </g>
    </g>
    <g id="ytick_6">
     <g id="line2d_11">
      <g>
       <use style="stroke:#000000;stroke-width:0.8;" x="64.374219" xlink:href="#me47ff5640c" y="26.877187"/>
      </g>
     </g>
     <g id="text_12">
      <!-- 30 -->
      <g transform="translate(38.286719 32.576016)scale(0.15 -0.15)">
       <use xlink:href="#DejaVuSans-51"/>
       <use x="63.623047" xlink:href="#DejaVuSans-48"/>
      </g>
     </g>
    </g>
    <g id="text_13">
     <!-- Vertical movement -->
     <defs>
      <path d="M 28.609375 0 
L 0.78125 72.90625 
L 11.078125 72.90625 
L 34.1875 11.53125 
L 57.328125 72.90625 
L 67.578125 72.90625 
L 39.796875 0 
z
" id="DejaVuSans-86"/>
      <path d="M 41.109375 46.296875 
Q 39.59375 47.171875 37.8125 47.578125 
Q 36.03125 48 33.890625 48 
Q 26.265625 48 22.1875 43.046875 
Q 18.109375 38.09375 18.109375 28.8125 
L 18.109375 0 
L 9.078125 0 
L 9.078125 54.6875 
L 18.109375 54.6875 
L 18.109375 46.1875 
Q 20.953125 51.171875 25.484375 53.578125 
Q 30.03125 56 36.53125 56 
Q 37.453125 56 38.578125 55.875 
Q 39.703125 55.765625 41.0625 55.515625 
z
" id="DejaVuSans-114"/>
      <path d="M 18.3125 70.21875 
L 18.3125 54.6875 
L 36.8125 54.6875 
L 36.8125 47.703125 
L 18.3125 47.703125 
L 18.3125 18.015625 
Q 18.3125 11.328125 20.140625 9.421875 
Q 21.96875 7.515625 27.59375 7.515625 
L 36.8125 7.515625 
L 36.8125 0 
L 27.59375 0 
Q 17.1875 0 13.234375 3.875 
Q 9.28125 7.765625 9.28125 18.015625 
L 9.28125 47.703125 
L 2.6875 47.703125 
L 2.6875 54.6875 
L 9.28125 54.6875 
L 9.28125 70.21875 
z
" id="DejaVuSans-116"/>
      <path d="M 48.78125 52.59375 
L 48.78125 44.1875 
Q 44.96875 46.296875 41.140625 47.34375 
Q 37.3125 48.390625 33.40625 48.390625 
Q 24.65625 48.390625 19.8125 42.84375 
Q 14.984375 37.3125 14.984375 27.296875 
Q 14.984375 17.28125 19.8125 11.734375 
Q 24.65625 6.203125 33.40625 6.203125 
Q 37.3125 6.203125 41.140625 7.25 
Q 44.96875 8.296875 48.78125 10.40625 
L 48.78125 2.09375 
Q 45.015625 0.34375 40.984375 -0.53125 
Q 36.96875 -1.421875 32.421875 -1.421875 
Q 20.0625 -1.421875 12.78125 6.34375 
Q 5.515625 14.109375 5.515625 27.296875 
Q 5.515625 40.671875 12.859375 48.328125 
Q 20.21875 56 33.015625 56 
Q 37.15625 56 41.109375 55.140625 
Q 45.0625 54.296875 48.78125 52.59375 
z
" id="DejaVuSans-99"/>
      <path d="M 34.28125 27.484375 
Q 23.390625 27.484375 19.1875 25 
Q 14.984375 22.515625 14.984375 16.5 
Q 14.984375 11.71875 18.140625 8.90625 
Q 21.296875 6.109375 26.703125 6.109375 
Q 34.1875 6.109375 38.703125 11.40625 
Q 43.21875 16.703125 43.21875 25.484375 
L 43.21875 27.484375 
z
M 52.203125 31.203125 
L 52.203125 0 
L 43.21875 0 
L 43.21875 8.296875 
Q 40.140625 3.328125 35.546875 0.953125 
Q 30.953125 -1.421875 24.3125 -1.421875 
Q 15.921875 -1.421875 10.953125 3.296875 
Q 6 8.015625 6 15.921875 
Q 6 25.140625 12.171875 29.828125 
Q 18.359375 34.515625 30.609375 34.515625 
L 43.21875 34.515625 
L 43.21875 35.40625 
Q 43.21875 41.609375 39.140625 45 
Q 35.0625 48.390625 27.6875 48.390625 
Q 23 48.390625 18.546875 47.265625 
Q 14.109375 46.140625 10.015625 43.890625 
L 10.015625 52.203125 
Q 14.9375 54.109375 19.578125 55.046875 
Q 24.21875 56 28.609375 56 
Q 40.484375 56 46.34375 49.84375 
Q 52.203125 43.703125 52.203125 31.203125 
z
" id="DejaVuSans-97"/>
      <path d="M 9.421875 75.984375 
L 18.40625 75.984375 
L 18.40625 0 
L 9.421875 0 
z
" id="DejaVuSans-108"/>
      <path d="M 30.609375 48.390625 
Q 23.390625 48.390625 19.1875 42.75 
Q 14.984375 37.109375 14.984375 27.296875 
Q 14.984375 17.484375 19.15625 11.84375 
Q 23.34375 6.203125 30.609375 6.203125 
Q 37.796875 6.203125 41.984375 11.859375 
Q 46.1875 17.53125 46.1875 27.296875 
Q 46.1875 37.015625 41.984375 42.703125 
Q 37.796875 48.390625 30.609375 48.390625 
z
M 30.609375 56 
Q 42.328125 56 49.015625 48.375 
Q 55.71875 40.765625 55.71875 27.296875 
Q 55.71875 13.875 49.015625 6.21875 
Q 42.328125 -1.421875 30.609375 -1.421875 
Q 18.84375 -1.421875 12.171875 6.21875 
Q 5.515625 13.875 5.515625 27.296875 
Q 5.515625 40.765625 12.171875 48.375 
Q 18.84375 56 30.609375 56 
z
" id="DejaVuSans-111"/>
      <path d="M 2.984375 54.6875 
L 12.5 54.6875 
L 29.59375 8.796875 
L 46.6875 54.6875 
L 56.203125 54.6875 
L 35.6875 0 
L 23.484375 0 
z
" id="DejaVuSans-118"/>
     </defs>
     <g transform="translate(18.597656 370.270547)rotate(-90)scale(0.15 -0.15)">
      <use xlink:href="#DejaVuSans-86"/>
      <use x="68.298828" xlink:href="#DejaVuSans-101"/>
      <use x="129.822266" xlink:href="#DejaVuSans-114"/>
      <use x="170.935547" xlink:href="#DejaVuSans-116"/>
      <use x="210.144531" xlink:href="#DejaVuSans-105"/>
      <use x="237.927734" xlink:href="#DejaVuSans-99"/>
      <use x="292.908203" xlink:href="#DejaVuSans-97"/>
      <use x="354.1875" xlink:href="#DejaVuSans-108"/>
      <use x="381.970703" xlink:href="#DejaVuSans-32"/>
      <use x="413.757812" xlink:href="#DejaVuSans-109"/>
      <use x="511.169922" xlink:href="#DejaVuSans-111"/>
      <use x="572.351562" xlink:href="#DejaVuSans-118"/>
      <use x="631.53125" xlink:href="#DejaVuSans-101"/>
      <use x="693.054688" xlink:href="#DejaVuSans-109"/>
      <use x="790.466797" xlink:href="#DejaVuSans-101"/>
      <use x="851.990234" xlink:href="#DejaVuSans-110"/>
      <use x="915.369141" xlink:href="#DejaVuSans-116"/>
     </g>
    </g>
   </g>
   <g id="line2d_12">
    <path clip-path="url(#p828d54ca77)" d="M 64.374219 341.236719 
L 68.317682 339.361299 
L 72.261145 337.907712 
L 76.204607 343.223033 
L 80.14807 346.031271 
L 84.091533 347.688164 
L 88.034996 349.056949 
L 91.978459 348.800369 
L 99.865385 348.717742 
L 103.808848 346.275891 
L 107.752311 344.352634 
L 111.695774 341.408496 
L 115.639236 341.811847 
L 119.582699 342.594631 
L 123.526162 340.937739 
L 127.469625 340.768135 
L 131.413088 343.552455 
L 135.356551 344.186293 
L 139.300014 344.584207 
L 143.243477 341.229108 
L 147.18694 338.07949 
L 151.130402 335.264729 
L 155.073865 341.40306 
L 159.017328 344.18738 
L 162.960791 343.738366 
L 166.904254 343.566589 
L 170.847717 348.221979 
L 174.79118 352.205479 
L 182.678106 345.295237 
L 186.621569 345.882324 
L 190.565031 362.687175 
L 194.508494 400.735913 
L 198.451957 425.232703 
L 202.39542 404.990123 
L 206.338883 377.751418 
L 210.282346 323.270739 
L 214.225809 315.451596 
L 218.169272 322.163969 
L 222.112735 367.069678 
L 226.056198 370.519362 
L 229.99966 360.808493 
L 233.943123 349.477695 
L 237.886586 347.444631 
L 241.830049 349.161319 
L 245.773512 351.532503 
L 249.716975 355.608415 
L 253.660438 355.681258 
L 257.603901 355.630159 
L 265.490827 354.389664 
L 269.434289 352.181561 
L 273.377752 353.852587 
L 277.321215 355.010455 
L 281.264678 356.374891 
L 285.208141 354.745179 
L 289.151604 353.561218 
L 293.095067 355.146355 
L 297.03853 355.993284 
L 300.981993 357.487097 
L 304.925455 354.852811 
L 308.868918 353.710164 
L 312.812381 353.646019 
L 316.755844 353.778658 
L 320.699307 354.635371 
L 324.64277 355.262686 
L 328.586233 354.502733 
L 332.529696 355.749751 
L 340.416622 358.843923 
L 344.360084 354.74083 
L 348.303547 350.843218 
L 352.24701 349.832122 
L 356.190473 351.29658 
L 360.133936 353.939563 
L 364.077399 357.084833 
L 368.020862 359.528858 
L 371.964325 358.042656 
L 375.907788 359.623445 
L 379.851251 367.555656 
L 383.794713 369.49957 
L 387.738176 371.944683 
L 391.681639 371.389123 
L 395.625102 362.263167 
L 399.568565 355.498608 
L 403.512028 352.334856 
L 407.455491 351.393341 
L 411.398954 356.74019 
L 415.342417 362.8209 
L 419.28588 360.907428 
L 423.229342 357.962203 
L 427.172805 353.505771 
L 431.116268 344.803822 
L 435.059731 340.819235 
L 439.003194 343.631821 
L 442.946657 347.532694 
L 446.89012 346.45093 
L 450.833583 344.612475 
L 454.777046 344.780991 
L 458.720509 346.30742 
L 462.663971 346.915164 
L 466.607434 344.552679 
L 470.550897 341.995584 
L 474.49436 338.014259 
L 478.437823 333.100114 
L 482.381286 329.229682 
L 486.324749 331.551941 
L 490.268212 334.437371 
L 494.211675 332.964214 
L 498.155137 330.663699 
L 502.0986 329.41668 
L 506.042063 335.494128 
L 509.985526 336.073606 
L 513.928989 339.925555 
L 517.872452 343.182807 
L 521.815915 348.751445 
L 525.759378 349.432033 
L 529.702841 349.432033 
L 533.646304 346.685765 
L 537.589766 348.200235 
L 541.533229 373.686377 
L 545.476692 418.285492 
L 549.420155 441.624418 
L 553.363618 399.165996 
L 557.307081 344.87449 
L 561.250544 317.967377 
L 565.194007 314.789491 
L 569.13747 336.615031 
L 573.080933 348.498127 
L 577.024395 362.52192 
L 580.967858 362.925271 
L 584.911321 357.950244 
L 588.854784 351.286795 
L 592.798247 349.764715 
L 596.74171 350.659481 
L 600.685173 353.258976 
L 604.628636 353.105681 
L 608.572099 351.308539 
L 612.515562 351.680362 
L 616.459024 354.813672 
L 620.402487 357.26857 
L 624.34595 357.496882 
L 628.289413 355.493172 
L 632.232876 354.704952 
L 636.176339 351.838006 
L 640.119802 351.891279 
L 644.063265 353.124163 
L 648.006728 355.526875 
L 651.95019 356.763022 
L 655.893653 356.716272 
L 659.837116 356.248776 
L 663.780579 356.006331 
L 667.724042 356.631471 
L 671.667505 356.633645 
L 675.610968 355.90957 
L 679.554431 355.780193 
L 683.497894 355.231157 
L 691.384819 356.012854 
L 695.328282 353.914558 
L 699.271745 353.398138 
L 703.215208 353.039362 
L 707.158671 351.793431 
L 711.102134 353.071978 
L 715.045597 353.974354 
L 718.98906 353.49055 
L 722.932523 353.264412 
L 726.875986 352.51968 
L 730.819448 364.737634 
L 734.762911 370.905319 
L 738.706374 369.992071 
L 742.649837 367.339303 
L 746.5933 361.981581 
L 750.536763 360.763918 
L 754.480226 356.674959 
L 758.423689 353.817797 
L 762.367152 354.000447 
L 766.310615 360.443194 
L 770.254077 359.985482 
L 774.19754 360.607361 
L 778.141003 365.391041 
L 782.084466 371.196689 
L 786.027929 368.337353 
L 793.914855 349.33201 
L 797.858318 343.946021 
L 801.801781 327.607579 
L 805.745243 330.155976 
L 809.688706 337.837044 
L 813.632169 346.644451 
L 817.575632 352.040225 
L 821.519095 353.899337 
L 825.462558 352.041312 
L 829.406021 347.450067 
L 833.349484 343.715535 
L 837.292947 337.660918 
L 841.23641 337.320625 
L 845.179872 333.744823 
L 849.123335 330.01573 
L 853.066798 323.073955 
L 857.010261 324.213343 
L 860.953724 325.745206 
L 864.897187 327.561917 
L 868.84065 332.485847 
L 872.784113 337.981642 
L 876.727576 340.323471 
L 880.671039 342.090171 
L 884.614501 357.47405 
L 888.557964 361.480383 
L 892.501427 352.399001 
L 896.44489 338.201256 
L 900.388353 359.149426 
L 904.331816 422.390763 
L 908.275279 451.059139 
L 912.218742 411.416566 
L 916.162205 341.758575 
L 920.105668 305.15799 
L 924.04913 305.605913 
L 927.992593 328.948097 
L 931.936056 361.548876 
L 935.879519 380.899949 
L 939.822982 372.894894 
L 943.766445 354.321171 
L 947.709908 344.697276 
L 951.653371 351.958685 
L 955.596834 354.899561 
L 959.540296 358.862405 
L 963.483759 358.397083 
L 967.427222 354.937613 
L 971.370685 351.872796 
L 975.314148 351.297667 
L 979.257611 352.690371 
L 983.201074 355.896523 
L 987.144537 356.930451 
L 991.088 355.030025 
L 995.031463 353.703641 
L 998.974925 353.120902 
L 1002.918388 354.782143 
L 1010.805314 354.700603 
L 1014.748777 355.532311 
L 1018.69224 357.628433 
L 1022.635703 357.938285 
L 1026.579166 355.408371 
L 1030.522629 354.824544 
L 1034.466092 353.955871 
L 1038.409554 352.72951 
L 1042.353017 355.376842 
L 1046.29648 359.471237 
L 1050.239943 361.468423 
L 1054.183406 361.578231 
L 1058.126869 361.246634 
L 1062.070332 358.190515 
L 1066.013795 360.26598 
L 1069.957258 358.497106 
L 1073.900721 362.174016 
L 1077.844183 368.509131 
L 1081.787646 371.730503 
L 1085.731109 372.502415 
L 1089.674572 369.177759 
L 1097.561498 356.86848 
L 1101.504961 353.861285 
L 1105.448424 356.633645 
L 1109.391887 359.013525 
L 1113.335349 352.961084 
L 1117.278812 348.807979 
L 1121.222275 344.418953 
L 1125.165738 350.879096 
L 1129.109201 356.329229 
L 1133.052664 350.497488 
L 1136.996127 344.389599 
L 1140.93959 342.938187 
L 1144.883053 343.804686 
L 1148.826516 342.986023 
L 1152.769978 339.792917 
L 1156.713441 340.610491 
L 1160.656904 340.975792 
L 1164.600367 340.812711 
L 1168.54383 337.422821 
L 1176.430756 337.012947 
L 1180.374219 338.764427 
L 1180.374219 338.764427 
" style="fill:none;stroke:#1f77b4;stroke-linecap:square;stroke-width:1.5;"/>
   </g>
   <g id="line2d_13">
    <path clip-path="url(#p828d54ca77)" d="M 64.374219 345.260357 
L 68.317682 343.211105 
L 72.261145 341.485397 
L 76.204607 341.014871 
L 80.14807 343.429348 
L 84.091533 343.707189 
L 88.034996 345.161785 
L 91.978459 345.494453 
L 95.921922 349.829936 
L 99.865385 351.248948 
L 103.808848 358.090938 
L 107.752311 360.754815 
L 111.695774 362.618318 
L 115.639236 366.237483 
L 119.582699 367.827324 
L 123.526162 364.490312 
L 127.469625 364.759351 
L 131.413088 366.592765 
L 135.356551 365.652708 
L 139.300014 366.743292 
L 143.243477 366.51099 
L 147.18694 366.493716 
L 151.130402 367.523697 
L 155.073865 369.584208 
L 159.017328 369.15047 
L 162.960791 369.745997 
L 166.904254 370.565977 
L 170.847717 368.33811 
L 174.79118 369.397279 
L 178.734643 366.813911 
L 182.678106 383.385153 
L 186.621569 363.847952 
L 190.565031 320.200051 
L 194.508494 319.652488 
L 198.451957 325.705385 
L 202.39542 344.96403 
L 206.338883 351.413525 
L 210.282346 353.072046 
L 214.225809 352.835057 
L 218.169272 350.930619 
L 222.112735 353.254798 
L 226.056198 353.625467 
L 229.99966 354.944549 
L 233.943123 353.162074 
L 245.773512 354.263079 
L 249.716975 354.847646 
L 253.660438 353.948016 
L 257.603901 354.12096 
L 261.547364 354.503998 
L 265.490827 355.085299 
L 273.377752 354.512925 
L 277.321215 353.837188 
L 281.264678 354.442368 
L 285.208141 354.618454 
L 289.151604 354.999885 
L 293.095067 354.326346 
L 297.03853 354.102162 
L 300.981993 355.331734 
L 304.925455 354.159437 
L 308.868918 354.746866 
L 312.812381 355.110349 
L 316.755844 355.038175 
L 320.699307 354.550147 
L 324.64277 355.160729 
L 328.586233 354.203419 
L 332.529696 353.500342 
L 336.473159 353.265395 
L 344.360084 353.894214 
L 348.303547 354.433482 
L 352.24701 353.933324 
L 356.190473 353.185621 
L 360.133936 352.050536 
L 364.077399 352.13399 
L 371.964325 348.616 
L 375.907788 347.086337 
L 379.851251 342.999197 
L 383.794713 340.145506 
L 391.681639 343.019042 
L 395.625102 341.983305 
L 399.568565 341.564674 
L 403.512028 337.042996 
L 407.455491 334.985305 
L 411.398954 335.697335 
L 415.342417 328.274988 
L 419.28588 325.958041 
L 423.229342 333.381269 
L 427.172805 332.842032 
L 431.116268 332.10885 
L 435.059731 332.214841 
L 439.003194 333.042789 
L 442.946657 337.43648 
L 446.89012 343.060484 
L 450.833583 343.133067 
L 454.777046 342.555634 
L 458.720509 345.62919 
L 462.663971 346.959511 
L 466.607434 352.936495 
L 470.550897 356.612567 
L 474.49436 360.625019 
L 478.437823 368.493692 
L 482.381286 372.106144 
L 486.324749 376.278159 
L 490.268212 378.97225 
L 494.211675 389.764372 
L 498.155137 386.752222 
L 502.0986 372.74614 
L 506.042063 372.268502 
L 509.985526 373.938314 
L 513.928989 364.78522 
L 517.872452 361.279059 
L 521.815915 363.492909 
L 525.759378 370.99559 
L 529.702841 379.88285 
L 533.646304 393.86943 
L 537.589766 430.531241 
L 541.533229 302.71398 
L 545.476692 283.818009 
L 549.420155 334.884296 
L 553.363618 350.009464 
L 557.307081 348.729502 
L 561.250544 352.848587 
L 565.194007 350.068128 
L 569.13747 353.666173 
L 573.080933 354.234296 
L 577.024395 355.639176 
L 580.967858 357.43091 
L 584.911321 355.053002 
L 588.854784 356.312061 
L 592.798247 355.009631 
L 596.74171 355.143745 
L 604.628636 356.694902 
L 608.572099 355.771103 
L 612.515562 356.326442 
L 616.459024 355.618522 
L 620.402487 355.352191 
L 624.34595 356.179574 
L 628.289413 355.451903 
L 632.232876 357.264923 
L 636.176339 357.217508 
L 640.119802 357.338061 
L 644.063265 356.94424 
L 648.006728 356.863699 
L 651.95019 356.112844 
L 655.893653 355.128193 
L 659.837116 354.94178 
L 663.780579 355.149489 
L 667.724042 356.236134 
L 671.667505 354.278009 
L 675.610968 355.790844 
L 679.554431 356.004059 
L 683.497894 355.164036 
L 687.441357 355.183425 
L 691.384819 355.47068 
L 695.328282 355.056257 
L 699.271745 354.138368 
L 703.215208 355.114372 
L 707.158671 355.122293 
L 711.102134 354.391895 
L 715.045597 355.271805 
L 718.98906 355.076735 
L 722.932523 354.05652 
L 726.875986 353.266401 
L 730.819448 347.778662 
L 734.762911 345.277247 
L 742.649837 343.572048 
L 746.5933 346.142516 
L 750.536763 346.183669 
L 758.423689 343.89442 
L 762.367152 339.151098 
L 766.310615 341.237547 
L 770.254077 340.355999 
L 774.19754 338.537463 
L 778.141003 319.184524 
L 782.084466 316.284776 
L 786.027929 315.593415 
L 789.971392 319.507995 
L 793.914855 328.833727 
L 797.858318 329.817668 
L 801.801781 333.069399 
L 805.745243 340.664213 
L 809.688706 342.284589 
L 813.632169 342.253847 
L 817.575632 342.492599 
L 821.519095 339.792671 
L 825.462558 342.485404 
L 829.406021 349.716807 
L 833.349484 350.560044 
L 837.292947 353.922043 
L 841.23641 370.547428 
L 845.179872 375.879257 
L 849.123335 385.443901 
L 853.066798 388.248334 
L 857.010261 389.688942 
L 860.953724 394.007856 
L 864.897187 394.920562 
L 868.84065 391.156001 
L 872.784113 391.856788 
L 876.727576 390.936627 
L 880.671039 380.614077 
L 884.614501 376.822508 
L 888.557964 376.978604 
L 892.501427 386.583663 
L 896.44489 415.007131 
L 900.388353 350.620979 
L 904.331816 300.389397 
L 908.275279 302.680073 
L 912.218742 339.095254 
L 916.162205 356.388683 
L 920.105668 356.352829 
L 924.04913 356.943856 
L 927.992593 351.54736 
L 931.936056 348.734852 
L 935.879519 351.815931 
L 939.822982 354.30197 
L 943.766445 356.388994 
L 947.709908 355.691847 
L 951.653371 353.965984 
L 955.596834 352.877899 
L 959.540296 354.523874 
L 963.483759 355.314574 
L 967.427222 356.699671 
L 971.370685 355.927924 
L 975.314148 356.681713 
L 979.257611 356.355214 
L 987.144537 356.018429 
L 991.088 356.72976 
L 995.031463 357.004542 
L 998.974925 356.78323 
L 1002.918388 357.434227 
L 1006.861851 356.457933 
L 1010.805314 356.400109 
L 1018.69224 356.956754 
L 1022.635703 355.59567 
L 1026.579166 355.760579 
L 1030.522629 356.206366 
L 1034.466092 357.078168 
L 1038.409554 356.672247 
L 1042.353017 356.07109 
L 1046.29648 352.832164 
L 1050.239943 353.18026 
L 1054.183406 353.125547 
L 1058.126869 352.303824 
L 1062.070332 351.357505 
L 1066.013795 350.692448 
L 1069.957258 347.911087 
L 1073.900721 347.41069 
L 1077.844183 345.895035 
L 1081.787646 345.359924 
L 1085.731109 343.461231 
L 1089.674572 339.683202 
L 1093.618035 334.688728 
L 1097.561498 333.032177 
L 1101.504961 330.677223 
L 1105.448424 340.005228 
L 1109.391887 337.918126 
L 1113.335349 326.269023 
L 1117.278812 331.576663 
L 1121.222275 330.221412 
L 1125.165738 334.973178 
L 1129.109201 338.187542 
L 1133.052664 339.441635 
L 1136.996127 342.154778 
L 1140.93959 343.408845 
L 1144.883053 342.02128 
L 1148.826516 345.08057 
L 1152.769978 351.384769 
L 1160.656904 356.512632 
L 1164.600367 359.902335 
L 1168.54383 362.150208 
L 1172.487293 367.119612 
L 1176.430756 371.658614 
L 1180.374219 375.235176 
L 1180.374219 375.235176 
" style="fill:none;stroke:#ff7f0e;stroke-linecap:square;stroke-width:1.5;"/>
   </g>
   <g id="line2d_14">
    <path clip-path="url(#p828d54ca77)" d="M 64.374219 353.042112 
L 68.317682 352.369767 
L 72.261145 353.588856 
L 76.204607 353.543381 
L 80.14807 353.137875 
L 84.091533 352.449095 
L 88.034996 353.514712 
L 91.978459 353.281269 
L 95.921922 353.258334 
L 99.865385 352.63135 
L 103.808848 354.023508 
L 107.752311 352.225968 
L 111.695774 352.063009 
L 115.639236 350.726601 
L 123.526162 350.791476 
L 127.469625 349.592937 
L 131.413088 344.315033 
L 135.356551 345.353734 
L 139.300014 349.815949 
L 143.243477 347.848773 
L 147.18694 345.597815 
L 151.130402 348.384081 
L 155.073865 336.886506 
L 159.017328 333.683231 
L 162.960791 338.661314 
L 166.904254 327.68588 
L 170.847717 305.603728 
L 174.79118 310.424764 
L 178.734643 337.848912 
L 182.678106 332.354917 
L 186.621569 330.338216 
L 190.565031 320.628062 
L 194.508494 311.5164 
L 198.451957 328.930754 
L 202.39542 341.033068 
L 206.338883 339.733432 
L 210.282346 340.685267 
L 214.225809 346.794375 
L 218.169272 347.985864 
L 222.112735 353.486946 
L 226.056198 362.751562 
L 229.99966 358.39135 
L 233.943123 354.658838 
L 237.886586 359.217635 
L 241.830049 366.385481 
L 245.773512 360.148619 
L 249.716975 371.180208 
L 253.660438 372.984011 
L 257.603901 380.256421 
L 261.547364 403.469388 
L 265.490827 399.732812 
L 269.434289 380.596348 
L 273.377752 413.04745 
L 277.321215 393.780832 
L 281.264678 323.572772 
L 285.208141 351.883118 
L 289.151604 301.609409 
L 293.095067 359.070726 
L 297.03853 344.788359 
L 300.981993 344.173381 
L 304.925455 345.152277 
L 308.868918 350.485745 
L 312.812381 350.883972 
L 320.699307 351.964872 
L 324.64277 352.759782 
L 328.586233 352.864399 
L 332.529696 352.684456 
L 336.473159 351.411203 
L 340.416622 352.246995 
L 344.360084 352.309402 
L 348.303547 351.850281 
L 352.24701 352.627741 
L 356.190473 352.828597 
L 360.133936 352.592779 
L 364.077399 353.825991 
L 368.020862 352.833004 
L 371.964325 352.834559 
L 375.907788 353.418359 
L 379.851251 352.723638 
L 383.794713 352.306001 
L 387.738176 352.132477 
L 391.681639 352.709092 
L 395.625102 353.53071 
L 399.568565 352.384065 
L 407.455491 354.030848 
L 411.398954 352.716795 
L 415.342417 352.301418 
L 419.28588 352.5075 
L 423.229342 353.540851 
L 427.172805 353.586285 
L 431.116268 352.231899 
L 435.059731 354.131245 
L 439.003194 353.545662 
L 442.946657 352.391582 
L 446.89012 351.831836 
L 450.833583 354.191703 
L 454.777046 352.399669 
L 458.720509 352.224838 
L 462.663971 349.057049 
L 466.607434 348.235575 
L 474.49436 347.869582 
L 478.437823 348.298251 
L 482.381286 347.907199 
L 486.324749 350.750708 
L 490.268212 354.017572 
L 494.211675 352.095902 
L 498.155137 348.857095 
L 502.0986 347.474792 
L 506.042063 344.959151 
L 513.928989 337.422161 
L 517.872452 334.898422 
L 521.815915 331.403128 
L 525.759378 320.615377 
L 529.702841 271.273366 
L 533.646304 256.812138 
L 537.589766 312.54367 
L 541.533229 328.030014 
L 545.476692 320.731777 
L 549.420155 317.444352 
L 557.307081 332.282001 
L 561.250544 340.701467 
L 565.194007 348.071703 
L 569.13747 343.152036 
L 573.080933 334.668899 
L 577.024395 333.110463 
L 580.967858 339.059681 
L 584.911321 346.724969 
L 588.854784 356.734405 
L 592.798247 363.905942 
L 596.74171 363.619433 
L 600.685173 376.909809 
L 604.628636 379.169176 
L 608.572099 367.434145 
L 612.515562 380.925781 
L 616.459024 383.020426 
L 620.402487 380.811325 
L 624.34595 388.525562 
L 628.289413 384.417259 
L 632.232876 381.298699 
L 636.176339 397.374976 
L 640.119802 438.822341 
L 644.063265 408.085842 
L 648.006728 256.050554 
L 651.95019 359.869161 
L 655.893653 360.092319 
L 659.837116 352.3071 
L 663.780579 350.696222 
L 667.724042 349.932904 
L 671.667505 352.226279 
L 675.610968 352.618451 
L 679.554431 351.076191 
L 683.497894 351.894108 
L 687.441357 353.567041 
L 691.384819 353.170224 
L 695.328282 350.855615 
L 699.271745 351.359858 
L 703.215208 353.209178 
L 707.158671 353.234196 
L 711.102134 352.949305 
L 715.045597 353.375154 
L 718.98906 353.347709 
L 722.932523 353.026809 
L 726.875986 352.035263 
L 730.819448 353.123919 
L 738.706374 353.355672 
L 742.649837 352.768036 
L 746.5933 352.56577 
L 750.536763 351.609933 
L 754.480226 352.846887 
L 762.367152 352.210602 
L 766.310615 353.476453 
L 770.254077 354.064463 
L 774.19754 353.563184 
L 778.141003 352.541456 
L 786.027929 355.223685 
L 789.971392 353.908595 
L 793.914855 351.897499 
L 797.858318 353.698284 
L 801.801781 354.951215 
L 805.745243 353.062994 
L 809.688706 351.050032 
L 813.632169 350.87602 
L 817.575632 353.443907 
L 821.519095 351.768993 
L 825.462558 349.644613 
L 829.406021 349.899705 
L 833.349484 346.615759 
L 837.292947 347.568994 
L 841.23641 347.510309 
L 845.179872 348.848427 
L 849.123335 360.338173 
L 853.066798 351.950673 
L 857.010261 349.170644 
L 860.953724 348.654798 
L 864.897187 345.775736 
L 872.784113 336.229536 
L 876.727576 334.227092 
L 880.671039 318.312096 
L 884.614501 287.221894 
L 888.557964 259.633259 
L 892.501427 312.98489 
L 896.44489 333.233157 
L 900.388353 322.805446 
L 904.331816 302.612699 
L 908.275279 307.983109 
L 912.218742 299.458312 
L 916.162205 318.979656 
L 920.105668 343.231847 
L 924.04913 333.80408 
L 927.992593 317.429778 
L 931.936056 320.269078 
L 935.879519 329.621825 
L 939.822982 319.828232 
L 943.766445 344.842824 
L 947.709908 359.979936 
L 951.653371 366.294042 
L 955.596834 388.936284 
L 963.483759 393.335687 
L 967.427222 415.753461 
L 971.370685 455.042586 
L 975.314148 496.94709 
L 979.257611 446.029296 
L 983.201074 285.659261 
L 987.144537 323.994825 
L 991.088 318.889005 
L 995.031463 340.703012 
L 998.974925 348.845669 
L 1002.918388 349.974191 
L 1006.861851 351.330371 
L 1018.69224 353.884914 
L 1022.635703 350.338441 
L 1026.579166 352.290521 
L 1030.522629 351.871163 
L 1034.466092 353.973615 
L 1038.409554 353.29313 
L 1042.353017 352.162254 
L 1046.29648 352.167418 
L 1050.239943 352.39886 
L 1054.183406 353.877221 
L 1058.126869 353.3435 
L 1062.070332 353.51128 
L 1066.013795 352.664756 
L 1069.957258 352.123259 
L 1073.900721 353.494753 
L 1077.844183 351.49615 
L 1081.787646 352.313664 
L 1085.731109 352.635818 
L 1089.674572 352.3648 
L 1093.618035 351.936971 
L 1097.561498 352.476654 
L 1101.504961 352.671662 
L 1105.448424 352.197175 
L 1109.391887 353.061138 
L 1113.335349 352.52075 
L 1117.278812 352.805248 
L 1121.222275 352.653134 
L 1129.109201 353.31141 
L 1133.052664 353.072512 
L 1136.996127 352.300568 
L 1140.93959 353.799935 
L 1144.883053 354.676703 
L 1148.826516 352.56999 
L 1152.769978 351.798709 
L 1156.713441 352.599218 
L 1160.656904 353.928627 
L 1168.54383 351.332113 
L 1172.487293 351.877146 
L 1176.430756 350.918032 
L 1180.374219 349.420729 
L 1180.374219 349.420729 
" style="fill:none;stroke:#2ca02c;stroke-linecap:square;stroke-width:1.5;"/>
   </g>
   <g id="line2d_15">
    <path clip-path="url(#p828d54ca77)" d="M 64.374219 356.374928 
L 68.317682 357.251204 
L 72.261145 358.768842 
L 76.204607 359.751759 
L 80.14807 360.463519 
L 88.034996 361.173951 
L 91.978459 361.091219 
L 95.921922 360.664467 
L 119.582699 359.855363 
L 123.526162 359.924054 
L 127.469625 360.233919 
L 131.413088 360.913991 
L 135.356551 361.965977 
L 139.300014 362.532008 
L 143.243477 362.516258 
L 147.18694 361.744347 
L 151.130402 361.730684 
L 155.073865 362.122143 
L 162.960791 363.516632 
L 166.904254 362.117969 
L 170.847717 360.979646 
L 174.79118 360.855737 
L 178.734643 360.195399 
L 182.678106 358.218371 
L 186.621569 356.760316 
L 190.565031 355.760701 
L 194.508494 355.765445 
L 198.451957 356.559937 
L 202.39542 355.865634 
L 206.338883 355.331291 
L 210.282346 356.347225 
L 218.169272 357.534504 
L 222.112735 356.648931 
L 226.056198 351.845544 
L 229.99966 348.736074 
L 233.943123 345.806111 
L 237.886586 344.236671 
L 241.830049 343.970448 
L 245.773512 344.3139 
L 249.716975 345.251275 
L 253.660438 346.521856 
L 257.603901 347.173655 
L 265.490827 346.216735 
L 269.434289 345.918444 
L 273.377752 346.420338 
L 277.321215 346.67973 
L 281.264678 346.634 
L 289.151604 346.28182 
L 297.03853 346.969861 
L 300.981993 346.780868 
L 308.868918 346.192826 
L 312.812381 345.27101 
L 316.755844 344.486005 
L 320.699307 344.009347 
L 328.586233 344.205361 
L 332.529696 344.357733 
L 336.473159 344.296253 
L 340.416622 343.50916 
L 344.360084 342.405372 
L 348.303547 341.936114 
L 352.24701 343.50157 
L 356.190473 345.954876 
L 360.133936 347.816345 
L 364.077399 348.84689 
L 368.020862 349.568897 
L 371.964325 350.762438 
L 375.907788 351.424104 
L 379.851251 351.580839 
L 383.794713 350.11747 
L 387.738176 348.300404 
L 391.681639 347.479915 
L 395.625102 348.050879 
L 399.568565 349.188254 
L 403.512028 354.225226 
L 407.455491 356.046467 
L 411.398954 356.49656 
L 415.342417 356.5884 
L 423.229342 361.082111 
L 427.172805 362.89804 
L 431.116268 362.628402 
L 435.059731 362.500319 
L 439.003194 361.129929 
L 442.946657 360.503367 
L 446.89012 360.473386 
L 450.833583 360.787426 
L 454.777046 360.736952 
L 458.720509 361.054028 
L 462.663971 361.88742 
L 466.607434 363.439403 
L 478.437823 365.171841 
L 482.381286 365.304857 
L 486.324749 365.121176 
L 490.268212 364.347747 
L 494.211675 363.96919 
L 498.155137 363.825549 
L 502.0986 363.54149 
L 506.042063 362.852879 
L 509.985526 360.618167 
L 513.928989 359.68952 
L 517.872452 359.797299 
L 521.815915 358.620835 
L 525.759378 355.677969 
L 529.702841 354.060901 
L 533.646304 351.039666 
L 537.589766 351.115188 
L 541.533229 351.569644 
L 545.476692 351.490517 
L 549.420155 351.776094 
L 553.363618 351.586912 
L 557.307081 352.079318 
L 561.250544 353.73225 
L 565.194007 356.114968 
L 569.13747 356.490488 
L 573.080933 355.674933 
L 577.024395 353.025613 
L 580.967858 350.912342 
L 584.911321 347.231339 
L 588.854784 344.646725 
L 592.798247 344.143313 
L 600.685173 345.190175 
L 604.628636 347.315779 
L 608.572099 348.981993 
L 612.515562 349.913866 
L 616.459024 349.967566 
L 620.402487 349.320132 
L 624.34595 348.041961 
L 628.289413 346.927926 
L 632.232876 346.218253 
L 640.119802 345.467593 
L 644.063265 345.892258 
L 655.893653 346.402122 
L 659.837116 346.627548 
L 663.780579 345.939127 
L 667.724042 344.544069 
L 671.667505 343.283355 
L 675.610968 341.57957 
L 679.554431 340.351685 
L 683.497894 340.227966 
L 687.441357 340.226827 
L 691.384819 340.441627 
L 695.328282 341.421697 
L 703.215208 343.033452 
L 707.158671 343.631362 
L 711.102134 343.982212 
L 715.045597 344.687332 
L 718.98906 345.990929 
L 722.932523 347.172896 
L 726.875986 346.851835 
L 730.819448 345.577649 
L 734.762911 345.52357 
L 742.649837 345.593778 
L 746.5933 345.030404 
L 750.536763 343.957925 
L 754.480226 345.313514 
L 758.423689 347.264926 
L 762.367152 350.192422 
L 766.310615 356.836596 
L 770.254077 357.229952 
L 774.19754 356.731283 
L 778.141003 355.170571 
L 782.084466 354.495433 
L 786.027929 354.483669 
L 789.971392 357.613441 
L 793.914855 358.938481 
L 797.858318 360.111909 
L 801.801781 361.942069 
L 805.745243 362.380965 
L 809.688706 361.877173 
L 813.632169 361.200137 
L 817.575632 361.087424 
L 821.519095 361.488181 
L 825.462558 363.795947 
L 829.406021 365.587587 
L 833.349484 366.827998 
L 837.292947 367.945448 
L 845.179872 369.218116 
L 849.123335 369.075991 
L 853.066798 367.952279 
L 857.010261 368.967832 
L 860.953724 370.905583 
L 864.897187 371.302735 
L 868.84065 370.380727 
L 872.784113 369.240317 
L 876.727576 366.682457 
L 880.671039 363.710179 
L 884.614501 361.329738 
L 888.557964 360.123673 
L 892.501427 358.022547 
L 896.44489 353.939839 
L 900.388353 355.136416 
L 904.331816 356.761454 
L 908.275279 356.48897 
L 912.218742 352.087478 
L 916.162205 351.443459 
L 920.105668 355.081388 
L 924.04913 356.425782 
L 927.992593 357.076253 
L 931.936056 354.839454 
L 935.879519 353.76261 
L 939.822982 352.196016 
L 943.766445 349.962253 
L 947.709908 348.04993 
L 951.653371 347.5598 
L 955.596834 348.633419 
L 963.483759 350.016333 
L 967.427222 349.470226 
L 971.370685 348.300024 
L 975.314148 347.25373 
L 979.257611 346.578403 
L 983.201074 346.5118 
L 987.144537 347.155059 
L 991.088 347.670806 
L 998.974925 348.14234 
L 1002.918388 348.027919 
L 1010.805314 346.338555 
L 1014.748777 345.179359 
L 1018.69224 344.477846 
L 1022.635703 344.024338 
L 1026.579166 343.018082 
L 1030.522629 341.478052 
L 1034.466092 339.636318 
L 1038.409554 338.224941 
L 1042.353017 335.703894 
L 1046.29648 334.558549 
L 1050.239943 335.137294 
L 1054.183406 336.125523 
L 1058.126869 339.041824 
L 1062.070332 340.902534 
L 1066.013795 340.735174 
L 1069.957258 341.002154 
L 1073.900721 342.734213 
L 1077.844183 343.556409 
L 1081.787646 343.641608 
L 1085.731109 344.268169 
L 1089.674572 344.53553 
L 1093.618035 344.937046 
L 1097.561498 348.17327 
L 1101.504961 351.804178 
L 1105.448424 357.857463 
L 1109.391887 363.521755 
L 1113.335349 364.785125 
L 1117.278812 363.622324 
L 1121.222275 359.213812 
L 1125.165738 358.133742 
L 1129.109201 358.267707 
L 1133.052664 359.150054 
L 1140.93959 360.142079 
L 1152.769978 360.319117 
L 1160.656904 359.815136 
L 1164.600367 359.745307 
L 1168.54383 360.198056 
L 1180.374219 362.147191 
L 1180.374219 362.147191 
" style="fill:none;stroke:#d62728;stroke-linecap:square;stroke-width:1.5;"/>
   </g>
   <g id="patch_3">
    <path d="M 64.374219 570.477187 
L 64.374219 26.877187 
" style="fill:none;stroke:#000000;stroke-linecap:square;stroke-linejoin:miter;stroke-width:0.8;"/>
   </g>
   <g id="patch_4">
    <path d="M 1180.374219 570.477187 
L 1180.374219 26.877187 
" style="fill:none;stroke:#000000;stroke-linecap:square;stroke-linejoin:miter;stroke-width:0.8;"/>
   </g>
   <g id="patch_5">
    <path d="M 64.374219 570.477187 
L 1180.374219 570.477187 
" style="fill:none;stroke:#000000;stroke-linecap:square;stroke-linejoin:miter;stroke-width:0.8;"/>
   </g>
   <g id="patch_6">
    <path d="M 64.374219 26.877187 
L 1180.374219 26.877187 
" style="fill:none;stroke:#000000;stroke-linecap:square;stroke-linejoin:miter;stroke-width:0.8;"/>
   </g>
   <g id="text_14">
    <!-- Extract of measured movement during pelvic obliquity measurement -->
    <defs>
     <path d="M 9.8125 72.90625 
L 55.90625 72.90625 
L 55.90625 64.59375 
L 19.671875 64.59375 
L 19.671875 43.015625 
L 54.390625 43.015625 
L 54.390625 34.71875 
L 19.671875 34.71875 
L 19.671875 8.296875 
L 56.78125 8.296875 
L 56.78125 0 
L 9.8125 0 
z
" id="DejaVuSans-69"/>
     <path d="M 54.890625 54.6875 
L 35.109375 28.078125 
L 55.90625 0 
L 45.3125 0 
L 29.390625 21.484375 
L 13.484375 0 
L 2.875 0 
L 24.125 28.609375 
L 4.6875 54.6875 
L 15.28125 54.6875 
L 29.78125 35.203125 
L 44.28125 54.6875 
z
" id="DejaVuSans-120"/>
     <path d="M 37.109375 75.984375 
L 37.109375 68.5 
L 28.515625 68.5 
Q 23.6875 68.5 21.796875 66.546875 
Q 19.921875 64.59375 19.921875 59.515625 
L 19.921875 54.6875 
L 34.71875 54.6875 
L 34.71875 47.703125 
L 19.921875 47.703125 
L 19.921875 0 
L 10.890625 0 
L 10.890625 47.703125 
L 2.296875 47.703125 
L 2.296875 54.6875 
L 10.890625 54.6875 
L 10.890625 58.5 
Q 10.890625 67.625 15.140625 71.796875 
Q 19.390625 75.984375 28.609375 75.984375 
z
" id="DejaVuSans-102"/>
     <path d="M 8.5 21.578125 
L 8.5 54.6875 
L 17.484375 54.6875 
L 17.484375 21.921875 
Q 17.484375 14.15625 20.5 10.265625 
Q 23.53125 6.390625 29.59375 6.390625 
Q 36.859375 6.390625 41.078125 11.03125 
Q 45.3125 15.671875 45.3125 23.6875 
L 45.3125 54.6875 
L 54.296875 54.6875 
L 54.296875 0 
L 45.3125 0 
L 45.3125 8.40625 
Q 42.046875 3.421875 37.71875 1 
Q 33.40625 -1.421875 27.6875 -1.421875 
Q 18.265625 -1.421875 13.375 4.4375 
Q 8.5 10.296875 8.5 21.578125 
z
M 31.109375 56 
z
" id="DejaVuSans-117"/>
     <path d="M 45.40625 46.390625 
L 45.40625 75.984375 
L 54.390625 75.984375 
L 54.390625 0 
L 45.40625 0 
L 45.40625 8.203125 
Q 42.578125 3.328125 38.25 0.953125 
Q 33.9375 -1.421875 27.875 -1.421875 
Q 17.96875 -1.421875 11.734375 6.484375 
Q 5.515625 14.40625 5.515625 27.296875 
Q 5.515625 40.1875 11.734375 48.09375 
Q 17.96875 56 27.875 56 
Q 33.9375 56 38.25 53.625 
Q 42.578125 51.265625 45.40625 46.390625 
z
M 14.796875 27.296875 
Q 14.796875 17.390625 18.875 11.75 
Q 22.953125 6.109375 30.078125 6.109375 
Q 37.203125 6.109375 41.296875 11.75 
Q 45.40625 17.390625 45.40625 27.296875 
Q 45.40625 37.203125 41.296875 42.84375 
Q 37.203125 48.484375 30.078125 48.484375 
Q 22.953125 48.484375 18.875 42.84375 
Q 14.796875 37.203125 14.796875 27.296875 
z
" id="DejaVuSans-100"/>
     <path d="M 45.40625 27.984375 
Q 45.40625 37.75 41.375 43.109375 
Q 37.359375 48.484375 30.078125 48.484375 
Q 22.859375 48.484375 18.828125 43.109375 
Q 14.796875 37.75 14.796875 27.984375 
Q 14.796875 18.265625 18.828125 12.890625 
Q 22.859375 7.515625 30.078125 7.515625 
Q 37.359375 7.515625 41.375 12.890625 
Q 45.40625 18.265625 45.40625 27.984375 
z
M 54.390625 6.78125 
Q 54.390625 -7.171875 48.1875 -13.984375 
Q 42 -20.796875 29.203125 -20.796875 
Q 24.46875 -20.796875 20.265625 -20.09375 
Q 16.0625 -19.390625 12.109375 -17.921875 
L 12.109375 -9.1875 
Q 16.0625 -11.328125 19.921875 -12.34375 
Q 23.78125 -13.375 27.78125 -13.375 
Q 36.625 -13.375 41.015625 -8.765625 
Q 45.40625 -4.15625 45.40625 5.171875 
L 45.40625 9.625 
Q 42.625 4.78125 38.28125 2.390625 
Q 33.9375 0 27.875 0 
Q 17.828125 0 11.671875 7.65625 
Q 5.515625 15.328125 5.515625 27.984375 
Q 5.515625 40.671875 11.671875 48.328125 
Q 17.828125 56 27.875 56 
Q 33.9375 56 38.28125 53.609375 
Q 42.625 51.21875 45.40625 46.390625 
L 45.40625 54.6875 
L 54.390625 54.6875 
z
" id="DejaVuSans-103"/>
     <path d="M 18.109375 8.203125 
L 18.109375 -20.796875 
L 9.078125 -20.796875 
L 9.078125 54.6875 
L 18.109375 54.6875 
L 18.109375 46.390625 
Q 20.953125 51.265625 25.265625 53.625 
Q 29.59375 56 35.59375 56 
Q 45.5625 56 51.78125 48.09375 
Q 58.015625 40.1875 58.015625 27.296875 
Q 58.015625 14.40625 51.78125 6.484375 
Q 45.5625 -1.421875 35.59375 -1.421875 
Q 29.59375 -1.421875 25.265625 0.953125 
Q 20.953125 3.328125 18.109375 8.203125 
z
M 48.6875 27.296875 
Q 48.6875 37.203125 44.609375 42.84375 
Q 40.53125 48.484375 33.40625 48.484375 
Q 26.265625 48.484375 22.1875 42.84375 
Q 18.109375 37.203125 18.109375 27.296875 
Q 18.109375 17.390625 22.1875 11.75 
Q 26.265625 6.109375 33.40625 6.109375 
Q 40.53125 6.109375 44.609375 11.75 
Q 48.6875 17.390625 48.6875 27.296875 
z
" id="DejaVuSans-112"/>
     <path d="M 48.6875 27.296875 
Q 48.6875 37.203125 44.609375 42.84375 
Q 40.53125 48.484375 33.40625 48.484375 
Q 26.265625 48.484375 22.1875 42.84375 
Q 18.109375 37.203125 18.109375 27.296875 
Q 18.109375 17.390625 22.1875 11.75 
Q 26.265625 6.109375 33.40625 6.109375 
Q 40.53125 6.109375 44.609375 11.75 
Q 48.6875 17.390625 48.6875 27.296875 
z
M 18.109375 46.390625 
Q 20.953125 51.265625 25.265625 53.625 
Q 29.59375 56 35.59375 56 
Q 45.5625 56 51.78125 48.09375 
Q 58.015625 40.1875 58.015625 27.296875 
Q 58.015625 14.40625 51.78125 6.484375 
Q 45.5625 -1.421875 35.59375 -1.421875 
Q 29.59375 -1.421875 25.265625 0.953125 
Q 20.953125 3.328125 18.109375 8.203125 
L 18.109375 0 
L 9.078125 0 
L 9.078125 75.984375 
L 18.109375 75.984375 
z
" id="DejaVuSans-98"/>
     <path d="M 14.796875 27.296875 
Q 14.796875 17.390625 18.875 11.75 
Q 22.953125 6.109375 30.078125 6.109375 
Q 37.203125 6.109375 41.296875 11.75 
Q 45.40625 17.390625 45.40625 27.296875 
Q 45.40625 37.203125 41.296875 42.84375 
Q 37.203125 48.484375 30.078125 48.484375 
Q 22.953125 48.484375 18.875 42.84375 
Q 14.796875 37.203125 14.796875 27.296875 
z
M 45.40625 8.203125 
Q 42.578125 3.328125 38.25 0.953125 
Q 33.9375 -1.421875 27.875 -1.421875 
Q 17.96875 -1.421875 11.734375 6.484375 
Q 5.515625 14.40625 5.515625 27.296875 
Q 5.515625 40.1875 11.734375 48.09375 
Q 17.96875 56 27.875 56 
Q 33.9375 56 38.25 53.625 
Q 42.578125 51.265625 45.40625 46.390625 
L 45.40625 54.6875 
L 54.390625 54.6875 
L 54.390625 -20.796875 
L 45.40625 -20.796875 
z
" id="DejaVuSans-113"/>
     <path d="M 32.171875 -5.078125 
Q 28.375 -14.84375 24.75 -17.8125 
Q 21.140625 -20.796875 15.09375 -20.796875 
L 7.90625 -20.796875 
L 7.90625 -13.28125 
L 13.1875 -13.28125 
Q 16.890625 -13.28125 18.9375 -11.515625 
Q 21 -9.765625 23.484375 -3.21875 
L 25.09375 0.875 
L 2.984375 54.6875 
L 12.5 54.6875 
L 29.59375 11.921875 
L 46.6875 54.6875 
L 56.203125 54.6875 
z
" id="DejaVuSans-121"/>
    </defs>
    <g transform="translate(310.068594 20.877187)scale(0.18 -0.18)">
     <use xlink:href="#DejaVuSans-69"/>
     <use x="63.183594" xlink:href="#DejaVuSans-120"/>
     <use x="122.363281" xlink:href="#DejaVuSans-116"/>
     <use x="161.572266" xlink:href="#DejaVuSans-114"/>
     <use x="202.685547" xlink:href="#DejaVuSans-97"/>
     <use x="263.964844" xlink:href="#DejaVuSans-99"/>
     <use x="318.945312" xlink:href="#DejaVuSans-116"/>
     <use x="358.154297" xlink:href="#DejaVuSans-32"/>
     <use x="389.941406" xlink:href="#DejaVuSans-111"/>
     <use x="451.123047" xlink:href="#DejaVuSans-102"/>
     <use x="486.328125" xlink:href="#DejaVuSans-32"/>
     <use x="518.115234" xlink:href="#DejaVuSans-109"/>
     <use x="615.527344" xlink:href="#DejaVuSans-101"/>
     <use x="677.050781" xlink:href="#DejaVuSans-97"/>
     <use x="738.330078" xlink:href="#DejaVuSans-115"/>
     <use x="790.429688" xlink:href="#DejaVuSans-117"/>
     <use x="853.808594" xlink:href="#DejaVuSans-114"/>
     <use x="894.890625" xlink:href="#DejaVuSans-101"/>
     <use x="956.414062" xlink:href="#DejaVuSans-100"/>
     <use x="1019.890625" xlink:href="#DejaVuSans-32"/>
     <use x="1051.677734" xlink:href="#DejaVuSans-109"/>
     <use x="1149.089844" xlink:href="#DejaVuSans-111"/>
     <use x="1210.271484" xlink:href="#DejaVuSans-118"/>
     <use x="1269.451172" xlink:href="#DejaVuSans-101"/>
     <use x="1330.974609" xlink:href="#DejaVuSans-109"/>
     <use x="1428.386719" xlink:href="#DejaVuSans-101"/>
     <use x="1489.910156" xlink:href="#DejaVuSans-110"/>
     <use x="1553.289062" xlink:href="#DejaVuSans-116"/>
     <use x="1592.498047" xlink:href="#DejaVuSans-32"/>
     <use x="1624.285156" xlink:href="#DejaVuSans-100"/>
     <use x="1687.761719" xlink:href="#DejaVuSans-117"/>
     <use x="1751.140625" xlink:href="#DejaVuSans-114"/>
     <use x="1792.253906" xlink:href="#DejaVuSans-105"/>
     <use x="1820.037109" xlink:href="#DejaVuSans-110"/>
     <use x="1883.416016" xlink:href="#DejaVuSans-103"/>
     <use x="1946.892578" xlink:href="#DejaVuSans-32"/>
     <use x="1978.679688" xlink:href="#DejaVuSans-112"/>
     <use x="2042.15625" xlink:href="#DejaVuSans-101"/>
     <use x="2103.679688" xlink:href="#DejaVuSans-108"/>
     <use x="2131.462891" xlink:href="#DejaVuSans-118"/>
     <use x="2190.642578" xlink:href="#DejaVuSans-105"/>
     <use x="2218.425781" xlink:href="#DejaVuSans-99"/>
     <use x="2273.40625" xlink:href="#DejaVuSans-32"/>
     <use x="2305.193359" xlink:href="#DejaVuSans-111"/>
     <use x="2366.375" xlink:href="#DejaVuSans-98"/>
     <use x="2429.851562" xlink:href="#DejaVuSans-108"/>
     <use x="2457.634766" xlink:href="#DejaVuSans-105"/>
     <use x="2485.417969" xlink:href="#DejaVuSans-113"/>
     <use x="2548.894531" xlink:href="#DejaVuSans-117"/>
     <use x="2612.273438" xlink:href="#DejaVuSans-105"/>
     <use x="2640.056641" xlink:href="#DejaVuSans-116"/>
     <use x="2679.265625" xlink:href="#DejaVuSans-121"/>
     <use x="2738.445312" xlink:href="#DejaVuSans-32"/>
     <use x="2770.232422" xlink:href="#DejaVuSans-109"/>
     <use x="2867.644531" xlink:href="#DejaVuSans-101"/>
     <use x="2929.167969" xlink:href="#DejaVuSans-97"/>
     <use x="2990.447266" xlink:href="#DejaVuSans-115"/>
     <use x="3042.546875" xlink:href="#DejaVuSans-117"/>
     <use x="3105.925781" xlink:href="#DejaVuSans-114"/>
     <use x="3147.007812" xlink:href="#DejaVuSans-101"/>
     <use x="3208.53125" xlink:href="#DejaVuSans-109"/>
     <use x="3305.943359" xlink:href="#DejaVuSans-101"/>
     <use x="3367.466797" xlink:href="#DejaVuSans-110"/>
     <use x="3430.845703" xlink:href="#DejaVuSans-116"/>
    </g>
   </g>
   <g id="legend_1">
    <g id="patch_7">
     <path d="M 827.75 126.945937 
L 1169.874219 126.945937 
Q 1172.874219 126.945937 1172.874219 123.945937 
L 1172.874219 37.377187 
Q 1172.874219 34.377187 1169.874219 34.377187 
L 827.75 34.377187 
Q 824.75 34.377187 824.75 37.377187 
L 824.75 123.945937 
Q 824.75 126.945937 827.75 126.945937 
z
" style="fill:#ffffff;opacity:0.8;stroke:#cccccc;stroke-linejoin:miter;"/>
    </g>
    <g id="line2d_16">
     <path d="M 830.75 46.524844 
L 860.75 46.524844 
" style="fill:none;stroke:#1f77b4;stroke-linecap:square;stroke-width:1.5;"/>
    </g>
    <g id="line2d_17"/>
    <g id="text_15">
     <!-- Vertical Acceleration Hip in m/s² -->
     <defs>
      <path d="M 34.1875 63.1875 
L 20.796875 26.90625 
L 47.609375 26.90625 
z
M 28.609375 72.90625 
L 39.796875 72.90625 
L 67.578125 0 
L 57.328125 0 
L 50.6875 18.703125 
L 17.828125 18.703125 
L 11.1875 0 
L 0.78125 0 
z
" id="DejaVuSans-65"/>
      <path d="M 9.8125 72.90625 
L 19.671875 72.90625 
L 19.671875 43.015625 
L 55.515625 43.015625 
L 55.515625 72.90625 
L 65.375 72.90625 
L 65.375 0 
L 55.515625 0 
L 55.515625 34.71875 
L 19.671875 34.71875 
L 19.671875 0 
L 9.8125 0 
z
" id="DejaVuSans-72"/>
      <path d="M 25.390625 72.90625 
L 33.6875 72.90625 
L 8.296875 -9.28125 
L 0 -9.28125 
z
" id="DejaVuSans-47"/>
      <path d="M 13.09375 38.1875 
L 33.796875 38.1875 
L 33.796875 32.625 
L 4.59375 32.625 
L 4.59375 37.984375 
Q 6.25 39.5 9.328125 42.234375 
Q 26.125 57.125 26.125 61.71875 
Q 26.125 64.9375 23.578125 66.90625 
Q 21.046875 68.890625 16.890625 68.890625 
Q 14.359375 68.890625 11.375 68.03125 
Q 8.40625 67.1875 4.890625 65.484375 
L 4.890625 71.484375 
Q 8.640625 72.859375 11.890625 73.53125 
Q 15.140625 74.21875 17.921875 74.21875 
Q 25 74.21875 29.25 71 
Q 33.5 67.78125 33.5 62.5 
Q 33.5 55.71875 17.328125 41.84375 
Q 14.59375 39.5 13.09375 38.1875 
z
" id="DejaVuSans-178"/>
     </defs>
     <g transform="translate(872.75 51.774844)scale(0.15 -0.15)">
      <use xlink:href="#DejaVuSans-86"/>
      <use x="68.298828" xlink:href="#DejaVuSans-101"/>
      <use x="129.822266" xlink:href="#DejaVuSans-114"/>
      <use x="170.935547" xlink:href="#DejaVuSans-116"/>
      <use x="210.144531" xlink:href="#DejaVuSans-105"/>
      <use x="237.927734" xlink:href="#DejaVuSans-99"/>
      <use x="292.908203" xlink:href="#DejaVuSans-97"/>
      <use x="354.1875" xlink:href="#DejaVuSans-108"/>
      <use x="381.970703" xlink:href="#DejaVuSans-32"/>
      <use x="413.757812" xlink:href="#DejaVuSans-65"/>
      <use x="482.150391" xlink:href="#DejaVuSans-99"/>
      <use x="537.130859" xlink:href="#DejaVuSans-99"/>
      <use x="592.111328" xlink:href="#DejaVuSans-101"/>
      <use x="653.634766" xlink:href="#DejaVuSans-108"/>
      <use x="681.417969" xlink:href="#DejaVuSans-101"/>
      <use x="742.941406" xlink:href="#DejaVuSans-114"/>
      <use x="784.054688" xlink:href="#DejaVuSans-97"/>
      <use x="845.333984" xlink:href="#DejaVuSans-116"/>
      <use x="884.542969" xlink:href="#DejaVuSans-105"/>
      <use x="912.326172" xlink:href="#DejaVuSans-111"/>
      <use x="973.507812" xlink:href="#DejaVuSans-110"/>
      <use x="1036.886719" xlink:href="#DejaVuSans-32"/>
      <use x="1068.673828" xlink:href="#DejaVuSans-72"/>
      <use x="1143.869141" xlink:href="#DejaVuSans-105"/>
      <use x="1171.652344" xlink:href="#DejaVuSans-112"/>
      <use x="1235.128906" xlink:href="#DejaVuSans-32"/>
      <use x="1266.916016" xlink:href="#DejaVuSans-105"/>
      <use x="1294.699219" xlink:href="#DejaVuSans-110"/>
      <use x="1358.078125" xlink:href="#DejaVuSans-32"/>
      <use x="1389.865234" xlink:href="#DejaVuSans-109"/>
      <use x="1487.277344" xlink:href="#DejaVuSans-47"/>
      <use x="1520.96875" xlink:href="#DejaVuSans-115"/>
      <use x="1573.068359" xlink:href="#DejaVuSans-178"/>
     </g>
    </g>
    <g id="line2d_18">
     <path d="M 830.75 68.542031 
L 860.75 68.542031 
" style="fill:none;stroke:#ff7f0e;stroke-linecap:square;stroke-width:1.5;"/>
    </g>
    <g id="line2d_19"/>
    <g id="text_16">
     <!-- Vertical Acceleration Left Foot in m/s² -->
     <defs>
      <path d="M 9.8125 72.90625 
L 19.671875 72.90625 
L 19.671875 8.296875 
L 55.171875 8.296875 
L 55.171875 0 
L 9.8125 0 
z
" id="DejaVuSans-76"/>
      <path d="M 9.8125 72.90625 
L 51.703125 72.90625 
L 51.703125 64.59375 
L 19.671875 64.59375 
L 19.671875 43.109375 
L 48.578125 43.109375 
L 48.578125 34.8125 
L 19.671875 34.8125 
L 19.671875 0 
L 9.8125 0 
z
" id="DejaVuSans-70"/>
     </defs>
     <g transform="translate(872.75 73.792031)scale(0.15 -0.15)">
      <use xlink:href="#DejaVuSans-86"/>
      <use x="68.298828" xlink:href="#DejaVuSans-101"/>
      <use x="129.822266" xlink:href="#DejaVuSans-114"/>
      <use x="170.935547" xlink:href="#DejaVuSans-116"/>
      <use x="210.144531" xlink:href="#DejaVuSans-105"/>
      <use x="237.927734" xlink:href="#DejaVuSans-99"/>
      <use x="292.908203" xlink:href="#DejaVuSans-97"/>
      <use x="354.1875" xlink:href="#DejaVuSans-108"/>
      <use x="381.970703" xlink:href="#DejaVuSans-32"/>
      <use x="413.757812" xlink:href="#DejaVuSans-65"/>
      <use x="482.150391" xlink:href="#DejaVuSans-99"/>
      <use x="537.130859" xlink:href="#DejaVuSans-99"/>
      <use x="592.111328" xlink:href="#DejaVuSans-101"/>
      <use x="653.634766" xlink:href="#DejaVuSans-108"/>
      <use x="681.417969" xlink:href="#DejaVuSans-101"/>
      <use x="742.941406" xlink:href="#DejaVuSans-114"/>
      <use x="784.054688" xlink:href="#DejaVuSans-97"/>
      <use x="845.333984" xlink:href="#DejaVuSans-116"/>
      <use x="884.542969" xlink:href="#DejaVuSans-105"/>
      <use x="912.326172" xlink:href="#DejaVuSans-111"/>
      <use x="973.507812" xlink:href="#DejaVuSans-110"/>
      <use x="1036.886719" xlink:href="#DejaVuSans-32"/>
      <use x="1068.673828" xlink:href="#DejaVuSans-76"/>
      <use x="1124.371094" xlink:href="#DejaVuSans-101"/>
      <use x="1185.894531" xlink:href="#DejaVuSans-102"/>
      <use x="1221.083984" xlink:href="#DejaVuSans-116"/>
      <use x="1260.292969" xlink:href="#DejaVuSans-32"/>
      <use x="1292.080078" xlink:href="#DejaVuSans-70"/>
      <use x="1349.552734" xlink:href="#DejaVuSans-111"/>
      <use x="1410.734375" xlink:href="#DejaVuSans-111"/>
      <use x="1471.916016" xlink:href="#DejaVuSans-116"/>
      <use x="1511.125" xlink:href="#DejaVuSans-32"/>
      <use x="1542.912109" xlink:href="#DejaVuSans-105"/>
      <use x="1570.695312" xlink:href="#DejaVuSans-110"/>
      <use x="1634.074219" xlink:href="#DejaVuSans-32"/>
      <use x="1665.861328" xlink:href="#DejaVuSans-109"/>
      <use x="1763.273438" xlink:href="#DejaVuSans-47"/>
      <use x="1796.964844" xlink:href="#DejaVuSans-115"/>
      <use x="1849.064453" xlink:href="#DejaVuSans-178"/>
     </g>
    </g>
    <g id="line2d_20">
     <path d="M 830.75 90.559219 
L 860.75 90.559219 
" style="fill:none;stroke:#2ca02c;stroke-linecap:square;stroke-width:1.5;"/>
    </g>
    <g id="line2d_21"/>
    <g id="text_17">
     <!-- Vertical Acceleration Right Foot in m/s² -->
     <defs>
      <path d="M 44.390625 34.1875 
Q 47.5625 33.109375 50.5625 29.59375 
Q 53.5625 26.078125 56.59375 19.921875 
L 66.609375 0 
L 56 0 
L 46.6875 18.703125 
Q 43.0625 26.03125 39.671875 28.421875 
Q 36.28125 30.8125 30.421875 30.8125 
L 19.671875 30.8125 
L 19.671875 0 
L 9.8125 0 
L 9.8125 72.90625 
L 32.078125 72.90625 
Q 44.578125 72.90625 50.734375 67.671875 
Q 56.890625 62.453125 56.890625 51.90625 
Q 56.890625 45.015625 53.6875 40.46875 
Q 50.484375 35.9375 44.390625 34.1875 
z
M 19.671875 64.796875 
L 19.671875 38.921875 
L 32.078125 38.921875 
Q 39.203125 38.921875 42.84375 42.21875 
Q 46.484375 45.515625 46.484375 51.90625 
Q 46.484375 58.296875 42.84375 61.546875 
Q 39.203125 64.796875 32.078125 64.796875 
z
" id="DejaVuSans-82"/>
      <path d="M 54.890625 33.015625 
L 54.890625 0 
L 45.90625 0 
L 45.90625 32.71875 
Q 45.90625 40.484375 42.875 44.328125 
Q 39.84375 48.1875 33.796875 48.1875 
Q 26.515625 48.1875 22.3125 43.546875 
Q 18.109375 38.921875 18.109375 30.90625 
L 18.109375 0 
L 9.078125 0 
L 9.078125 75.984375 
L 18.109375 75.984375 
L 18.109375 46.1875 
Q 21.34375 51.125 25.703125 53.5625 
Q 30.078125 56 35.796875 56 
Q 45.21875 56 50.046875 50.171875 
Q 54.890625 44.34375 54.890625 33.015625 
z
" id="DejaVuSans-104"/>
     </defs>
     <g transform="translate(872.75 95.809219)scale(0.15 -0.15)">
      <use xlink:href="#DejaVuSans-86"/>
      <use x="68.298828" xlink:href="#DejaVuSans-101"/>
      <use x="129.822266" xlink:href="#DejaVuSans-114"/>
      <use x="170.935547" xlink:href="#DejaVuSans-116"/>
      <use x="210.144531" xlink:href="#DejaVuSans-105"/>
      <use x="237.927734" xlink:href="#DejaVuSans-99"/>
      <use x="292.908203" xlink:href="#DejaVuSans-97"/>
      <use x="354.1875" xlink:href="#DejaVuSans-108"/>
      <use x="381.970703" xlink:href="#DejaVuSans-32"/>
      <use x="413.757812" xlink:href="#DejaVuSans-65"/>
      <use x="482.150391" xlink:href="#DejaVuSans-99"/>
      <use x="537.130859" xlink:href="#DejaVuSans-99"/>
      <use x="592.111328" xlink:href="#DejaVuSans-101"/>
      <use x="653.634766" xlink:href="#DejaVuSans-108"/>
      <use x="681.417969" xlink:href="#DejaVuSans-101"/>
      <use x="742.941406" xlink:href="#DejaVuSans-114"/>
      <use x="784.054688" xlink:href="#DejaVuSans-97"/>
      <use x="845.333984" xlink:href="#DejaVuSans-116"/>
      <use x="884.542969" xlink:href="#DejaVuSans-105"/>
      <use x="912.326172" xlink:href="#DejaVuSans-111"/>
      <use x="973.507812" xlink:href="#DejaVuSans-110"/>
      <use x="1036.886719" xlink:href="#DejaVuSans-32"/>
      <use x="1068.673828" xlink:href="#DejaVuSans-82"/>
      <use x="1138.15625" xlink:href="#DejaVuSans-105"/>
      <use x="1165.939453" xlink:href="#DejaVuSans-103"/>
      <use x="1229.416016" xlink:href="#DejaVuSans-104"/>
      <use x="1292.794922" xlink:href="#DejaVuSans-116"/>
      <use x="1332.003906" xlink:href="#DejaVuSans-32"/>
      <use x="1363.791016" xlink:href="#DejaVuSans-70"/>
      <use x="1421.263672" xlink:href="#DejaVuSans-111"/>
      <use x="1482.445312" xlink:href="#DejaVuSans-111"/>
      <use x="1543.626953" xlink:href="#DejaVuSans-116"/>
      <use x="1582.835938" xlink:href="#DejaVuSans-32"/>
      <use x="1614.623047" xlink:href="#DejaVuSans-105"/>
      <use x="1642.40625" xlink:href="#DejaVuSans-110"/>
      <use x="1705.785156" xlink:href="#DejaVuSans-32"/>
      <use x="1737.572266" xlink:href="#DejaVuSans-109"/>
      <use x="1834.984375" xlink:href="#DejaVuSans-47"/>
      <use x="1868.675781" xlink:href="#DejaVuSans-115"/>
      <use x="1920.775391" xlink:href="#DejaVuSans-178"/>
     </g>
    </g>
    <g id="line2d_22">
     <path d="M 830.75 112.576406 
L 860.75 112.576406 
" style="fill:none;stroke:#d62728;stroke-linecap:square;stroke-width:1.5;"/>
    </g>
    <g id="line2d_23"/>
    <g id="text_18">
     <!-- Vertical Rotation Hip in rad/s -->
     <g transform="translate(872.75 117.826406)scale(0.15 -0.15)">
      <use xlink:href="#DejaVuSans-86"/>
      <use x="68.298828" xlink:href="#DejaVuSans-101"/>
      <use x="129.822266" xlink:href="#DejaVuSans-114"/>
      <use x="170.935547" xlink:href="#DejaVuSans-116"/>
      <use x="210.144531" xlink:href="#DejaVuSans-105"/>
      <use x="237.927734" xlink:href="#DejaVuSans-99"/>
      <use x="292.908203" xlink:href="#DejaVuSans-97"/>
      <use x="354.1875" xlink:href="#DejaVuSans-108"/>
      <use x="381.970703" xlink:href="#DejaVuSans-32"/>
      <use x="413.757812" xlink:href="#DejaVuSans-82"/>
      <use x="483.177734" xlink:href="#DejaVuSans-111"/>
      <use x="544.359375" xlink:href="#DejaVuSans-116"/>
      <use x="583.568359" xlink:href="#DejaVuSans-97"/>
      <use x="644.847656" xlink:href="#DejaVuSans-116"/>
      <use x="684.056641" xlink:href="#DejaVuSans-105"/>
      <use x="711.839844" xlink:href="#DejaVuSans-111"/>
      <use x="773.021484" xlink:href="#DejaVuSans-110"/>
      <use x="836.400391" xlink:href="#DejaVuSans-32"/>
      <use x="868.1875" xlink:href="#DejaVuSans-72"/>
      <use x="943.382812" xlink:href="#DejaVuSans-105"/>
      <use x="971.166016" xlink:href="#DejaVuSans-112"/>
      <use x="1034.642578" xlink:href="#DejaVuSans-32"/>
      <use x="1066.429688" xlink:href="#DejaVuSans-105"/>
      <use x="1094.212891" xlink:href="#DejaVuSans-110"/>
      <use x="1157.591797" xlink:href="#DejaVuSans-32"/>
      <use x="1189.378906" xlink:href="#DejaVuSans-114"/>
      <use x="1230.492188" xlink:href="#DejaVuSans-97"/>
      <use x="1291.771484" xlink:href="#DejaVuSans-100"/>
      <use x="1355.248047" xlink:href="#DejaVuSans-47"/>
      <use x="1388.939453" xlink:href="#DejaVuSans-115"/>
     </g>
    </g>
   </g>
  </g>
 </g>
 <defs>
  <clipPath id="p828d54ca77">
   <rect height="543.6" width="1116" x="64.374219" y="26.877187"/>
  </clipPath>
 </defs>
</svg>
