<?xml version="1.0" encoding="utf-8" standalone="no"?>
<!DOCTYPE svg PUBLIC "-//W3C//DTD SVG 1.1//EN"
  "http://www.w3.org/Graphics/SVG/1.1/DTD/svg11.dtd">
<!-- Created with matplotlib (https://matplotlib.org/) -->
<svg height="617.711562pt" version="1.1" viewBox="0 0 1191.074219 617.711562" width="1191.074219pt" xmlns="http://www.w3.org/2000/svg" xmlns:xlink="http://www.w3.org/1999/xlink">
 <defs>
  <style type="text/css">
*{stroke-linecap:butt;stroke-linejoin:round;}
  </style>
 </defs>
 <g id="figure_1">
  <g id="patch_1">
   <path d="M 0 617.711562 
L 1191.074219 617.711562 
L 1191.074219 0 
L 0 0 
z
" style="fill:#ffffff;"/>
  </g>
  <g id="axes_1">
   <g id="patch_2">
    <path d="M 64.374219 570.477187 
L 1180.374219 570.477187 
L 1180.374219 26.877187 
L 64.374219 26.877187 
z
" style="fill:#ffffff;"/>
   </g>
   <g id="matplotlib.axis_1">
    <g id="xtick_1">
     <g id="line2d_1">
      <defs>
       <path d="M 0 0 
L 0 3.5 
" id="m5bb771c212" style="stroke:#000000;stroke-width:0.8;"/>
      </defs>
      <g>
       <use style="stroke:#000000;stroke-width:0.8;" x="115.586456" xlink:href="#m5bb771c212" y="570.477187"/>
      </g>
     </g>
     <g id="text_1">
      <!-- 34000 -->
      <defs>
       <path d="M 40.578125 39.3125 
Q 47.65625 37.796875 51.625 33 
Q 55.609375 28.21875 55.609375 21.1875 
Q 55.609375 10.40625 48.1875 4.484375 
Q 40.765625 -1.421875 27.09375 -1.421875 
Q 22.515625 -1.421875 17.65625 -0.515625 
Q 12.796875 0.390625 7.625 2.203125 
L 7.625 11.71875 
Q 11.71875 9.328125 16.59375 8.109375 
Q 21.484375 6.890625 26.8125 6.890625 
Q 36.078125 6.890625 40.9375 10.546875 
Q 45.796875 14.203125 45.796875 21.1875 
Q 45.796875 27.640625 41.28125 31.265625 
Q 36.765625 34.90625 28.71875 34.90625 
L 20.21875 34.90625 
L 20.21875 43.015625 
L 29.109375 43.015625 
Q 36.375 43.015625 40.234375 45.921875 
Q 44.09375 48.828125 44.09375 54.296875 
Q 44.09375 59.90625 40.109375 62.90625 
Q 36.140625 65.921875 28.71875 65.921875 
Q 24.65625 65.921875 20.015625 65.03125 
Q 15.375 64.15625 9.8125 62.3125 
L 9.8125 71.09375 
Q 15.4375 72.65625 20.34375 73.4375 
Q 25.25 74.21875 29.59375 74.21875 
Q 40.828125 74.21875 47.359375 69.109375 
Q 53.90625 64.015625 53.90625 55.328125 
Q 53.90625 49.265625 50.4375 45.09375 
Q 46.96875 40.921875 40.578125 39.3125 
z
" id="DejaVuSans-51"/>
       <path d="M 37.796875 64.3125 
L 12.890625 25.390625 
L 37.796875 25.390625 
z
M 35.203125 72.90625 
L 47.609375 72.90625 
L 47.609375 25.390625 
L 58.015625 25.390625 
L 58.015625 17.1875 
L 47.609375 17.1875 
L 47.609375 0 
L 37.796875 0 
L 37.796875 17.1875 
L 4.890625 17.1875 
L 4.890625 26.703125 
z
" id="DejaVuSans-52"/>
       <path d="M 31.78125 66.40625 
Q 24.171875 66.40625 20.328125 58.90625 
Q 16.5 51.421875 16.5 36.375 
Q 16.5 21.390625 20.328125 13.890625 
Q 24.171875 6.390625 31.78125 6.390625 
Q 39.453125 6.390625 43.28125 13.890625 
Q 47.125 21.390625 47.125 36.375 
Q 47.125 51.421875 43.28125 58.90625 
Q 39.453125 66.40625 31.78125 66.40625 
z
M 31.78125 74.21875 
Q 44.046875 74.21875 50.515625 64.515625 
Q 56.984375 54.828125 56.984375 36.375 
Q 56.984375 17.96875 50.515625 8.265625 
Q 44.046875 -1.421875 31.78125 -1.421875 
Q 19.53125 -1.421875 13.0625 8.265625 
Q 6.59375 17.96875 6.59375 36.375 
Q 6.59375 54.828125 13.0625 64.515625 
Q 19.53125 74.21875 31.78125 74.21875 
z
" id="DejaVuSans-48"/>
      </defs>
      <g transform="translate(91.727081 588.874844)scale(0.15 -0.15)">
       <use xlink:href="#DejaVuSans-51"/>
       <use x="63.623047" xlink:href="#DejaVuSans-52"/>
       <use x="127.246094" xlink:href="#DejaVuSans-48"/>
       <use x="190.869141" xlink:href="#DejaVuSans-48"/>
       <use x="254.492188" xlink:href="#DejaVuSans-48"/>
      </g>
     </g>
    </g>
    <g id="xtick_2">
     <g id="line2d_2">
      <g>
       <use style="stroke:#000000;stroke-width:0.8;" x="328.970777" xlink:href="#m5bb771c212" y="570.477187"/>
      </g>
     </g>
     <g id="text_2">
      <!-- 36000 -->
      <defs>
       <path d="M 33.015625 40.375 
Q 26.375 40.375 22.484375 35.828125 
Q 18.609375 31.296875 18.609375 23.390625 
Q 18.609375 15.53125 22.484375 10.953125 
Q 26.375 6.390625 33.015625 6.390625 
Q 39.65625 6.390625 43.53125 10.953125 
Q 47.40625 15.53125 47.40625 23.390625 
Q 47.40625 31.296875 43.53125 35.828125 
Q 39.65625 40.375 33.015625 40.375 
z
M 52.59375 71.296875 
L 52.59375 62.3125 
Q 48.875 64.0625 45.09375 64.984375 
Q 41.3125 65.921875 37.59375 65.921875 
Q 27.828125 65.921875 22.671875 59.328125 
Q 17.53125 52.734375 16.796875 39.40625 
Q 19.671875 43.65625 24.015625 45.921875 
Q 28.375 48.1875 33.59375 48.1875 
Q 44.578125 48.1875 50.953125 41.515625 
Q 57.328125 34.859375 57.328125 23.390625 
Q 57.328125 12.15625 50.6875 5.359375 
Q 44.046875 -1.421875 33.015625 -1.421875 
Q 20.359375 -1.421875 13.671875 8.265625 
Q 6.984375 17.96875 6.984375 36.375 
Q 6.984375 53.65625 15.1875 63.9375 
Q 23.390625 74.21875 37.203125 74.21875 
Q 40.921875 74.21875 44.703125 73.484375 
Q 48.484375 72.75 52.59375 71.296875 
z
" id="DejaVuSans-54"/>
      </defs>
      <g transform="translate(305.111402 588.874844)scale(0.15 -0.15)">
       <use xlink:href="#DejaVuSans-51"/>
       <use x="63.623047" xlink:href="#DejaVuSans-54"/>
       <use x="127.246094" xlink:href="#DejaVuSans-48"/>
       <use x="190.869141" xlink:href="#DejaVuSans-48"/>
       <use x="254.492188" xlink:href="#DejaVuSans-48"/>
      </g>
     </g>
    </g>
    <g id="xtick_3">
     <g id="line2d_3">
      <g>
       <use style="stroke:#000000;stroke-width:0.8;" x="542.355098" xlink:href="#m5bb771c212" y="570.477187"/>
      </g>
     </g>
     <g id="text_3">
      <!-- 38000 -->
      <defs>
       <path d="M 31.78125 34.625 
Q 24.75 34.625 20.71875 30.859375 
Q 16.703125 27.09375 16.703125 20.515625 
Q 16.703125 13.921875 20.71875 10.15625 
Q 24.75 6.390625 31.78125 6.390625 
Q 38.8125 6.390625 42.859375 10.171875 
Q 46.921875 13.96875 46.921875 20.515625 
Q 46.921875 27.09375 42.890625 30.859375 
Q 38.875 34.625 31.78125 34.625 
z
M 21.921875 38.8125 
Q 15.578125 40.375 12.03125 44.71875 
Q 8.5 49.078125 8.5 55.328125 
Q 8.5 64.0625 14.71875 69.140625 
Q 20.953125 74.21875 31.78125 74.21875 
Q 42.671875 74.21875 48.875 69.140625 
Q 55.078125 64.0625 55.078125 55.328125 
Q 55.078125 49.078125 51.53125 44.71875 
Q 48 40.375 41.703125 38.8125 
Q 48.828125 37.15625 52.796875 32.3125 
Q 56.78125 27.484375 56.78125 20.515625 
Q 56.78125 9.90625 50.3125 4.234375 
Q 43.84375 -1.421875 31.78125 -1.421875 
Q 19.734375 -1.421875 13.25 4.234375 
Q 6.78125 9.90625 6.78125 20.515625 
Q 6.78125 27.484375 10.78125 32.3125 
Q 14.796875 37.15625 21.921875 38.8125 
z
M 18.3125 54.390625 
Q 18.3125 48.734375 21.84375 45.5625 
Q 25.390625 42.390625 31.78125 42.390625 
Q 38.140625 42.390625 41.71875 45.5625 
Q 45.3125 48.734375 45.3125 54.390625 
Q 45.3125 60.0625 41.71875 63.234375 
Q 38.140625 66.40625 31.78125 66.40625 
Q 25.390625 66.40625 21.84375 63.234375 
Q 18.3125 60.0625 18.3125 54.390625 
z
" id="DejaVuSans-56"/>
      </defs>
      <g transform="translate(518.495723 588.874844)scale(0.15 -0.15)">
       <use xlink:href="#DejaVuSans-51"/>
       <use x="63.623047" xlink:href="#DejaVuSans-56"/>
       <use x="127.246094" xlink:href="#DejaVuSans-48"/>
       <use x="190.869141" xlink:href="#DejaVuSans-48"/>
       <use x="254.492188" xlink:href="#DejaVuSans-48"/>
      </g>
     </g>
    </g>
    <g id="xtick_4">
     <g id="line2d_4">
      <g>
       <use style="stroke:#000000;stroke-width:0.8;" x="755.73942" xlink:href="#m5bb771c212" y="570.477187"/>
      </g>
     </g>
     <g id="text_4">
      <!-- 40000 -->
      <g transform="translate(731.880045 588.874844)scale(0.15 -0.15)">
       <use xlink:href="#DejaVuSans-52"/>
       <use x="63.623047" xlink:href="#DejaVuSans-48"/>
       <use x="127.246094" xlink:href="#DejaVuSans-48"/>
       <use x="190.869141" xlink:href="#DejaVuSans-48"/>
       <use x="254.492188" xlink:href="#DejaVuSans-48"/>
      </g>
     </g>
    </g>
    <g id="xtick_5">
     <g id="line2d_5">
      <g>
       <use style="stroke:#000000;stroke-width:0.8;" x="969.123741" xlink:href="#m5bb771c212" y="570.477187"/>
      </g>
     </g>
     <g id="text_5">
      <!-- 42000 -->
      <defs>
       <path d="M 19.1875 8.296875 
L 53.609375 8.296875 
L 53.609375 0 
L 7.328125 0 
L 7.328125 8.296875 
Q 12.9375 14.109375 22.625 23.890625 
Q 32.328125 33.6875 34.8125 36.53125 
Q 39.546875 41.84375 41.421875 45.53125 
Q 43.3125 49.21875 43.3125 52.78125 
Q 43.3125 58.59375 39.234375 62.25 
Q 35.15625 65.921875 28.609375 65.921875 
Q 23.96875 65.921875 18.8125 64.3125 
Q 13.671875 62.703125 7.8125 59.421875 
L 7.8125 69.390625 
Q 13.765625 71.78125 18.9375 73 
Q 24.125 74.21875 28.421875 74.21875 
Q 39.75 74.21875 46.484375 68.546875 
Q 53.21875 62.890625 53.21875 53.421875 
Q 53.21875 48.921875 51.53125 44.890625 
Q 49.859375 40.875 45.40625 35.40625 
Q 44.1875 33.984375 37.640625 27.21875 
Q 31.109375 20.453125 19.1875 8.296875 
z
" id="DejaVuSans-50"/>
      </defs>
      <g transform="translate(945.264366 588.874844)scale(0.15 -0.15)">
       <use xlink:href="#DejaVuSans-52"/>
       <use x="63.623047" xlink:href="#DejaVuSans-50"/>
       <use x="127.246094" xlink:href="#DejaVuSans-48"/>
       <use x="190.869141" xlink:href="#DejaVuSans-48"/>
       <use x="254.492188" xlink:href="#DejaVuSans-48"/>
      </g>
     </g>
    </g>
    <g id="text_6">
     <!-- Time in ms -->
     <defs>
      <path d="M -0.296875 72.90625 
L 61.375 72.90625 
L 61.375 64.59375 
L 35.5 64.59375 
L 35.5 0 
L 25.59375 0 
L 25.59375 64.59375 
L -0.296875 64.59375 
z
" id="DejaVuSans-84"/>
      <path d="M 9.421875 54.6875 
L 18.40625 54.6875 
L 18.40625 0 
L 9.421875 0 
z
M 9.421875 75.984375 
L 18.40625 75.984375 
L 18.40625 64.59375 
L 9.421875 64.59375 
z
" id="DejaVuSans-105"/>
      <path d="M 52 44.1875 
Q 55.375 50.25 60.0625 53.125 
Q 64.75 56 71.09375 56 
Q 79.640625 56 84.28125 50.015625 
Q 88.921875 44.046875 88.921875 33.015625 
L 88.921875 0 
L 79.890625 0 
L 79.890625 32.71875 
Q 79.890625 40.578125 77.09375 44.375 
Q 74.3125 48.1875 68.609375 48.1875 
Q 61.625 48.1875 57.5625 43.546875 
Q 53.515625 38.921875 53.515625 30.90625 
L 53.515625 0 
L 44.484375 0 
L 44.484375 32.71875 
Q 44.484375 40.625 41.703125 44.40625 
Q 38.921875 48.1875 33.109375 48.1875 
Q 26.21875 48.1875 22.15625 43.53125 
Q 18.109375 38.875 18.109375 30.90625 
L 18.109375 0 
L 9.078125 0 
L 9.078125 54.6875 
L 18.109375 54.6875 
L 18.109375 46.1875 
Q 21.1875 51.21875 25.484375 53.609375 
Q 29.78125 56 35.6875 56 
Q 41.65625 56 45.828125 52.96875 
Q 50 49.953125 52 44.1875 
z
" id="DejaVuSans-109"/>
      <path d="M 56.203125 29.59375 
L 56.203125 25.203125 
L 14.890625 25.203125 
Q 15.484375 15.921875 20.484375 11.0625 
Q 25.484375 6.203125 34.421875 6.203125 
Q 39.59375 6.203125 44.453125 7.46875 
Q 49.3125 8.734375 54.109375 11.28125 
L 54.109375 2.78125 
Q 49.265625 0.734375 44.1875 -0.34375 
Q 39.109375 -1.421875 33.890625 -1.421875 
Q 20.796875 -1.421875 13.15625 6.1875 
Q 5.515625 13.8125 5.515625 26.8125 
Q 5.515625 40.234375 12.765625 48.109375 
Q 20.015625 56 32.328125 56 
Q 43.359375 56 49.78125 48.890625 
Q 56.203125 41.796875 56.203125 29.59375 
z
M 47.21875 32.234375 
Q 47.125 39.59375 43.09375 43.984375 
Q 39.0625 48.390625 32.421875 48.390625 
Q 24.90625 48.390625 20.390625 44.140625 
Q 15.875 39.890625 15.1875 32.171875 
z
" id="DejaVuSans-101"/>
      <path id="DejaVuSans-32"/>
      <path d="M 54.890625 33.015625 
L 54.890625 0 
L 45.90625 0 
L 45.90625 32.71875 
Q 45.90625 40.484375 42.875 44.328125 
Q 39.84375 48.1875 33.796875 48.1875 
Q 26.515625 48.1875 22.3125 43.546875 
Q 18.109375 38.921875 18.109375 30.90625 
L 18.109375 0 
L 9.078125 0 
L 9.078125 54.6875 
L 18.109375 54.6875 
L 18.109375 46.1875 
Q 21.34375 51.125 25.703125 53.5625 
Q 30.078125 56 35.796875 56 
Q 45.21875 56 50.046875 50.171875 
Q 54.890625 44.34375 54.890625 33.015625 
z
" id="DejaVuSans-110"/>
      <path d="M 44.28125 53.078125 
L 44.28125 44.578125 
Q 40.484375 46.53125 36.375 47.5 
Q 32.28125 48.484375 27.875 48.484375 
Q 21.1875 48.484375 17.84375 46.4375 
Q 14.5 44.390625 14.5 40.28125 
Q 14.5 37.15625 16.890625 35.375 
Q 19.28125 33.59375 26.515625 31.984375 
L 29.59375 31.296875 
Q 39.15625 29.25 43.1875 25.515625 
Q 47.21875 21.78125 47.21875 15.09375 
Q 47.21875 7.46875 41.1875 3.015625 
Q 35.15625 -1.421875 24.609375 -1.421875 
Q 20.21875 -1.421875 15.453125 -0.5625 
Q 10.6875 0.296875 5.421875 2 
L 5.421875 11.28125 
Q 10.40625 8.6875 15.234375 7.390625 
Q 20.0625 6.109375 24.8125 6.109375 
Q 31.15625 6.109375 34.5625 8.28125 
Q 37.984375 10.453125 37.984375 14.40625 
Q 37.984375 18.0625 35.515625 20.015625 
Q 33.0625 21.96875 24.703125 23.78125 
L 21.578125 24.515625 
Q 13.234375 26.265625 9.515625 29.90625 
Q 5.8125 33.546875 5.8125 39.890625 
Q 5.8125 47.609375 11.28125 51.796875 
Q 16.75 56 26.8125 56 
Q 31.78125 56 36.171875 55.265625 
Q 40.578125 54.546875 44.28125 53.078125 
z
" id="DejaVuSans-115"/>
     </defs>
     <g transform="translate(580.976562 607.392031)scale(0.15 -0.15)">
      <use xlink:href="#DejaVuSans-84"/>
      <use x="61.037109" xlink:href="#DejaVuSans-105"/>
      <use x="88.820312" xlink:href="#DejaVuSans-109"/>
      <use x="186.232422" xlink:href="#DejaVuSans-101"/>
      <use x="247.755859" xlink:href="#DejaVuSans-32"/>
      <use x="279.542969" xlink:href="#DejaVuSans-105"/>
      <use x="307.326172" xlink:href="#DejaVuSans-110"/>
      <use x="370.705078" xlink:href="#DejaVuSans-32"/>
      <use x="402.492188" xlink:href="#DejaVuSans-109"/>
      <use x="499.904297" xlink:href="#DejaVuSans-115"/>
     </g>
    </g>
   </g>
   <g id="matplotlib.axis_2">
    <g id="ytick_1">
     <g id="line2d_6">
      <defs>
       <path d="M 0 0 
L -3.5 0 
" id="m2bbf5574b0" style="stroke:#000000;stroke-width:0.8;"/>
      </defs>
      <g>
       <use style="stroke:#000000;stroke-width:0.8;" x="64.374219" xlink:href="#m2bbf5574b0" y="470.87507"/>
      </g>
     </g>
     <g id="text_7">
      <!-- −10 -->
      <defs>
       <path d="M 10.59375 35.5 
L 73.1875 35.5 
L 73.1875 27.203125 
L 10.59375 27.203125 
z
" id="DejaVuSans-8722"/>
       <path d="M 12.40625 8.296875 
L 28.515625 8.296875 
L 28.515625 63.921875 
L 10.984375 60.40625 
L 10.984375 69.390625 
L 28.421875 72.90625 
L 38.28125 72.90625 
L 38.28125 8.296875 
L 54.390625 8.296875 
L 54.390625 0 
L 12.40625 0 
z
" id="DejaVuSans-49"/>
      </defs>
      <g transform="translate(25.717187 476.573898)scale(0.15 -0.15)">
       <use xlink:href="#DejaVuSans-8722"/>
       <use x="83.789062" xlink:href="#DejaVuSans-49"/>
       <use x="147.412109" xlink:href="#DejaVuSans-48"/>
      </g>
     </g>
    </g>
    <g id="ytick_2">
     <g id="line2d_7">
      <g>
       <use style="stroke:#000000;stroke-width:0.8;" x="64.374219" xlink:href="#m2bbf5574b0" y="352.517534"/>
      </g>
     </g>
     <g id="text_8">
      <!-- 0 -->
      <g transform="translate(47.830469 358.216362)scale(0.15 -0.15)">
       <use xlink:href="#DejaVuSans-48"/>
      </g>
     </g>
    </g>
    <g id="ytick_3">
     <g id="line2d_8">
      <g>
       <use style="stroke:#000000;stroke-width:0.8;" x="64.374219" xlink:href="#m2bbf5574b0" y="234.159998"/>
      </g>
     </g>
     <g id="text_9">
      <!-- 10 -->
      <g transform="translate(38.286719 239.858826)scale(0.15 -0.15)">
       <use xlink:href="#DejaVuSans-49"/>
       <use x="63.623047" xlink:href="#DejaVuSans-48"/>
      </g>
     </g>
    </g>
    <g id="ytick_4">
     <g id="line2d_9">
      <g>
       <use style="stroke:#000000;stroke-width:0.8;" x="64.374219" xlink:href="#m2bbf5574b0" y="115.802462"/>
      </g>
     </g>
     <g id="text_10">
      <!-- 20 -->
      <g transform="translate(38.286719 121.50129)scale(0.15 -0.15)">
       <use xlink:href="#DejaVuSans-50"/>
       <use x="63.623047" xlink:href="#DejaVuSans-48"/>
      </g>
     </g>
    </g>
    <g id="text_11">
     <!-- Vertical movement -->
     <defs>
      <path d="M 28.609375 0 
L 0.78125 72.90625 
L 11.078125 72.90625 
L 34.1875 11.53125 
L 57.328125 72.90625 
L 67.578125 72.90625 
L 39.796875 0 
z
" id="DejaVuSans-86"/>
      <path d="M 41.109375 46.296875 
Q 39.59375 47.171875 37.8125 47.578125 
Q 36.03125 48 33.890625 48 
Q 26.265625 48 22.1875 43.046875 
Q 18.109375 38.09375 18.109375 28.8125 
L 18.109375 0 
L 9.078125 0 
L 9.078125 54.6875 
L 18.109375 54.6875 
L 18.109375 46.1875 
Q 20.953125 51.171875 25.484375 53.578125 
Q 30.03125 56 36.53125 56 
Q 37.453125 56 38.578125 55.875 
Q 39.703125 55.765625 41.0625 55.515625 
z
" id="DejaVuSans-114"/>
      <path d="M 18.3125 70.21875 
L 18.3125 54.6875 
L 36.8125 54.6875 
L 36.8125 47.703125 
L 18.3125 47.703125 
L 18.3125 18.015625 
Q 18.3125 11.328125 20.140625 9.421875 
Q 21.96875 7.515625 27.59375 7.515625 
L 36.8125 7.515625 
L 36.8125 0 
L 27.59375 0 
Q 17.1875 0 13.234375 3.875 
Q 9.28125 7.765625 9.28125 18.015625 
L 9.28125 47.703125 
L 2.6875 47.703125 
L 2.6875 54.6875 
L 9.28125 54.6875 
L 9.28125 70.21875 
z
" id="DejaVuSans-116"/>
      <path d="M 48.78125 52.59375 
L 48.78125 44.1875 
Q 44.96875 46.296875 41.140625 47.34375 
Q 37.3125 48.390625 33.40625 48.390625 
Q 24.65625 48.390625 19.8125 42.84375 
Q 14.984375 37.3125 14.984375 27.296875 
Q 14.984375 17.28125 19.8125 11.734375 
Q 24.65625 6.203125 33.40625 6.203125 
Q 37.3125 6.203125 41.140625 7.25 
Q 44.96875 8.296875 48.78125 10.40625 
L 48.78125 2.09375 
Q 45.015625 0.34375 40.984375 -0.53125 
Q 36.96875 -1.421875 32.421875 -1.421875 
Q 20.0625 -1.421875 12.78125 6.34375 
Q 5.515625 14.109375 5.515625 27.296875 
Q 5.515625 40.671875 12.859375 48.328125 
Q 20.21875 56 33.015625 56 
Q 37.15625 56 41.109375 55.140625 
Q 45.0625 54.296875 48.78125 52.59375 
z
" id="DejaVuSans-99"/>
      <path d="M 34.28125 27.484375 
Q 23.390625 27.484375 19.1875 25 
Q 14.984375 22.515625 14.984375 16.5 
Q 14.984375 11.71875 18.140625 8.90625 
Q 21.296875 6.109375 26.703125 6.109375 
Q 34.1875 6.109375 38.703125 11.40625 
Q 43.21875 16.703125 43.21875 25.484375 
L 43.21875 27.484375 
z
M 52.203125 31.203125 
L 52.203125 0 
L 43.21875 0 
L 43.21875 8.296875 
Q 40.140625 3.328125 35.546875 0.953125 
Q 30.953125 -1.421875 24.3125 -1.421875 
Q 15.921875 -1.421875 10.953125 3.296875 
Q 6 8.015625 6 15.921875 
Q 6 25.140625 12.171875 29.828125 
Q 18.359375 34.515625 30.609375 34.515625 
L 43.21875 34.515625 
L 43.21875 35.40625 
Q 43.21875 41.609375 39.140625 45 
Q 35.0625 48.390625 27.6875 48.390625 
Q 23 48.390625 18.546875 47.265625 
Q 14.109375 46.140625 10.015625 43.890625 
L 10.015625 52.203125 
Q 14.9375 54.109375 19.578125 55.046875 
Q 24.21875 56 28.609375 56 
Q 40.484375 56 46.34375 49.84375 
Q 52.203125 43.703125 52.203125 31.203125 
z
" id="DejaVuSans-97"/>
      <path d="M 9.421875 75.984375 
L 18.40625 75.984375 
L 18.40625 0 
L 9.421875 0 
z
" id="DejaVuSans-108"/>
      <path d="M 30.609375 48.390625 
Q 23.390625 48.390625 19.1875 42.75 
Q 14.984375 37.109375 14.984375 27.296875 
Q 14.984375 17.484375 19.15625 11.84375 
Q 23.34375 6.203125 30.609375 6.203125 
Q 37.796875 6.203125 41.984375 11.859375 
Q 46.1875 17.53125 46.1875 27.296875 
Q 46.1875 37.015625 41.984375 42.703125 
Q 37.796875 48.390625 30.609375 48.390625 
z
M 30.609375 56 
Q 42.328125 56 49.015625 48.375 
Q 55.71875 40.765625 55.71875 27.296875 
Q 55.71875 13.875 49.015625 6.21875 
Q 42.328125 -1.421875 30.609375 -1.421875 
Q 18.84375 -1.421875 12.171875 6.21875 
Q 5.515625 13.875 5.515625 27.296875 
Q 5.515625 40.765625 12.171875 48.375 
Q 18.84375 56 30.609375 56 
z
" id="DejaVuSans-111"/>
      <path d="M 2.984375 54.6875 
L 12.5 54.6875 
L 29.59375 8.796875 
L 46.6875 54.6875 
L 56.203125 54.6875 
L 35.6875 0 
L 23.484375 0 
z
" id="DejaVuSans-118"/>
     </defs>
     <g transform="translate(18.597656 370.270547)rotate(-90)scale(0.15 -0.15)">
      <use xlink:href="#DejaVuSans-86"/>
      <use x="68.298828" xlink:href="#DejaVuSans-101"/>
      <use x="129.822266" xlink:href="#DejaVuSans-114"/>
      <use x="170.935547" xlink:href="#DejaVuSans-116"/>
      <use x="210.144531" xlink:href="#DejaVuSans-105"/>
      <use x="237.927734" xlink:href="#DejaVuSans-99"/>
      <use x="292.908203" xlink:href="#DejaVuSans-97"/>
      <use x="354.1875" xlink:href="#DejaVuSans-108"/>
      <use x="381.970703" xlink:href="#DejaVuSans-32"/>
      <use x="413.757812" xlink:href="#DejaVuSans-109"/>
      <use x="511.169922" xlink:href="#DejaVuSans-111"/>
      <use x="572.351562" xlink:href="#DejaVuSans-118"/>
      <use x="631.53125" xlink:href="#DejaVuSans-101"/>
      <use x="693.054688" xlink:href="#DejaVuSans-109"/>
      <use x="790.466797" xlink:href="#DejaVuSans-101"/>
      <use x="851.990234" xlink:href="#DejaVuSans-110"/>
      <use x="915.369141" xlink:href="#DejaVuSans-116"/>
     </g>
    </g>
   </g>
   <g id="line2d_10">
    <path clip-path="url(#pe9d3a79ee9)" d="M 64.374219 352.003862 
L 66.508062 351.113813 
L 68.641905 351.06647 
L 70.775748 350.750456 
L 72.909592 351.545818 
L 75.043435 351.974272 
L 77.177278 351.584876 
L 79.311121 351.775432 
L 81.444964 351.697316 
L 83.578808 352.085529 
L 85.712651 354.090505 
L 87.846494 354.662172 
L 89.980337 355.430312 
L 92.114181 356.062342 
L 94.248024 355.538018 
L 96.381867 356.617439 
L 98.51571 356.644661 
L 100.649553 354.238452 
L 102.783397 352.802775 
L 104.91724 352.730577 
L 107.051083 354.258573 
L 109.184926 354.335505 
L 111.318769 352.700988 
L 113.452613 352.545939 
L 115.586456 352.704538 
L 117.720299 352.052388 
L 119.854142 350.484151 
L 121.987985 350.078185 
L 124.121829 353.256085 
L 126.255672 353.256085 
L 128.389515 355.201882 
L 130.523358 355.09181 
L 132.657202 352.935336 
L 134.791045 351.944683 
L 136.924888 352.239393 
L 139.058731 353.694007 
L 141.192574 354.885868 
L 143.326418 356.375989 
L 145.460261 355.749878 
L 147.594104 356.520385 
L 149.727947 357.532342 
L 151.86179 360.246281 
L 153.995634 367.692153 
L 158.26332 377.953749 
L 160.397163 375.355804 
L 162.531007 371.600318 
L 164.66485 361.381329 
L 166.798693 348.753764 
L 168.932536 337.609219 
L 171.066379 331.003685 
L 173.200223 333.506946 
L 175.334066 347.038763 
L 177.467909 357.974999 
L 179.601752 366.890872 
L 181.735595 371.218023 
L 183.869439 369.976452 
L 186.003282 359.030749 
L 190.270968 348.322943 
L 192.404811 343.49869 
L 194.538655 340.327891 
L 196.672498 338.668518 
L 198.806341 335.139097 
L 200.940184 332.517478 
L 203.074028 331.130328 
L 205.207871 332.877284 
L 207.341714 336.123831 
L 209.475557 338.150112 
L 211.6094 342.09852 
L 213.743244 346.741686 
L 215.877087 347.86845 
L 218.01093 351.32449 
L 220.144773 352.692703 
L 222.278616 353.220577 
L 224.41246 355.375868 
L 226.546303 359.963406 
L 228.680146 372.60044 
L 230.813989 384.33559 
L 232.947833 389.989529 
L 235.081676 351.706784 
L 237.215519 337.609219 
L 239.349362 331.801415 
L 241.483205 341.017915 
L 243.617049 347.462483 
L 245.750892 358.835459 
L 247.884735 359.697102 
L 250.018578 357.352439 
L 252.152421 354.78408 
L 254.286265 353.483331 
L 256.420108 350.204827 
L 258.553951 348.984561 
L 260.687794 351.703234 
L 262.821637 354.103525 
L 264.955481 352.805142 
L 267.089324 346.892 
L 269.223167 345.747483 
L 271.35701 346.704995 
L 273.490854 348.956156 
L 275.624697 350.540963 
L 277.75854 352.969659 
L 279.892383 352.87734 
L 282.026226 353.646664 
L 284.16007 354.014756 
L 286.293913 355.945168 
L 288.427756 357.531159 
L 290.561599 357.735917 
L 292.695442 359.28285 
L 294.829286 361.615677 
L 296.963129 363.343697 
L 299.096972 366.587877 
L 301.230815 372.037058 
L 303.364659 375.9902 
L 305.498502 371.081912 
L 307.632345 362.144736 
L 309.766188 350.285311 
L 311.900031 348.199851 
L 314.033875 346.948811 
L 316.167718 353.466761 
L 322.569247 358.623599 
L 324.703091 364.065678 
L 326.836934 356.521569 
L 328.970777 349.718378 
L 331.10462 342.397965 
L 333.238463 339.848543 
L 335.372307 338.120523 
L 339.639993 338.140644 
L 341.773836 336.765329 
L 346.041523 334.821898 
L 348.175366 333.452503 
L 350.309209 331.925689 
L 352.443052 335.211296 
L 354.576896 339.608277 
L 356.710739 341.891394 
L 358.844582 348.446035 
L 360.978425 355.701351 
L 363.112268 360.742199 
L 365.246112 362.090291 
L 367.379955 355.14152 
L 371.647641 349.350286 
L 373.781485 348.393957 
L 375.915328 374.380536 
L 378.049171 402.412336 
L 380.183014 404.838666 
L 382.316857 394.303662 
L 384.450701 350.291228 
L 386.584544 323.429987 
L 388.718387 317.983172 
L 390.85223 336.535715 
L 392.986073 351.454683 
L 395.119917 370.158724 
L 397.25376 368.238965 
L 399.387603 355.554588 
L 401.521446 346.531009 
L 403.655289 343.121129 
L 405.789133 340.924413 
L 407.922976 348.157242 
L 410.056819 353.815916 
L 412.190662 355.143887 
L 414.324506 353.528307 
L 416.458349 350.408402 
L 418.592192 348.532435 
L 420.726035 351.143403 
L 422.859878 352.8442 
L 424.993722 352.373137 
L 427.127565 349.609489 
L 429.261408 347.625817 
L 431.395251 350.182339 
L 433.529094 352.296205 
L 435.662938 353.654949 
L 437.796781 351.240456 
L 439.930624 349.661566 
L 442.064467 354.101157 
L 444.198311 353.775674 
L 446.332154 353.943742 
L 448.465997 359.044951 
L 450.59984 376.461263 
L 452.733683 382.19095 
L 454.867527 381.593246 
L 457.00137 378.171529 
L 459.135213 366.635219 
L 463.402899 337.060039 
L 465.536743 335.985354 
L 467.670586 346.861227 
L 469.804429 355.540385 
L 471.938272 362.619349 
L 474.072115 369.287612 
L 476.205959 365.114326 
L 478.339802 351.58961 
L 480.473645 342.358906 
L 482.607488 339.43666 
L 484.741332 337.510982 
L 486.875175 340.713737 
L 489.009018 343.235936 
L 491.142861 343.69398 
L 493.276704 343.228834 
L 495.410548 342.054727 
L 497.544391 340.700717 
L 499.678234 342.335235 
L 501.812077 344.491709 
L 503.94592 344.865719 
L 506.079764 343.14125 
L 508.213607 335.437358 
L 510.34745 335.736802 
L 512.481293 343.434777 
L 514.615137 346.747604 
L 516.74898 352.425215 
L 518.882823 353.164949 
L 521.016666 351.730456 
L 523.150509 349.595286 
L 525.284353 350.222581 
L 527.418196 349.302943 
L 529.552039 355.406641 
L 531.685882 378.186915 
L 533.819725 398.351489 
L 535.953569 404.980695 
L 538.087412 383.96158 
L 540.221255 352.001495 
L 542.355098 324.082136 
L 544.488942 314.852616 
L 546.622785 335.587672 
L 548.756628 364.827901 
L 550.890471 373.974571 
L 553.024314 366.797369 
L 555.158158 352.618137 
L 557.292001 343.433593 
L 559.425844 342.019221 
L 561.559687 346.664754 
L 563.69353 353.9828 
L 565.827374 357.712246 
L 567.961217 355.945168 
L 570.09506 355.945168 
L 572.228903 348.89816 
L 574.362746 349.318329 
L 576.49659 350.407219 
L 578.630433 350.127895 
L 580.764276 351.380118 
L 582.898119 351.749393 
L 585.031963 351.079489 
L 587.165806 350.70548 
L 589.299649 350.591856 
L 591.433492 351.982557 
L 593.567335 353.716495 
L 595.701179 354.759225 
L 597.835022 354.872848 
L 599.968865 355.656375 
L 602.102708 359.44855 
L 604.236551 365.081186 
L 606.370395 367.454255 
L 608.504238 370.803773 
L 610.638081 365.187708 
L 612.771924 360.482996 
L 614.905768 356.123888 
L 617.039611 355.967656 
L 619.173454 363.654978 
L 621.307297 362.503359 
L 623.44114 358.611763 
L 625.574984 351.188379 
L 627.708827 348.35845 
L 629.84267 352.556592 
L 631.976513 358.004589 
L 634.110356 357.96198 
L 636.2442 351.109079 
L 638.378043 348.846083 
L 640.511886 345.167531 
L 642.645729 340.790669 
L 644.779572 340.501876 
L 646.913416 342.213326 
L 649.047259 342.092602 
L 651.181102 338.918254 
L 653.314945 338.50992 
L 655.448789 339.719533 
L 657.582632 338.954943 
L 659.716475 339.388132 
L 661.850318 339.359727 
L 663.984161 341.758834 
L 666.118005 342.622844 
L 668.251848 344.724873 
L 670.385691 346.45171 
L 672.519534 347.451831 
L 674.653377 347.671976 
L 676.787221 350.648668 
L 678.921064 354.658621 
L 681.054907 342.895066 
L 683.18875 355.327341 
L 685.322594 387.66262 
L 687.456437 397.530087 
L 689.59028 397.896996 
L 691.724123 367.828264 
L 693.857966 339.747939 
L 695.99181 323.113971 
L 698.125653 323.929454 
L 700.259496 350.964683 
L 702.393339 367.197418 
L 704.527182 369.201212 
L 706.661026 361.723382 
L 708.794869 355.264612 
L 710.928712 342.930573 
L 713.062555 344.814825 
L 715.196398 350.763475 
L 717.330242 357.328767 
L 719.464085 357.889782 
L 723.731771 348.285068 
L 725.865615 346.710913 
L 727.999458 348.707605 
L 730.133301 351.63577 
L 734.400987 354.919008 
L 736.534831 352.835915 
L 738.668674 349.514803 
L 740.802517 349.668668 
L 742.93636 348.307556 
L 745.070203 349.84502 
L 747.204047 349.863958 
L 749.33789 350.789514 
L 751.471733 354.252655 
L 753.605576 358.790483 
L 755.73942 360.684204 
L 757.873263 363.067924 
L 760.007106 364.732031 
L 764.274792 382.278536 
L 766.408636 381.637038 
L 768.542479 371.388458 
L 770.676322 355.520264 
L 772.810165 346.793763 
L 774.944008 344.581661 
L 777.077852 347.42816 
L 779.211695 352.786205 
L 781.345538 351.253475 
L 783.479381 353.162582 
L 785.613224 351.032146 
L 787.747068 349.865141 
L 789.880911 349.544392 
L 792.014754 347.374899 
L 794.148597 344.23369 
L 796.282441 342.954245 
L 798.416284 343.251322 
L 800.550127 344.560356 
L 802.68397 343.529462 
L 804.817813 344.159124 
L 806.951657 345.953425 
L 809.0855 345.772338 
L 813.353186 344.791154 
L 815.487029 342.955429 
L 817.620873 342.955429 
L 819.754716 339.397601 
L 821.888559 337.385523 
L 824.022402 340.972939 
L 826.156246 347.552435 
L 828.290089 351.333958 
L 830.423932 349.943257 
L 832.557775 348.89461 
L 834.691618 353.07263 
L 836.825462 353.72478 
L 838.959305 353.633645 
L 841.093148 360.036788 
L 843.226991 386.415129 
L 845.360834 388.029526 
L 847.494678 384.775879 
L 849.628521 372.880948 
L 851.762364 341.130355 
L 853.896207 328.196243 
L 856.03005 333.401609 
L 858.163894 341.473592 
L 860.297737 357.203308 
L 862.43158 363.463238 
L 864.565423 362.439446 
L 866.699267 354.259756 
L 868.83311 349.366856 
L 870.966953 345.631492 
L 875.234639 355.136786 
L 877.368483 355.999612 
L 879.502326 351.644055 
L 881.636169 347.974971 
L 883.770012 347.307435 
L 885.903855 349.769272 
L 888.037699 352.576712 
L 890.171542 354.348525 
L 892.305385 355.910844 
L 894.439228 354.974636 
L 896.573072 354.778162 
L 898.706915 351.845263 
L 900.840758 347.784416 
L 902.974601 349.764537 
L 905.108444 354.517776 
L 907.242288 354.874032 
L 909.376131 351.865384 
L 911.509974 351.023862 
L 913.643817 354.849177 
L 915.77766 355.580627 
L 917.911504 359.350314 
L 920.045347 368.063795 
L 922.17919 375.476527 
L 924.313033 378.731361 
L 926.446876 378.672182 
L 928.58072 372.529426 
L 930.714563 358.53128 
L 932.848406 346.888449 
L 934.982249 334.064411 
L 939.249936 328.258973 
L 941.383779 339.776346 
L 943.517622 348.449585 
L 945.651465 359.215386 
L 947.785309 366.026863 
L 949.919152 368.795244 
L 954.186838 354.259756 
L 956.320681 348.495744 
L 958.454525 348.700503 
L 960.588368 349.139609 
L 962.722211 347.297966 
L 964.856054 343.711733 
L 966.989898 343.368496 
L 969.123741 345.340333 
L 971.257584 346.744053 
L 973.391427 347.654222 
L 975.52527 345.281154 
L 977.659114 341.842867 
L 979.792957 340.911394 
L 981.9268 340.765814 
L 984.060643 339.186924 
L 986.194486 339.538447 
L 988.32833 343.433593 
L 990.462173 350.803717 
L 992.596016 352.073693 
L 994.729859 349.885262 
L 996.863702 348.440116 
L 998.997546 349.261518 
L 1001.131389 347.81874 
L 1003.265232 344.181612 
L 1005.399075 353.275022 
L 1007.532919 363.375654 
L 1009.666762 381.854816 
L 1011.800605 401.521104 
L 1013.934448 397.582165 
L 1016.068291 354.58524 
L 1018.202135 337.479025 
L 1020.335978 319.224745 
L 1022.469821 332.068902 
L 1024.603664 351.912727 
L 1026.737507 365.143915 
L 1028.871351 369.245003 
L 1031.005194 361.652368 
L 1033.139037 351.068837 
L 1035.27288 346.067048 
L 1037.406724 347.784416 
L 1039.540567 353.303428 
L 1041.67441 356.224492 
L 1043.808253 355.612583 
L 1045.942096 353.34722 
L 1048.07594 350.120793 
L 1050.209783 351.580142 
L 1054.477469 351.516229 
L 1056.611312 352.045287 
L 1058.745156 353.624176 
L 1060.878999 354.17809 
L 1063.012842 353.627727 
L 1065.146685 353.617075 
L 1067.280529 351.170625 
L 1069.414372 351.415625 
L 1071.548215 352.706906 
L 1073.682058 357.676739 
L 1075.815901 358.766811 
L 1077.949745 356.226859 
L 1080.083588 353.895215 
L 1082.217431 353.316447 
L 1084.351274 355.064588 
L 1086.485117 355.643356 
L 1090.752804 357.757222 
L 1092.886647 358.004589 
L 1095.02049 360.860556 
L 1097.154333 360.221426 
L 1099.288177 362.231137 
L 1101.42202 360.641595 
L 1103.555863 357.492101 
L 1105.689706 351.009659 
L 1107.82355 344.920163 
L 1112.091236 346.290744 
L 1114.225079 352.1092 
L 1118.492766 359.185797 
L 1120.626609 359.278116 
L 1122.760452 357.435289 
L 1124.894295 355.275264 
L 1127.028138 351.171808 
L 1129.161982 347.642387 
L 1131.295825 344.575743 
L 1133.429668 343.706999 
L 1135.563511 342.6548 
L 1137.697355 343.066684 
L 1139.831198 343.336539 
L 1141.965041 343.833641 
L 1144.098884 349.100552 
L 1146.232727 351.885504 
L 1150.500414 345.52497 
L 1152.634257 336.441029 
L 1154.7681 336.839894 
L 1156.901943 343.80997 
L 1159.035787 346.056396 
L 1161.16963 342.012119 
L 1163.303473 342.354172 
L 1165.437316 370.174111 
L 1167.571159 385.016146 
L 1169.705003 375.336866 
L 1171.838846 365.048046 
L 1173.972689 342.910452 
L 1176.106532 341.13864 
L 1178.240376 344.946202 
L 1180.374219 351.406156 
L 1180.374219 351.406156 
" style="fill:none;stroke:#1f77b4;stroke-linecap:square;stroke-width:1.5;"/>
   </g>
   <g id="line2d_11">
    <path clip-path="url(#pe9d3a79ee9)" d="M 64.374219 352.815421 
L 66.508062 351.920371 
L 68.641905 353.089153 
L 70.775748 352.148626 
L 72.909592 353.052965 
L 75.043435 353.046972 
L 77.177278 351.915156 
L 79.311121 352.420055 
L 83.578808 351.138873 
L 85.712651 352.305352 
L 87.846494 351.630024 
L 89.980337 352.340874 
L 92.114181 352.562672 
L 94.248024 352.332036 
L 96.381867 352.34689 
L 98.51571 350.979584 
L 100.649553 350.768384 
L 102.783397 352.360051 
L 104.91724 352.535966 
L 107.051083 352.050605 
L 109.184926 352.501754 
L 111.318769 353.131537 
L 113.452613 353.551566 
L 115.586456 353.267811 
L 117.720299 352.342443 
L 119.854142 351.656267 
L 121.987985 351.642496 
L 124.121829 350.444593 
L 126.255672 349.516606 
L 128.389515 350.617934 
L 130.523358 351.413462 
L 132.657202 350.404691 
L 134.791045 350.072265 
L 136.924888 350.801728 
L 139.058731 350.176933 
L 143.326418 344.965832 
L 145.460261 341.066547 
L 147.594104 339.666733 
L 149.727947 333.571508 
L 151.86179 330.913967 
L 153.995634 327.352121 
L 156.129477 329.047936 
L 158.26332 323.949575 
L 160.397163 321.687094 
L 162.531007 313.947021 
L 164.66485 311.539684 
L 166.798693 318.592153 
L 168.932536 282.879376 
L 171.066379 272.458357 
L 173.200223 298.336128 
L 175.334066 314.639879 
L 177.467909 325.228493 
L 179.601752 332.529032 
L 181.735595 333.501886 
L 183.869439 328.428656 
L 186.003282 330.184633 
L 188.137125 329.017403 
L 190.270968 325.268361 
L 192.404811 314.821443 
L 194.538655 305.643783 
L 196.672498 302.766408 
L 198.806341 307.375946 
L 200.940184 311.614114 
L 203.074028 318.31797 
L 205.207871 339.533721 
L 207.341714 359.268695 
L 211.6094 426.346085 
L 213.743244 455.14024 
L 215.877087 476.088115 
L 218.01093 494.209968 
L 220.144773 301.925302 
L 222.278616 326.381987 
L 224.41246 336.592686 
L 226.546303 338.428229 
L 228.680146 342.573004 
L 230.813989 336.037353 
L 232.947833 341.441222 
L 235.081676 351.361845 
L 237.215519 350.43905 
L 239.349362 351.677747 
L 241.483205 352.068914 
L 243.617049 341.086695 
L 245.750892 346.492945 
L 247.884735 349.675544 
L 250.018578 351.164156 
L 252.152421 353.959788 
L 254.286265 353.15024 
L 256.420108 354.192332 
L 258.553951 355.002929 
L 260.687794 355.968176 
L 262.821637 354.532931 
L 264.955481 354.382831 
L 267.089324 355.84705 
L 269.223167 354.346801 
L 271.35701 354.703575 
L 273.490854 353.65777 
L 275.624697 352.443894 
L 282.026226 349.907253 
L 284.16007 348.802076 
L 286.293913 344.466768 
L 288.427756 343.154218 
L 294.829286 330.242172 
L 296.963129 320.06888 
L 299.096972 315.378209 
L 301.230815 317.157473 
L 303.364659 299.894554 
L 305.498502 302.256007 
L 307.632345 308.664566 
L 309.766188 304.726406 
L 311.900031 245.152619 
L 314.033875 264.559065 
L 316.167718 307.643176 
L 318.301561 321.99519 
L 320.435404 328.785915 
L 322.569247 334.627444 
L 324.703091 335.857336 
L 326.836934 335.397716 
L 328.970777 331.519404 
L 331.10462 324.828664 
L 333.238463 324.500616 
L 335.372307 314.448968 
L 337.50615 301.142741 
L 339.639993 298.088122 
L 341.773836 301.842158 
L 343.90768 307.916896 
L 346.041523 316.408764 
L 348.175366 320.090382 
L 350.309209 344.83229 
L 352.443052 374.576368 
L 354.576896 420.901831 
L 356.710739 433.594292 
L 358.844582 435.840292 
L 360.978425 431.799574 
L 363.112268 422.734686 
L 365.246112 345.698263 
L 367.379955 303.337066 
L 369.513798 334.669304 
L 371.647641 333.231383 
L 373.781485 327.885927 
L 375.915328 326.918039 
L 378.049171 336.711011 
L 380.183014 351.166346 
L 382.316857 346.396878 
L 384.450701 345.679187 
L 386.584544 347.182157 
L 388.718387 348.086271 
L 390.85223 350.859508 
L 392.986073 351.587831 
L 395.119917 354.979609 
L 397.25376 354.898125 
L 399.387603 355.841023 
L 401.521446 354.860459 
L 403.655289 355.603128 
L 405.789133 356.041951 
L 407.922976 354.998403 
L 410.056819 355.251976 
L 412.190662 355.292554 
L 414.324506 355.512016 
L 416.458349 354.429482 
L 418.592192 351.648817 
L 420.726035 353.621706 
L 422.859878 353.645918 
L 424.993722 353.847873 
L 427.127565 356.058329 
L 429.261408 354.073588 
L 431.395251 354.284551 
L 433.529094 352.393902 
L 435.662938 351.298658 
L 437.796781 349.009077 
L 439.930624 344.544979 
L 442.064467 341.651158 
L 444.198311 331.602434 
L 446.332154 330.249136 
L 450.59984 313.681721 
L 452.733683 313.22068 
L 454.867527 310.234612 
L 457.00137 311.306327 
L 459.135213 303.66507 
L 461.269056 273.655523 
L 463.402899 254.594604 
L 465.536743 265.558269 
L 467.670586 299.03819 
L 469.804429 307.540309 
L 471.938272 313.420643 
L 474.072115 317.989291 
L 476.205959 320.430723 
L 478.339802 323.406664 
L 480.473645 320.961536 
L 482.607488 319.888359 
L 484.741332 324.046646 
L 489.009018 312.155256 
L 491.142861 320.74002 
L 493.276704 328.025824 
L 495.410548 337.646188 
L 497.544391 344.142559 
L 499.678234 354.059377 
L 501.812077 359.02737 
L 506.079764 406.077135 
L 508.213607 416.802633 
L 510.34745 419.836116 
L 512.481293 416.094085 
L 514.615137 402.345595 
L 516.74898 428.058324 
L 518.882823 408.225704 
L 521.016666 362.121927 
L 523.150509 318.716529 
L 525.284353 311.357754 
L 527.418196 317.669889 
L 531.685882 338.775294 
L 533.819725 342.633573 
L 535.953569 353.602089 
L 538.087412 348.757491 
L 540.221255 341.278717 
L 542.355098 350.297404 
L 544.488942 351.542399 
L 546.622785 353.775385 
L 548.756628 354.020695 
L 550.890471 355.12655 
L 553.024314 354.270396 
L 555.158158 355.009036 
L 557.292001 354.412844 
L 559.425844 350.4493 
L 561.559687 353.126537 
L 563.69353 353.767089 
L 565.827374 354.746919 
L 567.961217 355.969914 
L 570.09506 356.050202 
L 572.228903 355.801077 
L 574.362746 355.218249 
L 576.49659 355.325626 
L 578.630433 354.730597 
L 580.764276 353.806787 
L 582.898119 353.794212 
L 585.031963 352.899478 
L 587.165806 352.320804 
L 589.299649 351.346178 
L 591.433492 348.534563 
L 593.567335 348.238674 
L 595.701179 345.335225 
L 597.835022 341.588873 
L 599.968865 337.460973 
L 602.102708 333.038063 
L 604.236551 329.168057 
L 606.370395 328.246979 
L 608.504238 320.698172 
L 610.638081 310.191861 
L 612.771924 309.845098 
L 614.905768 317.140705 
L 617.039611 308.31514 
L 619.173454 270.359153 
L 621.307297 293.045949 
L 623.44114 306.055685 
L 625.574984 313.948923 
L 627.708827 318.194626 
L 629.84267 318.947883 
L 631.976513 320.813136 
L 634.110356 319.667051 
L 636.2442 319.114898 
L 638.378043 320.049318 
L 640.511886 316.256146 
L 642.645729 315.101542 
L 644.779572 298.561899 
L 646.913416 301.072566 
L 649.047259 306.806956 
L 651.181102 304.458973 
L 653.314945 301.907153 
L 655.448789 310.235283 
L 657.582632 336.888518 
L 659.716475 383.023413 
L 661.850318 398.603193 
L 663.984161 420.795298 
L 666.118005 425.532282 
L 668.251848 442.5169 
L 670.385691 453.752533 
L 672.519534 449.985793 
L 674.653377 313.878512 
L 676.787221 339.885304 
L 678.921064 324.125794 
L 681.054907 323.443444 
L 683.18875 327.262227 
L 685.322594 341.740012 
L 687.456437 347.640958 
L 689.59028 352.098837 
L 691.724123 348.842677 
L 693.857966 347.645327 
L 695.99181 349.896203 
L 698.125653 351.416104 
L 700.259496 353.920869 
L 702.393339 354.375471 
L 704.527182 355.535404 
L 706.661026 354.592777 
L 708.794869 354.223519 
L 710.928712 355.145106 
L 713.062555 355.632939 
L 715.196398 355.979622 
L 717.330242 355.618175 
L 719.464085 354.454449 
L 721.597928 355.733262 
L 723.731771 354.031136 
L 725.865615 353.281265 
L 727.999458 354.491845 
L 730.133301 353.972712 
L 732.267144 356.079414 
L 734.400987 356.24412 
L 736.534831 356.762192 
L 738.668674 355.358789 
L 740.802517 355.145321 
L 745.070203 350.162474 
L 747.204047 346.538569 
L 749.33789 345.327324 
L 751.471733 343.80424 
L 753.605576 338.729604 
L 755.73942 335.208809 
L 757.873263 332.500102 
L 760.007106 330.513195 
L 762.140949 324.318854 
L 764.274792 319.195535 
L 768.542479 317.997422 
L 770.676322 312.715131 
L 772.810165 286.066615 
L 774.944008 294.215377 
L 777.077852 304.834434 
L 779.211695 313.45122 
L 781.345538 316.480232 
L 783.479381 321.512641 
L 785.613224 323.409898 
L 787.747068 325.526561 
L 789.880911 326.184726 
L 792.014754 326.256888 
L 794.148597 330.5207 
L 796.282441 330.570129 
L 798.416284 327.503136 
L 800.550127 331.182191 
L 802.68397 338.945849 
L 804.817813 342.050564 
L 809.0855 332.165621 
L 811.219343 334.897761 
L 815.487029 360.587973 
L 817.620873 387.392043 
L 819.754716 406.242226 
L 821.888559 423.408798 
L 824.022402 430.472914 
L 826.156246 443.856257 
L 828.290089 439.176602 
L 830.423932 430.755901 
L 832.557775 302.034462 
L 834.691618 328.405681 
L 836.825462 327.076256 
L 838.959305 331.451182 
L 841.093148 338.865402 
L 843.226991 344.233682 
L 845.360834 351.847883 
L 847.494678 354.4847 
L 849.628521 351.000455 
L 853.896207 351.102561 
L 856.03005 351.08625 
L 860.297737 354.898114 
L 862.43158 355.690347 
L 864.565423 357.186803 
L 866.699267 354.684307 
L 868.83311 354.787881 
L 870.966953 355.250407 
L 873.100796 356.234797 
L 875.234639 355.965343 
L 877.368483 356.707752 
L 879.502326 355.956358 
L 881.636169 356.010369 
L 883.770012 354.600283 
L 888.037699 355.159678 
L 890.171542 355.801776 
L 892.305385 356.307906 
L 894.439228 356.965332 
L 896.573072 356.015414 
L 900.840758 357.646372 
L 902.974601 356.470265 
L 905.108444 355.556184 
L 907.242288 351.822858 
L 909.376131 349.230909 
L 911.509974 344.192754 
L 913.643817 342.829523 
L 915.77766 339.538473 
L 917.911504 337.593431 
L 920.045347 336.778657 
L 922.17919 333.825453 
L 924.313033 334.610393 
L 926.446876 332.265413 
L 928.58072 328.619482 
L 930.714563 330.025746 
L 932.848406 327.386829 
L 934.982249 319.171216 
L 937.116093 297.001273 
L 939.249936 302.428139 
L 941.383779 317.784913 
L 943.517622 324.148984 
L 945.651465 330.147222 
L 947.785309 330.360108 
L 949.919152 333.523932 
L 952.052995 335.722095 
L 954.186838 337.067644 
L 956.320681 331.085802 
L 958.454525 329.858737 
L 960.588368 320.82883 
L 962.722211 326.398117 
L 964.856054 330.742827 
L 969.123741 343.104881 
L 971.257584 343.229866 
L 973.391427 337.024634 
L 975.52527 342.345731 
L 977.659114 352.433363 
L 979.792957 382.832295 
L 981.9268 387.553847 
L 984.060643 397.467585 
L 986.194486 409.143147 
L 988.32833 411.285767 
L 990.462173 429.040829 
L 992.596016 429.202162 
L 994.729859 426.427761 
L 996.863702 317.329064 
L 998.997546 331.294761 
L 1001.131389 325.759958 
L 1003.265232 337.044476 
L 1005.399075 345.66948 
L 1007.532919 339.261491 
L 1009.666762 349.348389 
L 1011.800605 360.509954 
L 1013.934448 357.030314 
L 1016.068291 351.575268 
L 1018.202135 351.612133 
L 1020.335978 350.060322 
L 1022.469821 352.135645 
L 1024.603664 353.953185 
L 1026.737507 353.675796 
L 1028.871351 354.754876 
L 1031.005194 354.903972 
L 1033.139037 355.306325 
L 1035.27288 356.637725 
L 1037.406724 356.776155 
L 1039.540567 356.695201 
L 1041.67441 357.02642 
L 1043.808253 356.702752 
L 1048.07594 356.481936 
L 1050.209783 355.707267 
L 1052.343626 355.818741 
L 1054.477469 355.50968 
L 1056.611312 354.920802 
L 1058.745156 355.539806 
L 1060.878999 357.160346 
L 1063.012842 357.189614 
L 1065.146685 356.21247 
L 1067.280529 356.127498 
L 1069.414372 355.874287 
L 1071.548215 356.260973 
L 1073.682058 355.130579 
L 1075.815901 355.021847 
L 1080.083588 353.55327 
L 1082.217431 352.658367 
L 1084.351274 351.545447 
L 1086.485117 352.139957 
L 1090.752804 348.455235 
L 1092.886647 346.930436 
L 1095.02049 346.712091 
L 1097.154333 345.831049 
L 1099.288177 345.07374 
L 1101.42202 340.959056 
L 1103.555863 339.346316 
L 1105.689706 340.18441 
L 1107.82355 336.626593 
L 1109.957393 338.991456 
L 1112.091236 345.854758 
L 1114.225079 345.692202 
L 1116.358922 340.15702 
L 1118.492766 333.328822 
L 1120.626609 339.531865 
L 1122.760452 346.606237 
L 1124.894295 350.501103 
L 1127.028138 351.016996 
L 1129.161982 348.730017 
L 1131.295825 343.010573 
L 1133.429668 341.260871 
L 1135.563511 341.593005 
L 1139.831198 351.849158 
L 1141.965041 365.81832 
L 1144.098884 369.869376 
L 1146.232727 373.393826 
L 1148.366571 381.629096 
L 1152.634257 441.665181 
L 1154.7681 441.239621 
L 1156.901943 340.586818 
L 1159.035787 339.190774 
L 1161.16963 356.591672 
L 1163.303473 352.072187 
L 1165.437316 353.080394 
L 1167.571159 352.792947 
L 1169.705003 356.176317 
L 1171.838846 357.684896 
L 1173.972689 357.09673 
L 1176.106532 357.955739 
L 1178.240376 356.003212 
L 1180.374219 356.674048 
L 1180.374219 356.674048 
" style="fill:none;stroke:#ff7f0e;stroke-linecap:square;stroke-width:1.5;"/>
   </g>
   <g id="line2d_12">
    <path clip-path="url(#pe9d3a79ee9)" d="M 64.374219 353.402763 
L 66.508062 349.248066 
L 68.641905 350.099592 
L 70.775748 349.960711 
L 72.909592 347.885366 
L 75.043435 347.246823 
L 77.177278 339.107632 
L 79.311121 341.269292 
L 81.444964 342.169212 
L 83.578808 323.947243 
L 85.712651 309.644232 
L 87.846494 371.216331 
L 89.980337 369.943822 
L 92.114181 346.754887 
L 94.248024 332.00495 
L 96.381867 325.550699 
L 98.51571 312.804811 
L 100.649553 307.765667 
L 102.783397 320.98103 
L 104.91724 320.990207 
L 107.051083 314.909914 
L 111.318769 346.523128 
L 113.452613 352.583193 
L 115.586456 366.164799 
L 117.720299 398.401363 
L 119.854142 410.852429 
L 121.987985 389.816588 
L 124.121829 402.03669 
L 126.255672 406.51623 
L 128.389515 452.690535 
L 130.523358 301.33983 
L 132.657202 347.785314 
L 134.791045 354.28709 
L 136.924888 326.870338 
L 139.058731 319.721621 
L 141.192574 335.046056 
L 143.326418 353.48576 
L 145.460261 343.551356 
L 147.594104 349.227873 
L 149.727947 347.58197 
L 151.86179 350.431985 
L 153.995634 353.00908 
L 156.129477 352.232458 
L 158.26332 350.926567 
L 160.397163 351.795588 
L 162.531007 351.563597 
L 164.66485 352.211452 
L 166.798693 351.730719 
L 168.932536 354.829972 
L 171.066379 351.943589 
L 175.334066 352.447213 
L 177.467909 351.851517 
L 179.601752 353.109719 
L 181.735595 352.498435 
L 183.869439 353.126345 
L 186.003282 352.935824 
L 188.137125 351.759107 
L 190.270968 352.28973 
L 192.404811 351.342453 
L 194.538655 351.784221 
L 196.672498 352.090834 
L 200.940184 351.389036 
L 203.074028 351.550345 
L 205.207871 349.693413 
L 207.341714 343.472095 
L 209.475557 342.804465 
L 211.6094 341.697843 
L 213.743244 341.847102 
L 215.877087 331.545574 
L 218.01093 320.530067 
L 220.144773 325.330938 
L 222.278616 307.888407 
L 224.41246 293.090013 
L 226.546303 272.46508 
L 228.680146 229.238585 
L 230.813989 97.282182 
L 232.947833 210.97294 
L 235.081676 304.531608 
L 237.215519 314.34439 
L 239.349362 303.622627 
L 241.483205 299.529319 
L 243.617049 301.888527 
L 245.750892 305.857021 
L 247.884735 313.350451 
L 250.018578 325.986192 
L 252.152421 319.228985 
L 254.286265 275.049703 
L 256.420108 256.510824 
L 258.553951 305.717254 
L 260.687794 346.610188 
L 262.821637 332.385716 
L 264.955481 346.513375 
L 267.089324 368.115892 
L 271.35701 518.718831 
L 273.490854 497.524298 
L 275.624697 531.541213 
L 277.75854 194.753566 
L 279.892383 394.308192 
L 284.16007 292.735068 
L 286.293913 298.582318 
L 288.427756 327.951823 
L 290.561599 335.075143 
L 292.695442 337.367467 
L 294.829286 348.931171 
L 296.963129 349.627121 
L 299.096972 351.032635 
L 301.230815 351.731972 
L 303.364659 350.602978 
L 305.498502 355.423094 
L 307.632345 353.433646 
L 309.766188 354.813684 
L 311.900031 350.727637 
L 314.033875 350.019563 
L 316.167718 352.074919 
L 318.301561 352.315883 
L 320.435404 350.825657 
L 322.569247 351.222005 
L 324.703091 352.685513 
L 326.836934 352.7181 
L 328.970777 352.252335 
L 331.10462 352.195017 
L 333.238463 352.404366 
L 337.50615 351.687274 
L 339.639993 351.70618 
L 341.773836 352.219703 
L 343.90768 350.406994 
L 346.041523 349.503591 
L 348.175366 348.790698 
L 350.309209 346.742217 
L 352.443052 343.569066 
L 354.576896 342.904675 
L 356.710739 337.97511 
L 358.844582 325.610321 
L 360.978425 326.702968 
L 363.112268 309.506779 
L 365.246112 297.473558 
L 367.379955 286.617064 
L 371.647641 233.337034 
L 373.781485 62.342824 
L 375.915328 150.151132 
L 378.049171 303.145054 
L 380.183014 327.651574 
L 382.316857 303.548245 
L 384.450701 291.234889 
L 386.584544 296.863749 
L 388.718387 309.379153 
L 390.85223 330.923968 
L 392.986073 343.75072 
L 395.119917 323.788213 
L 397.25376 318.846662 
L 399.387603 323.979129 
L 401.521446 291.205911 
L 405.789133 373.913411 
L 407.922976 382.309967 
L 410.056819 380.388967 
L 412.190662 396.729127 
L 414.324506 382.448916 
L 416.458349 416.484767 
L 418.592192 506.086437 
L 420.726035 489.231424 
L 422.859878 540.409802 
L 424.993722 367.378901 
L 427.127565 361.46923 
L 429.261408 318.93396 
L 431.395251 288.749014 
L 433.529094 299.495755 
L 435.662938 341.129429 
L 437.796781 345.267568 
L 439.930624 336.813818 
L 442.064467 335.617528 
L 444.198311 349.927074 
L 446.332154 350.800035 
L 448.465997 349.349958 
L 450.59984 350.634989 
L 452.733683 350.293408 
L 454.867527 353.657284 
L 457.00137 352.000658 
L 459.135213 352.067887 
L 461.269056 353.1434 
L 463.402899 351.651853 
L 465.536743 352.624742 
L 467.670586 352.692342 
L 469.804429 352.474438 
L 471.938272 352.548698 
L 474.072115 353.245992 
L 478.339802 351.467383 
L 482.607488 352.980669 
L 484.741332 352.508504 
L 486.875175 353.179802 
L 489.009018 353.361282 
L 491.142861 353.375053 
L 493.276704 352.539081 
L 495.410548 351.928802 
L 497.544391 352.584367 
L 499.678234 350.532307 
L 501.812077 350.537771 
L 503.94592 348.963227 
L 506.079764 346.936463 
L 508.213607 332.939664 
L 510.34745 346.913104 
L 512.481293 341.287273 
L 514.615137 340.089792 
L 516.74898 335.642806 
L 518.882823 318.000848 
L 521.016666 306.764408 
L 523.150509 297.314935 
L 525.284353 295.918208 
L 527.418196 272.869149 
L 529.552039 51.586278 
L 531.685882 202.733243 
L 533.819725 287.811864 
L 535.953569 283.483394 
L 538.087412 261.233207 
L 540.221255 279.660848 
L 542.355098 302.347261 
L 544.488942 307.349961 
L 546.622785 315.189792 
L 548.756628 312.943053 
L 550.890471 310.395803 
L 553.024314 306.271473 
L 555.158158 292.238727 
L 557.292001 282.254677 
L 559.425844 293.681635 
L 561.559687 318.664721 
L 563.69353 324.752258 
L 565.827374 347.595718 
L 567.961217 381.063382 
L 570.09506 426.843873 
L 572.228903 497.54223 
L 574.362746 494.222313 
L 576.49659 452.323248 
L 578.630433 545.768097 
L 580.764276 276.336484 
L 582.898119 373.254529 
L 585.031963 402.349342 
L 587.165806 267.619069 
L 589.299649 297.364256 
L 591.433492 314.132289 
L 593.567335 328.217654 
L 595.701179 331.24119 
L 597.835022 341.515912 
L 599.968865 346.074497 
L 602.102708 347.686244 
L 604.236551 353.103714 
L 606.370395 351.826279 
L 608.504238 350.792303 
L 610.638081 352.235358 
L 612.771924 350.354835 
L 614.905768 351.39687 
L 617.039611 352.814213 
L 619.173454 352.039183 
L 621.307297 352.590744 
L 623.44114 351.629741 
L 625.574984 353.066826 
L 627.708827 352.54591 
L 629.84267 352.647926 
L 631.976513 352.281806 
L 634.110356 351.048799 
L 636.2442 351.907763 
L 638.378043 353.464393 
L 640.511886 353.346326 
L 642.645729 352.840106 
L 644.779572 352.695875 
L 646.913416 353.536644 
L 649.047259 352.083486 
L 651.181102 352.08528 
L 653.314945 351.591454 
L 655.448789 350.895176 
L 657.582632 347.590571 
L 659.716475 343.623855 
L 661.850318 338.933839 
L 663.984161 337.421862 
L 666.118005 371.91539 
L 668.251848 326.572699 
L 670.385691 328.516037 
L 672.519534 297.728469 
L 674.653377 292.993059 
L 676.787221 297.81086 
L 678.921064 298.657552 
L 681.054907 253.433149 
L 683.18875 142.41397 
L 685.322594 277.064423 
L 687.456437 323.369315 
L 689.59028 323.078752 
L 691.724123 307.77805 
L 693.857966 307.759175 
L 695.99181 309.673834 
L 698.125653 312.086403 
L 700.259496 334.074843 
L 702.393339 341.348942 
L 704.527182 333.162242 
L 706.661026 316.649266 
L 708.794869 264.650224 
L 710.928712 240.021832 
L 713.062555 303.261691 
L 715.196398 339.285601 
L 717.330242 354.308198 
L 719.464085 373.578468 
L 721.597928 373.758107 
L 723.731771 422.673971 
L 725.865615 505.581677 
L 727.999458 503.902941 
L 732.267144 452.639878 
L 734.400987 233.124339 
L 736.534831 406.886457 
L 738.668674 267.632763 
L 740.802517 298.506907 
L 742.93636 313.723773 
L 745.070203 329.916303 
L 747.204047 347.030883 
L 749.33789 350.664833 
L 751.471733 351.222151 
L 753.605576 351.460023 
L 755.73942 352.43781 
L 757.873263 350.397919 
L 760.007106 352.343955 
L 762.140949 353.265169 
L 766.408636 350.863436 
L 768.542479 352.962112 
L 770.676322 351.832588 
L 772.810165 351.870785 
L 774.944008 353.429774 
L 777.077852 354.36599 
L 779.211695 351.732502 
L 781.345538 352.355638 
L 783.479381 352.293624 
L 785.613224 352.648096 
L 787.747068 351.647113 
L 789.880911 352.519125 
L 792.014754 352.579716 
L 794.148597 352.754706 
L 796.282441 351.996053 
L 800.550127 352.323615 
L 802.68397 352.291344 
L 804.817813 352.062062 
L 806.951657 351.464459 
L 809.0855 351.742864 
L 811.219343 351.302958 
L 813.353186 350.352972 
L 815.487029 346.372666 
L 817.620873 344.038827 
L 819.754716 344.820788 
L 821.888559 347.634383 
L 824.022402 336.527325 
L 826.156246 335.615192 
L 828.290089 329.149354 
L 830.423932 320.591291 
L 832.557775 320.755292 
L 834.691618 301.75459 
L 836.825462 306.007169 
L 838.959305 289.289109 
L 841.093148 102.545826 
L 843.226991 149.634253 
L 845.360834 250.675454 
L 847.494678 304.474245 
L 849.628521 321.837409 
L 851.762364 322.834831 
L 853.896207 314.826268 
L 856.03005 311.693531 
L 860.297737 337.042389 
L 862.43158 335.444548 
L 864.565423 321.688343 
L 866.699267 302.624971 
L 868.83311 264.769091 
L 870.966953 313.887113 
L 873.100796 328.325403 
L 875.234639 344.845846 
L 877.368483 390.336499 
L 879.502326 392.794162 
L 881.636169 417.31873 
L 883.770012 465.469823 
L 885.903855 460.581562 
L 888.037699 492.500293 
L 890.171542 516.171765 
L 892.305385 207.458632 
L 894.439228 413.970147 
L 896.573072 348.112187 
L 898.706915 310.839478 
L 900.840758 304.9933 
L 902.974601 324.758174 
L 905.108444 341.914889 
L 907.242288 345.739101 
L 909.376131 355.126437 
L 911.509974 345.895116 
L 913.643817 351.513289 
L 915.77766 351.722671 
L 917.911504 354.668268 
L 920.045347 354.515887 
L 922.17919 345.898175 
L 924.313033 349.767199 
L 926.446876 351.398044 
L 930.714563 351.171245 
L 932.848406 351.149675 
L 934.982249 352.011765 
L 937.116093 351.27623 
L 939.249936 352.918994 
L 941.383779 352.683504 
L 943.517622 353.332781 
L 945.651465 352.967971 
L 947.785309 353.007274 
L 949.919152 351.841313 
L 952.052995 352.76097 
L 954.186838 353.384466 
L 956.320681 352.137733 
L 958.454525 352.370582 
L 960.588368 352.822882 
L 962.722211 352.037693 
L 964.856054 352.909378 
L 966.989898 353.200312 
L 969.123741 352.039521 
L 971.257584 351.977959 
L 973.391427 351.705808 
L 975.52527 350.859531 
L 977.659114 350.366213 
L 981.9268 347.863795 
L 984.060643 348.221878 
L 986.194486 348.373446 
L 988.32833 331.131437 
L 990.462173 348.972895 
L 992.596016 342.74454 
L 994.729859 345.294505 
L 996.863702 340.623028 
L 998.997546 334.517013 
L 1001.131389 329.831754 
L 1003.265232 325.794999 
L 1005.399075 311.106844 
L 1007.532919 288.129605 
L 1009.666762 163.535381 
L 1011.800605 244.939469 
L 1013.934448 288.32187 
L 1016.068291 305.538731 
L 1018.202135 313.832137 
L 1020.335978 324.38251 
L 1022.469821 324.369478 
L 1024.603664 327.663412 
L 1026.737507 334.603853 
L 1028.871351 333.485899 
L 1031.005194 320.297885 
L 1033.139037 312.869295 
L 1035.27288 305.917821 
L 1037.406724 322.229502 
L 1039.540567 360.384438 
L 1041.67441 393.246686 
L 1043.808253 389.710497 
L 1045.942096 380.431757 
L 1048.07594 355.562324 
L 1050.209783 387.360832 
L 1052.343626 423.202891 
L 1054.477469 454.368987 
L 1056.611312 454.156665 
L 1058.745156 482.928932 
L 1060.878999 399.431411 
L 1063.012842 237.126523 
L 1065.146685 426.557409 
L 1067.280529 264.839999 
L 1069.414372 349.686459 
L 1071.548215 310.955038 
L 1073.682058 348.066191 
L 1075.815901 354.242381 
L 1077.949745 351.215244 
L 1080.083588 352.737831 
L 1082.217431 350.977022 
L 1084.351274 352.309088 
L 1086.485117 351.498954 
L 1088.618961 353.023663 
L 1090.752804 353.074208 
L 1092.886647 353.265384 
L 1095.02049 353.290205 
L 1097.154333 353.069287 
L 1099.288177 352.557954 
L 1101.42202 351.743417 
L 1103.555863 353.92193 
L 1105.689706 353.185773 
L 1107.82355 353.729592 
L 1109.957393 353.27105 
L 1112.091236 353.642351 
L 1114.225079 353.142576 
L 1116.358922 352.46946 
L 1118.492766 352.402695 
L 1120.626609 352.55739 
L 1122.760452 352.005907 
L 1124.894295 352.69039 
L 1127.028138 353.545347 
L 1129.161982 352.589389 
L 1131.295825 352.288568 
L 1133.429668 352.74107 
L 1135.563511 352.616378 
L 1137.697355 352.836415 
L 1139.831198 351.526473 
L 1141.965041 351.334642 
L 1144.098884 352.857873 
L 1148.366571 352.555696 
L 1152.634257 352.803919 
L 1154.7681 352.606467 
L 1156.901943 352.903316 
L 1159.035787 352.625193 
L 1161.16963 354.131482 
L 1163.303473 353.139021 
L 1167.571159 353.639213 
L 1169.705003 353.466481 
L 1171.838846 353.044342 
L 1173.972689 353.109053 
L 1180.374219 352.610542 
L 1180.374219 352.610542 
" style="fill:none;stroke:#2ca02c;stroke-linecap:square;stroke-width:1.5;"/>
   </g>
   <g id="line2d_13">
    <path clip-path="url(#pe9d3a79ee9)" d="M 64.374219 354.523976 
L 68.641905 355.984859 
L 70.775748 356.012747 
L 72.909592 357.158606 
L 75.043435 357.200334 
L 83.578808 355.107751 
L 85.712651 354.362023 
L 89.980337 353.571675 
L 92.114181 352.872013 
L 94.248024 352.455768 
L 98.51571 350.551166 
L 100.649553 349.222077 
L 102.783397 348.541832 
L 104.91724 348.091503 
L 107.051083 348.101419 
L 109.184926 348.249118 
L 111.318769 348.832067 
L 113.452613 349.967391 
L 115.586456 350.571617 
L 117.720299 350.804218 
L 119.854142 350.679861 
L 124.121829 349.897363 
L 126.255672 349.70587 
L 128.389515 349.380311 
L 132.657202 349.997551 
L 134.791045 350.316086 
L 139.058731 350.360706 
L 143.326418 350.555504 
L 145.460261 350.073776 
L 147.594104 349.070452 
L 149.727947 346.944197 
L 151.86179 346.37447 
L 153.995634 346.450282 
L 156.129477 349.519748 
L 158.26332 352.128144 
L 160.397163 353.66236 
L 162.531007 353.97883 
L 164.66485 353.254172 
L 166.798693 351.939543 
L 168.932536 351.229139 
L 171.066379 351.073589 
L 173.200223 351.170472 
L 175.334066 352.090547 
L 177.467909 353.650999 
L 179.601752 354.949516 
L 181.735595 356.557066 
L 183.869439 357.75994 
L 186.003282 358.833499 
L 188.137125 358.446382 
L 190.270968 358.468485 
L 192.404811 358.16317 
L 194.538655 357.130512 
L 196.672498 357.030324 
L 198.806341 356.066869 
L 200.940184 355.812371 
L 203.074028 356.770043 
L 207.341714 356.419282 
L 209.475557 355.608896 
L 211.6094 355.254831 
L 213.743244 354.237459 
L 215.877087 354.789835 
L 220.144773 356.356277 
L 222.278616 357.595921 
L 224.41246 358.30963 
L 226.546303 359.197067 
L 228.680146 359.186945 
L 230.813989 357.856409 
L 232.947833 354.800577 
L 235.081676 349.064461 
L 237.215519 345.811558 
L 239.349362 345.025962 
L 241.483205 345.470094 
L 243.617049 346.061719 
L 245.750892 347.488104 
L 247.884735 347.953099 
L 250.018578 349.396837 
L 252.152421 351.258472 
L 254.286265 352.830698 
L 256.420108 352.903825 
L 258.553951 352.676595 
L 260.687794 352.1205 
L 264.955481 349.769908 
L 267.089324 349.411917 
L 269.223167 349.733551 
L 271.35701 350.512124 
L 273.490854 350.968857 
L 275.624697 351.739787 
L 277.75854 352.374379 
L 279.892383 352.527862 
L 282.026226 352.279562 
L 286.293913 351.474754 
L 288.427756 351.541477 
L 290.561599 351.018434 
L 294.829286 347.405681 
L 296.963129 344.69276 
L 299.096972 343.195726 
L 301.230815 343.139745 
L 303.364659 344.818563 
L 305.498502 349.796349 
L 307.632345 351.022359 
L 309.766188 352.962492 
L 311.900031 352.235562 
L 314.033875 352.630735 
L 316.167718 352.267374 
L 318.301561 353.329985 
L 320.435404 354.751619 
L 322.569247 355.57853 
L 324.703091 356.786775 
L 326.836934 357.470325 
L 328.970777 358.381518 
L 331.10462 358.021048 
L 335.372307 356.234193 
L 337.50615 355.639469 
L 339.639993 355.999113 
L 341.773836 356.002418 
L 343.90768 356.618831 
L 346.041523 356.666136 
L 348.175366 355.846455 
L 350.309209 355.525028 
L 352.443052 355.568201 
L 356.710739 355.32238 
L 358.844582 355.647112 
L 360.978425 356.232127 
L 363.112268 356.345742 
L 365.246112 356.637423 
L 367.379955 357.754982 
L 369.513798 359.258006 
L 371.647641 361.317125 
L 373.781485 362.58321 
L 375.915328 361.189256 
L 378.049171 358.431508 
L 380.183014 352.873459 
L 382.316857 348.186527 
L 384.450701 344.292835 
L 386.584544 341.213246 
L 388.718387 342.593773 
L 390.85223 347.070207 
L 392.986073 349.593081 
L 395.119917 353.050698 
L 397.25376 353.008351 
L 399.387603 349.495579 
L 401.521446 347.028893 
L 403.655289 345.860723 
L 405.789133 344.354806 
L 407.922976 344.162901 
L 412.190662 344.714863 
L 414.324506 345.246375 
L 416.458349 346.249286 
L 418.592192 348.072085 
L 420.726035 349.005588 
L 422.859878 349.58895 
L 424.993722 350.635861 
L 427.127565 351.521439 
L 429.261408 352.95051 
L 431.395251 353.287844 
L 433.529094 353.153158 
L 437.796781 353.590886 
L 439.930624 350.425777 
L 442.064467 347.830808 
L 444.198311 345.558093 
L 446.332154 343.780534 
L 448.465997 339.84656 
L 450.59984 340.314241 
L 452.733683 342.854055 
L 454.867527 347.091897 
L 457.00137 351.706115 
L 459.135213 352.535712 
L 461.269056 351.38634 
L 463.402899 351.304951 
L 467.670586 352.682792 
L 469.804429 353.918924 
L 471.938272 354.239938 
L 474.072115 354.863995 
L 476.205959 356.265179 
L 478.339802 355.561591 
L 480.473645 355.380633 
L 482.607488 354.865854 
L 484.741332 354.591319 
L 489.009018 355.175713 
L 491.142861 355.695657 
L 493.276704 356.388502 
L 497.544391 359.046269 
L 499.678234 360.264842 
L 501.812077 360.217537 
L 503.94592 359.429462 
L 506.079764 358.482945 
L 508.213607 357.410832 
L 510.34745 357.679376 
L 512.481293 358.202832 
L 514.615137 358.261085 
L 518.882823 358.017536 
L 521.016666 358.955997 
L 523.150509 360.399115 
L 525.284353 362.183285 
L 529.552039 363.177107 
L 531.685882 362.102102 
L 533.819725 359.359847 
L 535.953569 355.628934 
L 538.087412 350.014697 
L 540.221255 346.652517 
L 542.355098 346.699408 
L 544.488942 347.407747 
L 546.622785 348.508987 
L 548.756628 348.924818 
L 550.890471 349.175804 
L 553.024314 348.992987 
L 555.158158 349.039673 
L 557.292001 348.888874 
L 559.425844 348.494114 
L 563.69353 348.267503 
L 565.827374 348.338978 
L 567.961217 348.094602 
L 570.09506 348.151822 
L 572.228903 349.248311 
L 574.362746 349.937438 
L 576.49659 351.235542 
L 578.630433 352.329965 
L 580.764276 354.287243 
L 582.898119 355.039995 
L 585.031963 355.009215 
L 587.165806 354.489065 
L 589.299649 353.284952 
L 593.567335 350.512744 
L 595.701179 349.498884 
L 597.835022 349.274959 
L 599.968865 348.707297 
L 602.102708 347.105118 
L 604.236551 344.083577 
L 606.370395 342.673097 
L 608.504238 345.004891 
L 610.638081 348.732705 
L 612.771924 352.808595 
L 614.905768 354.886718 
L 617.039611 354.549178 
L 619.173454 351.863111 
L 621.307297 351.917233 
L 623.44114 352.435111 
L 625.574984 354.314511 
L 627.708827 355.693178 
L 629.84267 357.569066 
L 631.976513 358.181761 
L 634.110356 358.210269 
L 642.645729 355.196164 
L 644.779572 355.480408 
L 646.913416 355.083788 
L 649.047259 354.224652 
L 653.314945 353.577046 
L 655.448789 353.879055 
L 657.582632 354.017253 
L 659.716475 353.719168 
L 661.850318 354.649572 
L 663.984161 355.438474 
L 666.118005 356.035676 
L 668.251848 356.306906 
L 670.385691 357.316428 
L 672.519534 358.005968 
L 674.653377 358.823584 
L 676.787221 359.287546 
L 678.921064 359.442682 
L 681.054907 360.84242 
L 683.18875 361.008298 
L 685.322594 359.644918 
L 687.456437 357.176991 
L 689.59028 352.490886 
L 691.724123 347.40754 
L 693.857966 345.125943 
L 695.99181 343.576027 
L 698.125653 343.021585 
L 700.259496 344.871445 
L 704.527182 347.331108 
L 706.661026 348.117532 
L 708.794869 348.173926 
L 710.928712 346.955559 
L 713.062555 346.420328 
L 715.196398 346.266225 
L 721.597928 347.587466 
L 723.731771 348.072498 
L 725.865615 348.181362 
L 727.999458 348.523447 
L 730.133301 348.36294 
L 732.267144 348.890114 
L 734.400987 350.868669 
L 736.534831 351.726153 
L 738.668674 352.177101 
L 740.802517 352.339674 
L 742.93636 350.770753 
L 747.204047 348.255729 
L 749.33789 347.029512 
L 751.471733 345.954094 
L 753.605576 345.009643 
L 755.73942 344.814225 
L 757.873263 344.971633 
L 760.007106 344.851821 
L 762.140949 346.721719 
L 764.274792 350.753814 
L 766.408636 353.235374 
L 768.542479 354.469647 
L 770.676322 352.757778 
L 772.810165 351.416294 
L 774.944008 351.504294 
L 777.077852 353.200257 
L 779.211695 354.694192 
L 781.345538 357.828935 
L 783.479381 358.526739 
L 785.613224 358.374081 
L 792.014754 355.204014 
L 794.148597 354.509929 
L 796.282441 354.428539 
L 800.550127 354.688201 
L 802.68397 355.786756 
L 804.817813 357.152409 
L 806.951657 357.776672 
L 809.0855 358.028072 
L 811.219343 358.153048 
L 813.353186 357.300728 
L 815.487029 356.119132 
L 817.620873 356.119132 
L 819.754716 355.179225 
L 821.888559 356.355657 
L 824.022402 358.06071 
L 826.156246 358.873987 
L 828.290089 359.001649 
L 830.423932 359.565387 
L 832.557775 360.87981 
L 834.691618 361.777162 
L 836.825462 362.139491 
L 838.959305 362.202702 
L 841.093148 361.85442 
L 843.226991 357.946475 
L 845.360834 355.843357 
L 847.494678 352.212632 
L 849.628521 349.382997 
L 851.762364 346.859089 
L 853.896207 347.859316 
L 856.03005 349.286321 
L 858.163894 350.188011 
L 860.297737 351.325815 
L 862.43158 351.972594 
L 864.565423 352.26944 
L 866.699267 351.980237 
L 868.83311 351.357833 
L 870.966953 350.936631 
L 873.100796 350.206603 
L 875.234639 349.766189 
L 877.368483 348.870283 
L 879.502326 348.271841 
L 885.903855 347.659353 
L 888.037699 347.732686 
L 890.171542 348.1417 
L 892.305385 349.874021 
L 894.439228 351.1368 
L 896.573072 352.194867 
L 898.706915 351.809608 
L 900.840758 351.142171 
L 902.974601 350.109927 
L 907.242288 348.583766 
L 909.376131 347.2617 
L 915.77766 341.868909 
L 917.911504 340.754035 
L 920.045347 341.223988 
L 924.313033 349.718058 
L 926.446876 352.900726 
L 928.58072 354.152971 
L 930.714563 353.56114 
L 932.848406 352.175449 
L 934.982249 351.274585 
L 937.116093 351.252068 
L 939.249936 352.206641 
L 943.517622 352.006885 
L 945.651465 353.300238 
L 947.785309 353.480989 
L 949.919152 353.827619 
L 952.052995 354.000727 
L 954.186838 353.851375 
L 956.320681 354.42606 
L 960.588368 354.269478 
L 962.722211 354.966868 
L 966.989898 354.838173 
L 969.123741 355.062098 
L 971.257584 355.116633 
L 973.391427 355.546925 
L 975.52527 356.262493 
L 977.659114 356.325498 
L 979.792957 356.258155 
L 981.9268 356.408747 
L 984.060643 356.304014 
L 986.194486 356.786155 
L 988.32833 357.617611 
L 990.462173 358.016916 
L 992.596016 358.563096 
L 994.729859 358.715339 
L 996.863702 359.368936 
L 1001.131389 359.356335 
L 1003.265232 359.643885 
L 1005.399075 360.969462 
L 1007.532919 361.658383 
L 1011.800605 359.079527 
L 1013.934448 357.876654 
L 1016.068291 352.499562 
L 1018.202135 352.875524 
L 1020.335978 354.268445 
L 1022.469821 355.238305 
L 1024.603664 356.470719 
L 1028.871351 354.905103 
L 1031.005194 353.742717 
L 1035.27288 353.827412 
L 1037.406724 354.492783 
L 1039.540567 354.566117 
L 1041.67441 354.330004 
L 1043.808253 353.486567 
L 1045.942096 352.369214 
L 1048.07594 351.46897 
L 1050.209783 351.140519 
L 1052.343626 350.405326 
L 1054.477469 350.540011 
L 1058.745156 351.220049 
L 1060.878999 351.144237 
L 1063.012842 350.323316 
L 1065.146685 349.025832 
L 1067.280529 348.156987 
L 1071.548215 348.038207 
L 1073.682058 347.467653 
L 1077.949745 346.982414 
L 1080.083588 347.044592 
L 1084.351274 345.940873 
L 1086.485117 343.307276 
L 1088.618961 342.218017 
L 1090.752804 341.697453 
L 1092.886647 341.53798 
L 1095.02049 342.210373 
L 1097.154333 343.73612 
L 1099.288177 345.612835 
L 1101.42202 346.545512 
L 1103.555863 346.875202 
L 1105.689706 346.603559 
L 1107.82355 345.399652 
L 1109.957393 344.67706 
L 1112.091236 344.818356 
L 1114.225079 345.236873 
L 1116.358922 346.769437 
L 1118.492766 349.634809 
L 1122.760452 353.211205 
L 1124.894295 354.348182 
L 1127.028138 354.734887 
L 1131.295825 354.211018 
L 1135.563511 352.079392 
L 1137.697355 351.336143 
L 1141.965041 350.914941 
L 1144.098884 350.94634 
L 1148.366571 353.345064 
L 1150.500414 354.079018 
L 1152.634257 354.129215 
L 1154.7681 354.06621 
L 1156.901943 354.261215 
L 1159.035787 354.112483 
L 1161.16963 353.848276 
L 1163.303473 355.846868 
L 1165.437316 357.215001 
L 1167.571159 362.226665 
L 1169.705003 363.068656 
L 1171.838846 361.952543 
L 1173.972689 361.11551 
L 1176.106532 360.113218 
L 1178.240376 359.893424 
L 1180.374219 359.437518 
L 1180.374219 359.437518 
" style="fill:none;stroke:#d62728;stroke-linecap:square;stroke-width:1.5;"/>
   </g>
   <g id="patch_3">
    <path d="M 64.374219 570.477187 
L 64.374219 26.877187 
" style="fill:none;stroke:#000000;stroke-linecap:square;stroke-linejoin:miter;stroke-width:0.8;"/>
   </g>
   <g id="patch_4">
    <path d="M 1180.374219 570.477187 
L 1180.374219 26.877187 
" style="fill:none;stroke:#000000;stroke-linecap:square;stroke-linejoin:miter;stroke-width:0.8;"/>
   </g>
   <g id="patch_5">
    <path d="M 64.374219 570.477187 
L 1180.374219 570.477187 
" style="fill:none;stroke:#000000;stroke-linecap:square;stroke-linejoin:miter;stroke-width:0.8;"/>
   </g>
   <g id="patch_6">
    <path d="M 64.374219 26.877187 
L 1180.374219 26.877187 
" style="fill:none;stroke:#000000;stroke-linecap:square;stroke-linejoin:miter;stroke-width:0.8;"/>
   </g>
   <g id="text_12">
    <!-- Measured movement during the normal gait measurement -->
    <defs>
     <path d="M 9.8125 72.90625 
L 24.515625 72.90625 
L 43.109375 23.296875 
L 61.8125 72.90625 
L 76.515625 72.90625 
L 76.515625 0 
L 66.890625 0 
L 66.890625 64.015625 
L 48.09375 14.015625 
L 38.1875 14.015625 
L 19.390625 64.015625 
L 19.390625 0 
L 9.8125 0 
z
" id="DejaVuSans-77"/>
     <path d="M 8.5 21.578125 
L 8.5 54.6875 
L 17.484375 54.6875 
L 17.484375 21.921875 
Q 17.484375 14.15625 20.5 10.265625 
Q 23.53125 6.390625 29.59375 6.390625 
Q 36.859375 6.390625 41.078125 11.03125 
Q 45.3125 15.671875 45.3125 23.6875 
L 45.3125 54.6875 
L 54.296875 54.6875 
L 54.296875 0 
L 45.3125 0 
L 45.3125 8.40625 
Q 42.046875 3.421875 37.71875 1 
Q 33.40625 -1.421875 27.6875 -1.421875 
Q 18.265625 -1.421875 13.375 4.4375 
Q 8.5 10.296875 8.5 21.578125 
z
M 31.109375 56 
z
" id="DejaVuSans-117"/>
     <path d="M 45.40625 46.390625 
L 45.40625 75.984375 
L 54.390625 75.984375 
L 54.390625 0 
L 45.40625 0 
L 45.40625 8.203125 
Q 42.578125 3.328125 38.25 0.953125 
Q 33.9375 -1.421875 27.875 -1.421875 
Q 17.96875 -1.421875 11.734375 6.484375 
Q 5.515625 14.40625 5.515625 27.296875 
Q 5.515625 40.1875 11.734375 48.09375 
Q 17.96875 56 27.875 56 
Q 33.9375 56 38.25 53.625 
Q 42.578125 51.265625 45.40625 46.390625 
z
M 14.796875 27.296875 
Q 14.796875 17.390625 18.875 11.75 
Q 22.953125 6.109375 30.078125 6.109375 
Q 37.203125 6.109375 41.296875 11.75 
Q 45.40625 17.390625 45.40625 27.296875 
Q 45.40625 37.203125 41.296875 42.84375 
Q 37.203125 48.484375 30.078125 48.484375 
Q 22.953125 48.484375 18.875 42.84375 
Q 14.796875 37.203125 14.796875 27.296875 
z
" id="DejaVuSans-100"/>
     <path d="M 45.40625 27.984375 
Q 45.40625 37.75 41.375 43.109375 
Q 37.359375 48.484375 30.078125 48.484375 
Q 22.859375 48.484375 18.828125 43.109375 
Q 14.796875 37.75 14.796875 27.984375 
Q 14.796875 18.265625 18.828125 12.890625 
Q 22.859375 7.515625 30.078125 7.515625 
Q 37.359375 7.515625 41.375 12.890625 
Q 45.40625 18.265625 45.40625 27.984375 
z
M 54.390625 6.78125 
Q 54.390625 -7.171875 48.1875 -13.984375 
Q 42 -20.796875 29.203125 -20.796875 
Q 24.46875 -20.796875 20.265625 -20.09375 
Q 16.0625 -19.390625 12.109375 -17.921875 
L 12.109375 -9.1875 
Q 16.0625 -11.328125 19.921875 -12.34375 
Q 23.78125 -13.375 27.78125 -13.375 
Q 36.625 -13.375 41.015625 -8.765625 
Q 45.40625 -4.15625 45.40625 5.171875 
L 45.40625 9.625 
Q 42.625 4.78125 38.28125 2.390625 
Q 33.9375 0 27.875 0 
Q 17.828125 0 11.671875 7.65625 
Q 5.515625 15.328125 5.515625 27.984375 
Q 5.515625 40.671875 11.671875 48.328125 
Q 17.828125 56 27.875 56 
Q 33.9375 56 38.28125 53.609375 
Q 42.625 51.21875 45.40625 46.390625 
L 45.40625 54.6875 
L 54.390625 54.6875 
z
" id="DejaVuSans-103"/>
     <path d="M 54.890625 33.015625 
L 54.890625 0 
L 45.90625 0 
L 45.90625 32.71875 
Q 45.90625 40.484375 42.875 44.328125 
Q 39.84375 48.1875 33.796875 48.1875 
Q 26.515625 48.1875 22.3125 43.546875 
Q 18.109375 38.921875 18.109375 30.90625 
L 18.109375 0 
L 9.078125 0 
L 9.078125 75.984375 
L 18.109375 75.984375 
L 18.109375 46.1875 
Q 21.34375 51.125 25.703125 53.5625 
Q 30.078125 56 35.796875 56 
Q 45.21875 56 50.046875 50.171875 
Q 54.890625 44.34375 54.890625 33.015625 
z
" id="DejaVuSans-104"/>
    </defs>
    <g transform="translate(356.642187 20.877187)scale(0.18 -0.18)">
     <use xlink:href="#DejaVuSans-77"/>
     <use x="86.279297" xlink:href="#DejaVuSans-101"/>
     <use x="147.802734" xlink:href="#DejaVuSans-97"/>
     <use x="209.082031" xlink:href="#DejaVuSans-115"/>
     <use x="261.181641" xlink:href="#DejaVuSans-117"/>
     <use x="324.560547" xlink:href="#DejaVuSans-114"/>
     <use x="365.642578" xlink:href="#DejaVuSans-101"/>
     <use x="427.166016" xlink:href="#DejaVuSans-100"/>
     <use x="490.642578" xlink:href="#DejaVuSans-32"/>
     <use x="522.429688" xlink:href="#DejaVuSans-109"/>
     <use x="619.841797" xlink:href="#DejaVuSans-111"/>
     <use x="681.023438" xlink:href="#DejaVuSans-118"/>
     <use x="740.203125" xlink:href="#DejaVuSans-101"/>
     <use x="801.726562" xlink:href="#DejaVuSans-109"/>
     <use x="899.138672" xlink:href="#DejaVuSans-101"/>
     <use x="960.662109" xlink:href="#DejaVuSans-110"/>
     <use x="1024.041016" xlink:href="#DejaVuSans-116"/>
     <use x="1063.25" xlink:href="#DejaVuSans-32"/>
     <use x="1095.037109" xlink:href="#DejaVuSans-100"/>
     <use x="1158.513672" xlink:href="#DejaVuSans-117"/>
     <use x="1221.892578" xlink:href="#DejaVuSans-114"/>
     <use x="1263.005859" xlink:href="#DejaVuSans-105"/>
     <use x="1290.789062" xlink:href="#DejaVuSans-110"/>
     <use x="1354.167969" xlink:href="#DejaVuSans-103"/>
     <use x="1417.644531" xlink:href="#DejaVuSans-32"/>
     <use x="1449.431641" xlink:href="#DejaVuSans-116"/>
     <use x="1488.640625" xlink:href="#DejaVuSans-104"/>
     <use x="1552.019531" xlink:href="#DejaVuSans-101"/>
     <use x="1613.542969" xlink:href="#DejaVuSans-32"/>
     <use x="1645.330078" xlink:href="#DejaVuSans-110"/>
     <use x="1708.708984" xlink:href="#DejaVuSans-111"/>
     <use x="1769.890625" xlink:href="#DejaVuSans-114"/>
     <use x="1810.988281" xlink:href="#DejaVuSans-109"/>
     <use x="1908.400391" xlink:href="#DejaVuSans-97"/>
     <use x="1969.679688" xlink:href="#DejaVuSans-108"/>
     <use x="1997.462891" xlink:href="#DejaVuSans-32"/>
     <use x="2029.25" xlink:href="#DejaVuSans-103"/>
     <use x="2092.726562" xlink:href="#DejaVuSans-97"/>
     <use x="2154.005859" xlink:href="#DejaVuSans-105"/>
     <use x="2181.789062" xlink:href="#DejaVuSans-116"/>
     <use x="2220.998047" xlink:href="#DejaVuSans-32"/>
     <use x="2252.785156" xlink:href="#DejaVuSans-109"/>
     <use x="2350.197266" xlink:href="#DejaVuSans-101"/>
     <use x="2411.720703" xlink:href="#DejaVuSans-97"/>
     <use x="2473" xlink:href="#DejaVuSans-115"/>
     <use x="2525.099609" xlink:href="#DejaVuSans-117"/>
     <use x="2588.478516" xlink:href="#DejaVuSans-114"/>
     <use x="2629.560547" xlink:href="#DejaVuSans-101"/>
     <use x="2691.083984" xlink:href="#DejaVuSans-109"/>
     <use x="2788.496094" xlink:href="#DejaVuSans-101"/>
     <use x="2850.019531" xlink:href="#DejaVuSans-110"/>
     <use x="2913.398438" xlink:href="#DejaVuSans-116"/>
    </g>
   </g>
   <g id="legend_1">
    <g id="patch_7">
     <path d="M 827.75 126.945937 
L 1169.874219 126.945937 
Q 1172.874219 126.945937 1172.874219 123.945937 
L 1172.874219 37.377187 
Q 1172.874219 34.377187 1169.874219 34.377187 
L 827.75 34.377187 
Q 824.75 34.377187 824.75 37.377187 
L 824.75 123.945937 
Q 824.75 126.945937 827.75 126.945937 
z
" style="fill:#ffffff;opacity:0.8;stroke:#cccccc;stroke-linejoin:miter;"/>
    </g>
    <g id="line2d_14">
     <path d="M 830.75 46.524844 
L 860.75 46.524844 
" style="fill:none;stroke:#1f77b4;stroke-linecap:square;stroke-width:1.5;"/>
    </g>
    <g id="line2d_15"/>
    <g id="text_13">
     <!-- Vertical Acceleration Hip in m/s² -->
     <defs>
      <path d="M 34.1875 63.1875 
L 20.796875 26.90625 
L 47.609375 26.90625 
z
M 28.609375 72.90625 
L 39.796875 72.90625 
L 67.578125 0 
L 57.328125 0 
L 50.6875 18.703125 
L 17.828125 18.703125 
L 11.1875 0 
L 0.78125 0 
z
" id="DejaVuSans-65"/>
      <path d="M 9.8125 72.90625 
L 19.671875 72.90625 
L 19.671875 43.015625 
L 55.515625 43.015625 
L 55.515625 72.90625 
L 65.375 72.90625 
L 65.375 0 
L 55.515625 0 
L 55.515625 34.71875 
L 19.671875 34.71875 
L 19.671875 0 
L 9.8125 0 
z
" id="DejaVuSans-72"/>
      <path d="M 18.109375 8.203125 
L 18.109375 -20.796875 
L 9.078125 -20.796875 
L 9.078125 54.6875 
L 18.109375 54.6875 
L 18.109375 46.390625 
Q 20.953125 51.265625 25.265625 53.625 
Q 29.59375 56 35.59375 56 
Q 45.5625 56 51.78125 48.09375 
Q 58.015625 40.1875 58.015625 27.296875 
Q 58.015625 14.40625 51.78125 6.484375 
Q 45.5625 -1.421875 35.59375 -1.421875 
Q 29.59375 -1.421875 25.265625 0.953125 
Q 20.953125 3.328125 18.109375 8.203125 
z
M 48.6875 27.296875 
Q 48.6875 37.203125 44.609375 42.84375 
Q 40.53125 48.484375 33.40625 48.484375 
Q 26.265625 48.484375 22.1875 42.84375 
Q 18.109375 37.203125 18.109375 27.296875 
Q 18.109375 17.390625 22.1875 11.75 
Q 26.265625 6.109375 33.40625 6.109375 
Q 40.53125 6.109375 44.609375 11.75 
Q 48.6875 17.390625 48.6875 27.296875 
z
" id="DejaVuSans-112"/>
      <path d="M 25.390625 72.90625 
L 33.6875 72.90625 
L 8.296875 -9.28125 
L 0 -9.28125 
z
" id="DejaVuSans-47"/>
      <path d="M 13.09375 38.1875 
L 33.796875 38.1875 
L 33.796875 32.625 
L 4.59375 32.625 
L 4.59375 37.984375 
Q 6.25 39.5 9.328125 42.234375 
Q 26.125 57.125 26.125 61.71875 
Q 26.125 64.9375 23.578125 66.90625 
Q 21.046875 68.890625 16.890625 68.890625 
Q 14.359375 68.890625 11.375 68.03125 
Q 8.40625 67.1875 4.890625 65.484375 
L 4.890625 71.484375 
Q 8.640625 72.859375 11.890625 73.53125 
Q 15.140625 74.21875 17.921875 74.21875 
Q 25 74.21875 29.25 71 
Q 33.5 67.78125 33.5 62.5 
Q 33.5 55.71875 17.328125 41.84375 
Q 14.59375 39.5 13.09375 38.1875 
z
" id="DejaVuSans-178"/>
     </defs>
     <g transform="translate(872.75 51.774844)scale(0.15 -0.15)">
      <use xlink:href="#DejaVuSans-86"/>
      <use x="68.298828" xlink:href="#DejaVuSans-101"/>
      <use x="129.822266" xlink:href="#DejaVuSans-114"/>
      <use x="170.935547" xlink:href="#DejaVuSans-116"/>
      <use x="210.144531" xlink:href="#DejaVuSans-105"/>
      <use x="237.927734" xlink:href="#DejaVuSans-99"/>
      <use x="292.908203" xlink:href="#DejaVuSans-97"/>
      <use x="354.1875" xlink:href="#DejaVuSans-108"/>
      <use x="381.970703" xlink:href="#DejaVuSans-32"/>
      <use x="413.757812" xlink:href="#DejaVuSans-65"/>
      <use x="482.150391" xlink:href="#DejaVuSans-99"/>
      <use x="537.130859" xlink:href="#DejaVuSans-99"/>
      <use x="592.111328" xlink:href="#DejaVuSans-101"/>
      <use x="653.634766" xlink:href="#DejaVuSans-108"/>
      <use x="681.417969" xlink:href="#DejaVuSans-101"/>
      <use x="742.941406" xlink:href="#DejaVuSans-114"/>
      <use x="784.054688" xlink:href="#DejaVuSans-97"/>
      <use x="845.333984" xlink:href="#DejaVuSans-116"/>
      <use x="884.542969" xlink:href="#DejaVuSans-105"/>
      <use x="912.326172" xlink:href="#DejaVuSans-111"/>
      <use x="973.507812" xlink:href="#DejaVuSans-110"/>
      <use x="1036.886719" xlink:href="#DejaVuSans-32"/>
      <use x="1068.673828" xlink:href="#DejaVuSans-72"/>
      <use x="1143.869141" xlink:href="#DejaVuSans-105"/>
      <use x="1171.652344" xlink:href="#DejaVuSans-112"/>
      <use x="1235.128906" xlink:href="#DejaVuSans-32"/>
      <use x="1266.916016" xlink:href="#DejaVuSans-105"/>
      <use x="1294.699219" xlink:href="#DejaVuSans-110"/>
      <use x="1358.078125" xlink:href="#DejaVuSans-32"/>
      <use x="1389.865234" xlink:href="#DejaVuSans-109"/>
      <use x="1487.277344" xlink:href="#DejaVuSans-47"/>
      <use x="1520.96875" xlink:href="#DejaVuSans-115"/>
      <use x="1573.068359" xlink:href="#DejaVuSans-178"/>
     </g>
    </g>
    <g id="line2d_16">
     <path d="M 830.75 68.542031 
L 860.75 68.542031 
" style="fill:none;stroke:#ff7f0e;stroke-linecap:square;stroke-width:1.5;"/>
    </g>
    <g id="line2d_17"/>
    <g id="text_14">
     <!-- Vertical Acceleration Left Foot in m/s² -->
     <defs>
      <path d="M 9.8125 72.90625 
L 19.671875 72.90625 
L 19.671875 8.296875 
L 55.171875 8.296875 
L 55.171875 0 
L 9.8125 0 
z
" id="DejaVuSans-76"/>
      <path d="M 37.109375 75.984375 
L 37.109375 68.5 
L 28.515625 68.5 
Q 23.6875 68.5 21.796875 66.546875 
Q 19.921875 64.59375 19.921875 59.515625 
L 19.921875 54.6875 
L 34.71875 54.6875 
L 34.71875 47.703125 
L 19.921875 47.703125 
L 19.921875 0 
L 10.890625 0 
L 10.890625 47.703125 
L 2.296875 47.703125 
L 2.296875 54.6875 
L 10.890625 54.6875 
L 10.890625 58.5 
Q 10.890625 67.625 15.140625 71.796875 
Q 19.390625 75.984375 28.609375 75.984375 
z
" id="DejaVuSans-102"/>
      <path d="M 9.8125 72.90625 
L 51.703125 72.90625 
L 51.703125 64.59375 
L 19.671875 64.59375 
L 19.671875 43.109375 
L 48.578125 43.109375 
L 48.578125 34.8125 
L 19.671875 34.8125 
L 19.671875 0 
L 9.8125 0 
z
" id="DejaVuSans-70"/>
     </defs>
     <g transform="translate(872.75 73.792031)scale(0.15 -0.15)">
      <use xlink:href="#DejaVuSans-86"/>
      <use x="68.298828" xlink:href="#DejaVuSans-101"/>
      <use x="129.822266" xlink:href="#DejaVuSans-114"/>
      <use x="170.935547" xlink:href="#DejaVuSans-116"/>
      <use x="210.144531" xlink:href="#DejaVuSans-105"/>
      <use x="237.927734" xlink:href="#DejaVuSans-99"/>
      <use x="292.908203" xlink:href="#DejaVuSans-97"/>
      <use x="354.1875" xlink:href="#DejaVuSans-108"/>
      <use x="381.970703" xlink:href="#DejaVuSans-32"/>
      <use x="413.757812" xlink:href="#DejaVuSans-65"/>
      <use x="482.150391" xlink:href="#DejaVuSans-99"/>
      <use x="537.130859" xlink:href="#DejaVuSans-99"/>
      <use x="592.111328" xlink:href="#DejaVuSans-101"/>
      <use x="653.634766" xlink:href="#DejaVuSans-108"/>
      <use x="681.417969" xlink:href="#DejaVuSans-101"/>
      <use x="742.941406" xlink:href="#DejaVuSans-114"/>
      <use x="784.054688" xlink:href="#DejaVuSans-97"/>
      <use x="845.333984" xlink:href="#DejaVuSans-116"/>
      <use x="884.542969" xlink:href="#DejaVuSans-105"/>
      <use x="912.326172" xlink:href="#DejaVuSans-111"/>
      <use x="973.507812" xlink:href="#DejaVuSans-110"/>
      <use x="1036.886719" xlink:href="#DejaVuSans-32"/>
      <use x="1068.673828" xlink:href="#DejaVuSans-76"/>
      <use x="1124.371094" xlink:href="#DejaVuSans-101"/>
      <use x="1185.894531" xlink:href="#DejaVuSans-102"/>
      <use x="1221.083984" xlink:href="#DejaVuSans-116"/>
      <use x="1260.292969" xlink:href="#DejaVuSans-32"/>
      <use x="1292.080078" xlink:href="#DejaVuSans-70"/>
      <use x="1349.552734" xlink:href="#DejaVuSans-111"/>
      <use x="1410.734375" xlink:href="#DejaVuSans-111"/>
      <use x="1471.916016" xlink:href="#DejaVuSans-116"/>
      <use x="1511.125" xlink:href="#DejaVuSans-32"/>
      <use x="1542.912109" xlink:href="#DejaVuSans-105"/>
      <use x="1570.695312" xlink:href="#DejaVuSans-110"/>
      <use x="1634.074219" xlink:href="#DejaVuSans-32"/>
      <use x="1665.861328" xlink:href="#DejaVuSans-109"/>
      <use x="1763.273438" xlink:href="#DejaVuSans-47"/>
      <use x="1796.964844" xlink:href="#DejaVuSans-115"/>
      <use x="1849.064453" xlink:href="#DejaVuSans-178"/>
     </g>
    </g>
    <g id="line2d_18">
     <path d="M 830.75 90.559219 
L 860.75 90.559219 
" style="fill:none;stroke:#2ca02c;stroke-linecap:square;stroke-width:1.5;"/>
    </g>
    <g id="line2d_19"/>
    <g id="text_15">
     <!-- Vertical Acceleration Right Foot in m/s² -->
     <defs>
      <path d="M 44.390625 34.1875 
Q 47.5625 33.109375 50.5625 29.59375 
Q 53.5625 26.078125 56.59375 19.921875 
L 66.609375 0 
L 56 0 
L 46.6875 18.703125 
Q 43.0625 26.03125 39.671875 28.421875 
Q 36.28125 30.8125 30.421875 30.8125 
L 19.671875 30.8125 
L 19.671875 0 
L 9.8125 0 
L 9.8125 72.90625 
L 32.078125 72.90625 
Q 44.578125 72.90625 50.734375 67.671875 
Q 56.890625 62.453125 56.890625 51.90625 
Q 56.890625 45.015625 53.6875 40.46875 
Q 50.484375 35.9375 44.390625 34.1875 
z
M 19.671875 64.796875 
L 19.671875 38.921875 
L 32.078125 38.921875 
Q 39.203125 38.921875 42.84375 42.21875 
Q 46.484375 45.515625 46.484375 51.90625 
Q 46.484375 58.296875 42.84375 61.546875 
Q 39.203125 64.796875 32.078125 64.796875 
z
" id="DejaVuSans-82"/>
     </defs>
     <g transform="translate(872.75 95.809219)scale(0.15 -0.15)">
      <use xlink:href="#DejaVuSans-86"/>
      <use x="68.298828" xlink:href="#DejaVuSans-101"/>
      <use x="129.822266" xlink:href="#DejaVuSans-114"/>
      <use x="170.935547" xlink:href="#DejaVuSans-116"/>
      <use x="210.144531" xlink:href="#DejaVuSans-105"/>
      <use x="237.927734" xlink:href="#DejaVuSans-99"/>
      <use x="292.908203" xlink:href="#DejaVuSans-97"/>
      <use x="354.1875" xlink:href="#DejaVuSans-108"/>
      <use x="381.970703" xlink:href="#DejaVuSans-32"/>
      <use x="413.757812" xlink:href="#DejaVuSans-65"/>
      <use x="482.150391" xlink:href="#DejaVuSans-99"/>
      <use x="537.130859" xlink:href="#DejaVuSans-99"/>
      <use x="592.111328" xlink:href="#DejaVuSans-101"/>
      <use x="653.634766" xlink:href="#DejaVuSans-108"/>
      <use x="681.417969" xlink:href="#DejaVuSans-101"/>
      <use x="742.941406" xlink:href="#DejaVuSans-114"/>
      <use x="784.054688" xlink:href="#DejaVuSans-97"/>
      <use x="845.333984" xlink:href="#DejaVuSans-116"/>
      <use x="884.542969" xlink:href="#DejaVuSans-105"/>
      <use x="912.326172" xlink:href="#DejaVuSans-111"/>
      <use x="973.507812" xlink:href="#DejaVuSans-110"/>
      <use x="1036.886719" xlink:href="#DejaVuSans-32"/>
      <use x="1068.673828" xlink:href="#DejaVuSans-82"/>
      <use x="1138.15625" xlink:href="#DejaVuSans-105"/>
      <use x="1165.939453" xlink:href="#DejaVuSans-103"/>
      <use x="1229.416016" xlink:href="#DejaVuSans-104"/>
      <use x="1292.794922" xlink:href="#DejaVuSans-116"/>
      <use x="1332.003906" xlink:href="#DejaVuSans-32"/>
      <use x="1363.791016" xlink:href="#DejaVuSans-70"/>
      <use x="1421.263672" xlink:href="#DejaVuSans-111"/>
      <use x="1482.445312" xlink:href="#DejaVuSans-111"/>
      <use x="1543.626953" xlink:href="#DejaVuSans-116"/>
      <use x="1582.835938" xlink:href="#DejaVuSans-32"/>
      <use x="1614.623047" xlink:href="#DejaVuSans-105"/>
      <use x="1642.40625" xlink:href="#DejaVuSans-110"/>
      <use x="1705.785156" xlink:href="#DejaVuSans-32"/>
      <use x="1737.572266" xlink:href="#DejaVuSans-109"/>
      <use x="1834.984375" xlink:href="#DejaVuSans-47"/>
      <use x="1868.675781" xlink:href="#DejaVuSans-115"/>
      <use x="1920.775391" xlink:href="#DejaVuSans-178"/>
     </g>
    </g>
    <g id="line2d_20">
     <path d="M 830.75 112.576406 
L 860.75 112.576406 
" style="fill:none;stroke:#d62728;stroke-linecap:square;stroke-width:1.5;"/>
    </g>
    <g id="line2d_21"/>
    <g id="text_16">
     <!-- Vertical Rotation Hip in rad/s -->
     <g transform="translate(872.75 117.826406)scale(0.15 -0.15)">
      <use xlink:href="#DejaVuSans-86"/>
      <use x="68.298828" xlink:href="#DejaVuSans-101"/>
      <use x="129.822266" xlink:href="#DejaVuSans-114"/>
      <use x="170.935547" xlink:href="#DejaVuSans-116"/>
      <use x="210.144531" xlink:href="#DejaVuSans-105"/>
      <use x="237.927734" xlink:href="#DejaVuSans-99"/>
      <use x="292.908203" xlink:href="#DejaVuSans-97"/>
      <use x="354.1875" xlink:href="#DejaVuSans-108"/>
      <use x="381.970703" xlink:href="#DejaVuSans-32"/>
      <use x="413.757812" xlink:href="#DejaVuSans-82"/>
      <use x="483.177734" xlink:href="#DejaVuSans-111"/>
      <use x="544.359375" xlink:href="#DejaVuSans-116"/>
      <use x="583.568359" xlink:href="#DejaVuSans-97"/>
      <use x="644.847656" xlink:href="#DejaVuSans-116"/>
      <use x="684.056641" xlink:href="#DejaVuSans-105"/>
      <use x="711.839844" xlink:href="#DejaVuSans-111"/>
      <use x="773.021484" xlink:href="#DejaVuSans-110"/>
      <use x="836.400391" xlink:href="#DejaVuSans-32"/>
      <use x="868.1875" xlink:href="#DejaVuSans-72"/>
      <use x="943.382812" xlink:href="#DejaVuSans-105"/>
      <use x="971.166016" xlink:href="#DejaVuSans-112"/>
      <use x="1034.642578" xlink:href="#DejaVuSans-32"/>
      <use x="1066.429688" xlink:href="#DejaVuSans-105"/>
      <use x="1094.212891" xlink:href="#DejaVuSans-110"/>
      <use x="1157.591797" xlink:href="#DejaVuSans-32"/>
      <use x="1189.378906" xlink:href="#DejaVuSans-114"/>
      <use x="1230.492188" xlink:href="#DejaVuSans-97"/>
      <use x="1291.771484" xlink:href="#DejaVuSans-100"/>
      <use x="1355.248047" xlink:href="#DejaVuSans-47"/>
      <use x="1388.939453" xlink:href="#DejaVuSans-115"/>
     </g>
    </g>
   </g>
  </g>
 </g>
 <defs>
  <clipPath id="pe9d3a79ee9">
   <rect height="543.6" width="1116" x="64.374219" y="26.877187"/>
  </clipPath>
 </defs>
</svg>
